SplineFontDB: 3.2
FontName: Robonato
FullName: Robonato
FamilyName: Robonato
Weight: Regular
Copyright: 
UComments: "2024-12-12: Created with FontForge (http://fontforge.org)"
Version: 001.000
ItalicAngle: 0
UnderlinePosition: -102.4
UnderlineWidth: 51.2
Ascent: 819
Descent: 205
InvalidEm: 0
LayerCount: 2
Layer: 0 0 "Back" 1
Layer: 1 0 "Fore" 0
XUID: [1021 135 -1188708985 30881]
StyleMap: 0x0000
FSType: 0
OS2Version: 0
OS2_WeightWidthSlopeOnly: 0
OS2_UseTypoMetrics: 1
CreationTime: 1733997157
ModificationTime: 1734022689
PfmFamily: 49
TTFWeight: 400
TTFWidth: 5
LineGap: 92
VLineGap: 92
OS2TypoAscent: 0
OS2TypoAOffset: 1
OS2TypoDescent: 0
OS2TypoDOffset: 1
OS2TypoLinegap: 92
OS2WinAscent: 0
OS2WinAOffset: 1
OS2WinDescent: 0
OS2WinDOffset: 1
HheadAscent: 0
HheadAOffset: 1
HheadDescent: 0
HheadDOffset: 1
OS2Vendor: 'PfEd'
MarkAttachClasses: 1
DEI: 91125
LangName: 1033
LangName: 1033
LangName: 1033
Encoding: ISO8859-1
UnicodeInterp: none
NameList: AGL For New Fonts
DisplaySize: -48
AntiAlias: 1
FitToEm: 0
WidthSeparation: 150
WinInfo: 27 27 9
BeginPrivate: 1
BlueValues 15 [-20 0 413 425]
EndPrivate
Grid
-1024 353.780273438 m 0
 2048 353.780273438 l 1024
  Named: "smallcase"
-1024 412.671875 m 0
 2048 412.671875 l 1024
  Named: "TOP"
-1024 179.522460938 m 0
 2048 179.522460938 l 1024
  Named: "BASE"
EndSplineSet
TeXData: 1 0 0 346030 173015 115343 0 1048576 115343 783286 444596 497025 792723 393216 433062 380633 303038 157286 324010 404750 52429 2506097 1059062 262144
BeginChars: 256 55

StartChar: A
Encoding: 65 65 0
Width: 1024
Flags: HMW
LayerCount: 2
Fore
SplineSet
160 240 m 1
 82 240 l 1
 63 179 l 1
 34 179 l 1
 109 413 l 1
 133 413 l 1
 207 179 l 1
 178 179 l 1
 160 240 l 1
90 265 m 1
 152 265 l 1
 121 367 l 1
 90 265 l 1
250 425 m 1
 338 425 l 1
 338 205 l 1
 394 205 l 1
 394 179 l 1
 250 179 l 1
 250 205 l 1
 308 205 l 1
 308 399 l 1
 250 399 l 1
 250 425 l 1
441 113 m 1
 441 352 l 1
 468 352 l 1
 470 334 l 1
 472 337 475 339 477 342 c 0
 480 344 483 346 486 348 c 0
 490 350 496 352 502 353 c 0
 507 355 513 355 519 355 c 0
 530 355 540 353 549 349 c 0
 557 345 564 339 569 331 c 0
 575 324 580 313 583 303 c 0
 586 292 588 280 588 267 c 2
 588 264 l 2
 588 252 586 240 583 229 c 0
 580 219 575 210 569 202 c 0
 564 194 557 187 549 183 c 0
 540 178 530 176 519 176 c 0
 513 176 507 177 501 178 c 0
 496 180 490 182 485 184 c 0
 483 186 480 187 478 189 c 0
 475 191 473 194 471 197 c 1
 471 113 l 1
 441 113 l 1
558 267 m 2
 558 275 557 284 555 292 c 0
 553 299 550 306 547 311 c 0
 543 317 537 323 531 326 c 0
 525 329 518 331 510 331 c 0
 506 331 502 330 498 329 c 0
 494 328 490 327 487 325 c 0
 483 323 480 319 478 316 c 0
 475 314 473 310 471 307 c 2
 471 223 l 2
 473 220 475 217 477 215 c 0
 479 212 482 210 485 208 c 0
 488 206 493 204 497 203 c 0
 501 201 506 201 511 201 c 0
 519 201 525 202 531 206 c 0
 537 209 543 214 547 220 c 0
 550 225 553 233 555 240 c 0
 557 248 558 256 558 264 c 2
 558 267 l 2
668 327 m 1
 670 331 673 334 676 336 c 0
 678 339 681 342 685 344 c 0
 690 348 695 351 701 352 c 0
 707 354 714 355 721 355 c 0
 730 355 738 354 745 351 c 0
 752 349 760 345 765 340 c 0
 770 334 774 326 776 318 c 0
 779 310 781 300 781 289 c 2
 781 179 l 1
 752 179 l 1
 752 289 l 2
 752 296 751 301 749 306 c 0
 748 312 745 316 742 319 c 0
 738 323 734 326 729 328 c 0
 725 330 719 331 713 331 c 0
 707 331 701 330 697 329 c 0
 692 327 688 325 684 322 c 0
 681 320 678 317 675 314 c 0
 672 311 670 308 668 305 c 2
 668 179 l 1
 638 179 l 1
 638 425 l 1
 668 425 l 1
 668 327 l 1
948 179 m 2
 947 182 946 184 945 187 c 0
 945 191 944 195 944 199 c 1
 941 196 938 192 934 190 c 0
 930 187 927 185 922 183 c 0
 918 181 912 179 907 178 c 0
 903 177 897 176 892 176 c 0
 883 176 874 178 866 180 c 0
 859 183 853 186 848 191 c 0
 843 195 839 201 836 207 c 0
 834 214 831 220 831 227 c 0
 831 236 834 246 838 253 c 0
 841 260 847 265 854 270 c 0
 860 275 869 279 879 281 c 0
 888 284 899 285 911 285 c 2
 943 285 l 1
 943 298 l 2
 943 303 942 308 941 312 c 0
 939 316 936 320 933 323 c 0
 929 326 925 328 920 330 c 0
 915 331 909 332 902 332 c 0
 897 332 892 331 887 330 c 0
 883 328 879 327 876 324 c 0
 872 322 869 318 867 315 c 0
 866 311 865 308 865 304 c 1
 836 304 l 1
 836 311 837 318 840 324 c 0
 844 329 848 335 854 340 c 0
 860 344 868 348 876 351 c 0
 884 354 893 355 904 355 c 0
 914 355 923 354 932 352 c 0
 940 349 947 346 953 341 c 0
 959 337 965 331 968 324 c 0
 972 316 973 307 973 298 c 2
 973 217 l 2
 973 212 974 206 975 199 c 0
 976 193 977 187 979 182 c 2
 979 179 l 1
 948 179 l 2
896 202 m 0
 902 202 907 203 912 205 c 0
 917 206 922 208 926 210 c 0
 930 213 934 215 937 218 c 0
 939 222 942 225 943 228 c 2
 943 263 l 1
 916 263 l 2
 906 263 897 262 889 261 c 0
 882 259 875 256 871 253 c 0
 868 250 865 247 864 244 c 0
 862 241 861 236 861 231 c 0
 861 227 862 223 863 220 c 0
 865 216 867 213 870 211 c 0
 872 208 877 206 881 205 c 0
 885 203 890 202 896 202 c 0
EndSplineSet
Validated: 1
EndChar

StartChar: C
Encoding: 67 67 1
Width: 1361
Flags: HW
HStem: 179 24<81 152 453 521 805 861 890 944 993 1050 1078 1132 1214 1293> 254 23<453 528 1200 1290> 320 28<276 340 454 525 679 746 993 1050 1211 1282> 372 33<1050 1076> 382 23<86 147> 390 25<805 861>
VStem: 37 28<218 363> 163 28<212 246 334 368> 236 28<179 314 320 414> 344 28<179 318> 421 28<205 252 299 318> 528 28<179 181 210 259 279 318> 636 28<179 307 318 345> 861 28<204 390> 1050 28<204 320 377 405> 1171 28<217 254> 1290 28<277 313>
LayerCount: 2
Fore
SplineSet
192 246 m 1xebff80
 191 236 188 227 184 218 c 0
 180 209 174 202 168 196 c 0
 162 190 155 184 146 181 c 0
 137 178 127 176 116 176 c 0
 107 176 99 177 91 180 c 0
 84 183 77 186 71 191 c 0
 65 196 60 201 56 207 c 0
 52 213 49 220 46 227 c 0
 43 234 40 242 39 250 c 0
 38 258 37 267 37 275 c 2
 37 306 l 2
 37 314 38 322 39 330 c 0
 40 338 43 347 46 354 c 0
 49 361 52 368 56 374 c 0
 60 380 65 385 71 390 c 0
 77 395 84 398 91 401 c 0
 98 404 107 405 116 405 c 0
 127 405 137 403 146 400 c 0
 155 397 163 391 169 385 c 0
 175 379 180 372 184 363 c 0
 188 354 191 345 192 334 c 1
 163 334 l 1
 162 341 161 346 159 352 c 0
 157 358 154 364 150 368 c 0
 146 372 142 376 136 378 c 0
 131 381 123 382 116 382 c 0
 109 382 104 381 99 379 c 0
 94 377 89 374 85 370 c 0
 81 366 79 361 76 356 c 0
 74 351 72 347 70 341 c 0
 68 335 68 329 67 323 c 0
 66 317 66 312 66 306 c 2
 66 275 l 2
 66 269 66 264 67 258 c 0
 68 252 68 247 70 241 c 0
 72 235 74 230 76 225 c 0
 78 220 81 215 85 211 c 0
 89 207 94 204 99 202 c 0
 104 200 109 199 116 199 c 0
 123 199 131 200 136 202 c 0
 142 204 146 208 150 212 c 0
 154 216 157 221 159 227 c 0
 161 233 162 239 163 246 c 1
 192 246 l 1xebff80
264 320 m 1
 266 323 269 326 272 329 c 0
 275 332 277 335 280 337 c 0
 285 341 290 343 296 345 c 0
 302 347 308 348 315 348 c 0
 324 348 332 347 339 344 c 0
 346 342 352 337 357 332 c 0
 362 327 365 320 368 312 c 0
 371 304 373 294 373 283 c 2
 373 179 l 1
 344 179 l 1
 344 284 l 2
 344 291 344 296 342 301 c 0
 340 306 338 310 335 313 c 0
 332 317 328 319 323 321 c 0
 318 323 313 324 307 324 c 0
 302 324 297 323 292 322 c 0
 287 321 284 318 280 315 c 0
 277 313 274 311 271 308 c 0
 268 305 266 302 264 299 c 2
 264 179 l 1
 236 179 l 1
 236 414 l 1
 264 414 l 1xe7ff80
 264 320 l 1
533 179 m 2
 532 181 531 184 530 187 c 0
 529 190 529 194 529 197 c 1
 526 194 523 192 519 189 c 0
 516 186 512 184 508 182 c 0
 504 180 499 179 494 178 c 0
 489 177 484 176 479 176 c 0
 470 176 462 177 455 180 c 0
 448 183 442 186 437 190 c 0
 432 194 428 200 425 206 c 0
 422 212 421 218 421 225 c 0
 421 234 423 242 427 249 c 0
 431 256 435 261 442 266 c 0
 449 270 457 274 466 276 c 0
 475 278 485 279 497 279 c 2
 528 279 l 1
 528 292 l 2
 528 297 528 302 526 306 c 0
 524 310 521 313 518 316 c 0
 515 319 510 321 505 323 c 0
 500 325 495 325 489 325 c 0
 483 325 478 324 474 323 c 0
 470 322 466 319 463 317 c 0
 460 315 458 312 456 309 c 0
 454 306 453 302 453 299 c 1
 425 299 l 1
 425 305 426 311 429 317 c 0
 432 323 436 327 442 332 c 0
 448 337 455 340 463 343 c 0
 471 346 481 348 491 348 c 0
 500 348 509 346 517 344 c 0
 525 342 532 339 538 334 c 0
 544 329 549 324 552 317 c 0
 555 310 557 301 557 292 c 2
 557 215 l 2
 557 209 557 204 558 198 c 0
 559 192 560 186 562 181 c 2
 562 179 l 1
 533 179 l 2
483 201 m 0
 489 201 493 202 498 203 c 0
 503 204 507 206 511 208 c 0
 515 210 519 213 522 216 c 0
 525 219 526 223 528 226 c 2
 528 259 l 1
 502 259 l 2
 492 259 483 259 476 257 c 0
 469 255 463 252 459 249 c 0
 456 247 454 243 452 240 c 0
 450 237 450 233 450 229 c 0
 450 225 451 221 452 218 c 0
 453 215 455 211 458 209 c 0
 461 206 464 204 468 203 c 0
 472 202 477 201 483 201 c 0
721 348 m 0
 726 348 731 348 737 347 c 0
 743 346 747 345 750 344 c 2
 746 316 l 1
 740 317 735 318 730 319 c 0
 725 320 720 320 715 320 c 0
 708 320 702 319 696 317 c 0
 690 315 685 313 681 310 c 0
 677 307 674 303 671 299 c 0
 668 295 667 290 665 285 c 2
 665 179 l 1
 636 179 l 1
 636 345 l 1
 663 345 l 1
 664 322 l 1
 664 318 l 1
 671 327 680 335 689 340 c 0
 698 345 709 348 721 348 c 0
805 414 m 1
 890 414 l 1
 890 204 l 1
 944 204 l 1
 944 179 l 1
 805 179 l 1
 805 204 l 1
 861 204 l 1
 861 390 l 1
 805 390 l 1
 805 414 l 1
993 345 m 1
 1078 345 l 1
 1078 204 l 1
 1132 204 l 1
 1132 179 l 1
 993 179 l 1
 993 204 l 1
 1050 204 l 1
 1050 320 l 1
 993 320 l 1
 993 345 l 1
1046 388 m 0
 1046 390 1046 393 1047 395 c 0
 1048 397 1049 399 1051 401 c 0
 1052 402 1054 403 1056 404 c 0
 1058 405 1060 405 1063 405 c 0
 1066 405 1068 405 1070 404 c 0
 1072 403 1074 402 1075 401 c 0
 1077 400 1078 397 1079 395 c 0
 1080 393 1080 391 1080 388 c 0
 1080 383 1079 380 1076 377 c 0
 1073 374 1069 372 1063 372 c 0xf3ff80
 1057 372 1053 374 1050 377 c 0
 1047 380 1046 383 1046 388 c 0
1250 176 m 0
 1238 176 1228 178 1218 182 c 0
 1208 186 1200 192 1193 199 c 0
 1186 206 1181 214 1177 224 c 0
 1173 234 1171 244 1171 256 c 2
 1171 262 l 2
 1171 275 1174 287 1178 298 c 0
 1182 309 1188 318 1195 325 c 0
 1202 332 1210 338 1219 342 c 0
 1228 346 1238 348 1247 348 c 0
 1259 348 1269 345 1278 341 c 0
 1287 337 1294 331 1300 324 c 0
 1306 317 1310 309 1313 299 c 0
 1316 289 1318 278 1318 266 c 2
 1318 254 l 1
 1200 254 l 1
 1200 253 l 2
 1201 245 1202 237 1204 231 c 0
 1207 225 1211 220 1215 215 c 0
 1219 210 1225 206 1231 203 c 0
 1237 200 1244 199 1252 199 c 0
 1262 199 1271 201 1279 205 c 0
 1287 209 1293 214 1298 221 c 1
 1316 208 l 1
 1310 200 1302 193 1291 186 c 0
 1280 180 1266 176 1250 176 c 0
1247 324 m 0
 1241 324 1236 323 1231 321 c 0
 1226 319 1221 316 1217 312 c 0
 1213 308 1209 303 1206 297 c 0
 1203 291 1201 285 1200 277 c 1
 1290 277 l 1
 1290 278 l 2
 1290 283 1289 289 1287 295 c 0
 1285 301 1282 306 1279 310 c 0
 1276 314 1270 317 1265 320 c 0
 1260 323 1254 324 1247 324 c 0
EndSplineSet
Validated: 1
EndChar

StartChar: F
Encoding: 70 70 2
Width: 1394
Flags: HW
HStem: 180 23<271 336 699 763 1052 1118 1285 1349> 282 25<70 167> 329 23<272 335 619 664 694 759 895 958 1054 1117 1206 1251 1280 1346> 386 25<70 183>
VStem: 41 30<180 282 307 386> 225 29<216 315> 352 29<216 315> 664 30<206 329 352 394> 844 30<180 313 325 352> 1007 29<216 315> 1134 29<216 315> 1251 30<206 329 352 394>
LayerCount: 2
Fore
SplineSet
167 282 m 1
 70 282 l 1
 70 180 l 1
 41 180 l 1
 41 411 l 1
 183 411 l 1
 183 386 l 1
 70 386 l 1
 70 307 l 1
 167 307 l 1
 167 282 l 1
225 268 m 2
 225 280 227 291 231 302 c 0
 235 313 239 322 246 330 c 0
 253 338 261 344 271 348 c 0
 281 353 291 355 303 355 c 0
 315 355 326 353 336 348 c 0
 346 344 354 338 361 330 c 0
 368 322 372 313 376 302 c 0
 380 291 382 280 382 268 c 2
 382 264 l 2
 382 252 380 241 376 230 c 0
 372 219 368 210 361 202 c 0
 354 194 346 188 336 184 c 0
 326 180 316 177 304 177 c 0
 292 177 281 180 271 184 c 0
 261 188 253 194 246 202 c 0
 239 210 235 219 231 230 c 0
 227 241 225 252 225 264 c 2
 225 268 l 2
255 264 m 2
 255 256 256 248 258 240 c 0
 260 232 263 226 267 220 c 0
 271 214 276 209 282 206 c 0
 288 203 296 201 304 201 c 0
 312 201 319 203 325 206 c 0
 331 209 336 214 340 220 c 0
 344 226 347 232 349 240 c 0
 351 248 352 256 352 264 c 2
 352 268 l 2
 352 276 351 284 349 292 c 0
 347 300 344 306 340 312 c 0
 336 318 330 323 324 326 c 0
 318 329 311 331 303 331 c 0
 295 331 288 329 282 326 c 0
 276 323 271 318 267 312 c 0
 263 306 260 300 258 292 c 0
 256 284 255 276 255 268 c 2
 255 264 l 2
500 288 m 1
 546 352 l 1
 580 352 l 1
 516 267 l 1
 582 180 l 1
 548 180 l 1
 501 245 l 1
 453 180 l 1
 419 180 l 1
 485 267 l 1
 420 352 l 1
 454 352 l 1
 500 288 l 1
694 394 m 1
 694 352 l 1
 759 352 l 1
 759 329 l 1
 694 329 l 1
 694 236 l 2
 694 229 695 223 697 219 c 0
 699 215 701 212 704 209 c 0
 707 206 710 204 714 203 c 0
 718 202 722 202 726 202 c 0
 729 202 733 202 736 202 c 0
 739 202 743 203 746 204 c 0
 749 205 752 204 755 205 c 0
 758 206 760 207 762 207 c 1
 766 186 l 2
 764 185 760 183 757 182 c 0
 754 181 750 180 746 179 c 0
 742 178 737 177 732 177 c 0
 727 177 724 177 719 177 c 0
 711 177 704 178 697 180 c 0
 690 182 685 186 680 191 c 0
 675 196 672 202 669 209 c 0
 666 217 664 225 664 236 c 2
 664 329 l 1
 619 329 l 1
 619 352 l 1
 664 352 l 1
 664 394 l 1
 694 394 l 1
932 355 m 0
 937 355 943 355 949 354 c 0
 955 353 960 352 963 351 c 2
 959 322 l 1
 953 323 947 324 942 325 c 0
 937 326 932 326 926 326 c 0
 919 326 913 325 907 323 c 0
 901 321 895 319 891 316 c 0
 887 313 884 309 881 305 c 0
 878 301 876 295 874 290 c 2
 874 180 l 1
 844 180 l 1
 844 352 l 1
 872 352 l 1
 874 329 l 1
 874 325 l 1
 881 334 889 342 899 347 c 0
 909 353 919 355 932 355 c 0
1007 268 m 2
 1007 280 1008 291 1012 302 c 0
 1016 313 1021 322 1028 330 c 0
 1035 338 1042 344 1052 348 c 0
 1062 353 1073 355 1085 355 c 0
 1097 355 1108 353 1118 348 c 0
 1128 344 1136 338 1143 330 c 0
 1150 322 1154 313 1158 302 c 0
 1162 291 1163 280 1163 268 c 2
 1163 264 l 2
 1163 252 1162 241 1158 230 c 0
 1154 219 1150 210 1143 202 c 0
 1136 194 1128 188 1118 184 c 0
 1108 180 1097 177 1085 177 c 0
 1073 177 1062 180 1052 184 c 0
 1042 188 1035 194 1028 202 c 0
 1021 210 1016 219 1012 230 c 0
 1008 241 1007 252 1007 264 c 2
 1007 268 l 2
1036 264 m 2
 1036 256 1037 248 1039 240 c 0
 1041 232 1045 226 1049 220 c 0
 1053 214 1058 209 1064 206 c 0
 1070 203 1077 201 1085 201 c 0
 1093 201 1101 203 1107 206 c 0
 1113 209 1118 214 1122 220 c 0
 1126 226 1129 232 1131 240 c 0
 1133 248 1134 256 1134 264 c 2
 1134 268 l 2
 1134 276 1133 284 1131 292 c 0
 1129 300 1126 306 1122 312 c 0
 1118 318 1112 323 1106 326 c 0
 1100 329 1093 331 1085 331 c 0
 1077 331 1070 329 1064 326 c 0
 1058 323 1053 318 1049 312 c 0
 1045 306 1041 300 1039 292 c 0
 1037 284 1036 276 1036 268 c 2
 1036 264 l 2
1280 394 m 1
 1280 352 l 1
 1346 352 l 1
 1346 329 l 1
 1280 329 l 1
 1280 236 l 2
 1280 229 1281 223 1283 219 c 0
 1285 215 1287 212 1290 209 c 0
 1293 206 1296 204 1300 203 c 0
 1304 202 1308 202 1312 202 c 0
 1315 202 1319 202 1322 202 c 0
 1325 202 1329 203 1332 204 c 0
 1335 205 1338 204 1341 205 c 0
 1344 206 1346 207 1348 207 c 1
 1352 186 l 2
 1350 185 1346 183 1343 182 c 0
 1340 181 1336 180 1332 179 c 0
 1328 178 1324 177 1319 177 c 0
 1314 177 1310 177 1305 177 c 0
 1297 177 1291 178 1284 180 c 0
 1277 182 1272 186 1267 191 c 0
 1262 196 1258 202 1255 209 c 0
 1252 217 1251 225 1251 236 c 2
 1251 329 l 1
 1206 329 l 1
 1206 352 l 1
 1251 352 l 1
 1251 394 l 1
 1280 394 l 1
EndSplineSet
Validated: 1
EndChar

StartChar: a
Encoding: 97 97 3
Width: 1024
Flags: HW
HStem: 179 26<250 308 338 394 475 545 865 936> 240 26<90 152> 263 22<871 943> 331 25<480 541 683 743 870 937> 392 20G<102 140> 399 26<250 308>
VStem: 308 30<205 399> 441 30<113 197 208 324 334 352> 558 30<216 316> 638 30<179 320 327 425> 752 30<179 324> 831 30<207 256 304 315> 943 30<179 182 218 263 285 312>
LayerCount: 2
Fore
SplineSet
160 240 m 1xdbf8
 82 240 l 1
 63 179 l 1
 34 179 l 1
 109 413 l 1
 133 413 l 1
 207 179 l 1
 178 179 l 1
 160 240 l 1xdbf8
90 265 m 1
 152 265 l 1
 121 367 l 1
 90 265 l 1
250 425 m 1x97f8
 338 425 l 1
 338 205 l 1
 394 205 l 1
 394 179 l 1
 250 179 l 1
 250 205 l 1
 308 205 l 1
 308 399 l 1
 250 399 l 1
 250 425 l 1x97f8
441 113 m 1
 441 352 l 1
 468 352 l 1
 470 334 l 1
 472 337 475 339 477 342 c 0
 480 344 483 346 486 348 c 0
 490 350 496 352 502 353 c 0
 507 355 513 355 519 355 c 0
 530 355 540 353 549 349 c 0
 557 345 564 339 569 331 c 0
 575 324 580 313 583 303 c 0
 586 292 588 280 588 267 c 2
 588 264 l 2
 588 252 586 240 583 229 c 0
 580 219 575 210 569 202 c 0
 564 194 557 187 549 183 c 0
 540 178 530 176 519 176 c 0
 513 176 507 177 501 178 c 0
 496 180 490 182 485 184 c 0
 483 186 480 187 478 189 c 0
 475 191 473 194 471 197 c 1
 471 113 l 1
 441 113 l 1
558 267 m 2
 558 275 557 284 555 292 c 0
 553 299 550 306 547 311 c 0
 543 317 537 323 531 326 c 0
 525 329 518 331 510 331 c 0
 506 331 502 330 498 329 c 0
 494 328 490 327 487 325 c 0
 483 323 480 319 478 316 c 0
 475 314 473 310 471 307 c 2
 471 223 l 2
 473 220 475 217 477 215 c 0
 479 212 482 210 485 208 c 0
 488 206 493 204 497 203 c 0
 501 201 506 201 511 201 c 0
 519 201 525 202 531 206 c 0
 537 209 543 214 547 220 c 0
 550 225 553 233 555 240 c 0xd3f8
 557 248 558 256 558 264 c 2
 558 267 l 2
668 327 m 1
 670 331 673 334 676 336 c 0
 678 339 681 342 685 344 c 0
 690 348 695 351 701 352 c 0
 707 354 714 355 721 355 c 0
 730 355 738 354 745 351 c 0
 752 349 760 345 765 340 c 0
 770 334 774 326 776 318 c 0
 779 310 781 300 781 289 c 2
 781 179 l 1
 752 179 l 1
 752 289 l 2
 752 296 751 301 749 306 c 0
 748 312 745 316 742 319 c 0
 738 323 734 326 729 328 c 0
 725 330 719 331 713 331 c 0
 707 331 701 330 697 329 c 0
 692 327 688 325 684 322 c 0
 681 320 678 317 675 314 c 0
 672 311 670 308 668 305 c 2
 668 179 l 1
 638 179 l 1
 638 425 l 1
 668 425 l 1x97f8
 668 327 l 1
948 179 m 2
 947 182 946 184 945 187 c 0
 945 191 944 195 944 199 c 1
 941 196 938 192 934 190 c 0
 930 187 927 185 922 183 c 0
 918 181 912 179 907 178 c 0
 903 177 897 176 892 176 c 0
 883 176 874 178 866 180 c 0
 859 183 853 186 848 191 c 0
 843 195 839 201 836 207 c 0
 834 214 831 220 831 227 c 0
 831 236 834 246 838 253 c 0
 841 260 847 265 854 270 c 0
 860 275 869 279 879 281 c 0
 888 284 899 285 911 285 c 2
 943 285 l 1xb3f8
 943 298 l 2
 943 303 942 308 941 312 c 0
 939 316 936 320 933 323 c 0
 929 326 925 328 920 330 c 0
 915 331 909 332 902 332 c 0
 897 332 892 331 887 330 c 0
 883 328 879 327 876 324 c 0
 872 322 869 318 867 315 c 0
 866 311 865 308 865 304 c 1
 836 304 l 1
 836 311 837 318 840 324 c 0
 844 329 848 335 854 340 c 0
 860 344 868 348 876 351 c 0
 884 354 893 355 904 355 c 0
 914 355 923 354 932 352 c 0
 940 349 947 346 953 341 c 0
 959 337 965 331 968 324 c 0
 972 316 973 307 973 298 c 2
 973 217 l 2
 973 212 974 206 975 199 c 0
 976 193 977 187 979 182 c 2
 979 179 l 1
 948 179 l 2
896 202 m 0
 902 202 907 203 912 205 c 0
 917 206 922 208 926 210 c 0
 930 213 934 215 937 218 c 0
 939 222 942 225 943 228 c 2
 943 263 l 1
 916 263 l 2
 906 263 897 262 889 261 c 0
 882 259 875 256 871 253 c 0
 868 250 865 247 864 244 c 0
 862 241 861 236 861 231 c 0
 861 227 862 223 863 220 c 0
 865 216 867 213 870 211 c 0
 872 208 877 206 881 205 c 0
 885 203 890 202 896 202 c 0
EndSplineSet
Validated: 1
EndChar

StartChar: D
Encoding: 68 68 4
Width: 1024
Flags: HW
HStem: 176 24<289 360 714 778 868 929> 180 26<75 144 446 505 535 591 711 733 733 777 864 891 892 936> 258 24<269 362 865 943> 330 23<286 349 633 678 708 774 870 937> 388 24<75 141> 399 26<446 505>
VStem: 45 30<204 388> 172 30<232 359> 239 30<219 258> 362 30<282 320> 505 30<205 399> 678 30<205 330 353 394> 832 30<206 256 305 324> 943 30<180 182 212 263 284 325>
LayerCount: 2
Fore
SplineSet
45 180 m 1x7bfc
 45 412 l 1
 99 412 l 2
 108 412 117 411 125 409 c 0
 133 407 140 405 147 402 c 0
 156 398 165 392 172 385 c 0
 179 378 186 369 190 360 c 0
 194 352 197 343 199 334 c 0
 201 325 202 315 202 304 c 2
 202 287 l 2
 202 277 201 267 199 258 c 0
 197 249 195 241 191 233 c 0
 187 225 182 217 176 211 c 0
 170 205 163 200 156 195 c 0
 148 190 140 187 130 184 c 0
 120 181 110 180 99 180 c 2
 45 180 l 1x7bfc
75 388 m 1
 75 204 l 1
 99 204 l 2
 108 204 115 205 122 207 c 0
 129 209 136 212 141 216 c 0
 147 220 152 224 156 230 c 0
 160 236 164 241 166 248 c 0
 168 254 170 261 171 267 c 0
 172 274 172 280 172 287 c 2
 172 305 l 2
 172 312 172 319 171 326 c 0
 170 333 168 338 166 344 c 0
 163 351 159 358 154 364 c 0
 149 370 143 375 136 379 c 0
 131 382 125 384 119 385 c 0
 113 387 106 388 99 388 c 2
 75 388 l 1
321 176 m 0xb3fc
 309 176 298 179 288 183 c 0
 278 187 269 193 262 200 c 0
 255 207 249 217 245 227 c 0
 241 237 239 248 239 260 c 2
 239 267 l 2
 239 281 241 293 245 304 c 0
 249 315 256 324 263 332 c 0
 270 340 279 346 288 350 c 0
 297 354 307 356 317 356 c 0
 329 356 341 353 350 349 c 0
 359 345 367 339 373 331 c 0
 379 323 384 314 387 304 c 0
 390 294 392 283 392 271 c 2
 392 258 l 1
 268 258 l 1
 268 256 l 2
 269 248 270 240 273 234 c 0
 276 228 279 222 284 217 c 0
 289 212 294 208 301 205 c 0
 308 202 315 201 323 201 c 0
 334 201 343 203 351 207 c 0
 359 211 366 217 371 224 c 1
 390 210 l 1
 384 201 376 193 364 186 c 0
 353 179 338 176 321 176 c 0xb3fc
317 331 m 0
 311 331 306 330 301 328 c 0
 296 326 290 323 286 319 c 0
 282 315 278 309 275 303 c 0
 272 297 270 290 269 282 c 1
 362 282 l 1
 362 283 l 2
 362 288 361 294 359 300 c 0
 357 306 355 312 351 316 c 0
 347 320 343 324 337 327 c 0
 332 330 325 331 317 331 c 0
446 425 m 1x77fc
 535 425 l 1
 535 205 l 1
 591 205 l 1
 591 180 l 1
 446 180 l 1
 446 205 l 1
 505 205 l 1
 505 399 l 1
 446 399 l 1
 446 425 l 1x77fc
708 394 m 1
 708 353 l 1
 774 353 l 1
 774 330 l 1
 708 330 l 1
 708 236 l 2
 708 229 709 223 711 219 c 0
 713 215 715 212 718 209 c 0
 721 206 724 204 728 203 c 0
 732 202 736 201 740 201 c 0
 743 201 747 202 750 202 c 0
 753 202 757 202 760 203 c 0
 763 204 766 204 769 205 c 0
 772 206 774 207 776 207 c 1
 780 186 l 2
 778 185 776 183 772 182 c 0
 768 181 764 180 760 179 c 0
 756 178 752 177 747 177 c 0
 742 177 738 176 733 176 c 0xb3fc
 725 176 718 178 711 180 c 0
 704 182 699 185 694 190 c 0
 689 195 686 201 683 208 c 0
 680 216 678 225 678 236 c 2
 678 330 l 1
 633 330 l 1
 633 353 l 1
 678 353 l 1
 678 394 l 1
 708 394 l 1
948 180 m 2x73fc
 947 182 946 185 945 188 c 0
 944 191 944 194 944 198 c 1
 941 195 938 193 934 190 c 0
 930 187 926 185 922 183 c 0
 918 181 913 179 908 178 c 0
 903 177 898 176 892 176 c 0xb3fc
 883 176 874 177 867 180 c 0
 860 183 853 186 848 191 c 0
 843 195 839 201 836 207 c 0
 833 213 832 221 832 228 c 0
 832 237 833 245 837 252 c 0
 841 259 847 265 854 270 c 0
 861 275 868 279 878 281 c 0
 888 283 899 284 911 284 c 2
 943 284 l 1
 943 298 l 2
 943 303 943 308 941 312 c 0
 939 316 936 320 932 323 c 0
 928 326 925 328 920 330 c 0
 915 332 909 332 903 332 c 0
 897 332 892 331 887 330 c 0
 882 329 878 326 875 324 c 0
 872 322 870 318 868 315 c 0
 866 312 865 309 865 305 c 1
 835 305 l 1
 835 311 837 317 840 323 c 0
 843 329 848 335 854 340 c 0
 860 345 867 348 875 351 c 0
 884 354 893 356 904 356 c 0
 914 356 924 354 932 352 c 0
 940 350 947 346 953 341 c 0
 959 336 964 330 968 323 c 0
 972 316 973 308 973 298 c 2
 973 217 l 2
 973 211 974 205 975 199 c 0
 976 193 977 187 979 182 c 2
 979 180 l 1
 948 180 l 2x73fc
896 202 m 0
 902 202 907 203 912 204 c 0
 917 205 922 208 926 210 c 0
 930 212 933 216 936 219 c 0
 939 222 941 225 943 228 c 2
 943 263 l 1
 916 263 l 2
 906 263 897 263 889 261 c 0
 881 259 875 257 871 253 c 0
 868 250 866 248 864 244 c 0
 862 240 861 236 861 232 c 0
 861 228 862 224 863 220 c 0
 864 216 867 214 870 211 c 0
 873 208 877 205 881 204 c 0
 885 203 890 202 896 202 c 0
EndSplineSet
Validated: 1
EndChar

StartChar: f
Encoding: 102 102 5
Width: 1394
Flags: HW
HStem: 180 23<271 336 699 763 1052 1118 1285 1349> 282 25<70 167> 329 23<272 335 619 664 694 759 895 958 1054 1117 1206 1251 1280 1346> 386 25<70 183>
VStem: 41 30<180 282 307 386> 225 29<216 315> 352 29<216 315> 664 30<206 329 352 394> 844 30<180 313 325 352> 1007 29<216 315> 1134 29<216 315> 1251 30<206 329 352 394>
LayerCount: 2
Fore
SplineSet
167 282 m 1
 70 282 l 1
 70 180 l 1
 41 180 l 1
 41 411 l 1
 183 411 l 1
 183 386 l 1
 70 386 l 1
 70 307 l 1
 167 307 l 1
 167 282 l 1
225 268 m 2
 225 280 227 291 231 302 c 0
 235 313 239 322 246 330 c 0
 253 338 261 344 271 348 c 0
 281 353 291 355 303 355 c 0
 315 355 326 353 336 348 c 0
 346 344 354 338 361 330 c 0
 368 322 372 313 376 302 c 0
 380 291 382 280 382 268 c 2
 382 264 l 2
 382 252 380 241 376 230 c 0
 372 219 368 210 361 202 c 0
 354 194 346 188 336 184 c 0
 326 180 316 177 304 177 c 0
 292 177 281 180 271 184 c 0
 261 188 253 194 246 202 c 0
 239 210 235 219 231 230 c 0
 227 241 225 252 225 264 c 2
 225 268 l 2
255 264 m 2
 255 256 256 248 258 240 c 0
 260 232 263 226 267 220 c 0
 271 214 276 209 282 206 c 0
 288 203 296 201 304 201 c 0
 312 201 319 203 325 206 c 0
 331 209 336 214 340 220 c 0
 344 226 347 232 349 240 c 0
 351 248 352 256 352 264 c 2
 352 268 l 2
 352 276 351 284 349 292 c 0
 347 300 344 306 340 312 c 0
 336 318 330 323 324 326 c 0
 318 329 311 331 303 331 c 0
 295 331 288 329 282 326 c 0
 276 323 271 318 267 312 c 0
 263 306 260 300 258 292 c 0
 256 284 255 276 255 268 c 2
 255 264 l 2
500 288 m 1
 546 352 l 1
 580 352 l 1
 516 267 l 1
 582 180 l 1
 548 180 l 1
 501 245 l 1
 453 180 l 1
 419 180 l 1
 485 267 l 1
 420 352 l 1
 454 352 l 1
 500 288 l 1
694 394 m 1
 694 352 l 1
 759 352 l 1
 759 329 l 1
 694 329 l 1
 694 236 l 2
 694 229 695 223 697 219 c 0
 699 215 701 212 704 209 c 0
 707 206 710 204 714 203 c 0
 718 202 722 202 726 202 c 0
 729 202 733 202 736 202 c 0
 739 202 743 203 746 204 c 0
 749 205 752 204 755 205 c 0
 758 206 760 207 762 207 c 1
 766 186 l 2
 764 185 760 183 757 182 c 0
 754 181 750 180 746 179 c 0
 742 178 737 177 732 177 c 0
 727 177 724 177 719 177 c 0
 711 177 704 178 697 180 c 0
 690 182 685 186 680 191 c 0
 675 196 672 202 669 209 c 0
 666 217 664 225 664 236 c 2
 664 329 l 1
 619 329 l 1
 619 352 l 1
 664 352 l 1
 664 394 l 1
 694 394 l 1
932 355 m 0
 937 355 943 355 949 354 c 0
 955 353 960 352 963 351 c 2
 959 322 l 1
 953 323 947 324 942 325 c 0
 937 326 932 326 926 326 c 0
 919 326 913 325 907 323 c 0
 901 321 895 319 891 316 c 0
 887 313 884 309 881 305 c 0
 878 301 876 295 874 290 c 2
 874 180 l 1
 844 180 l 1
 844 352 l 1
 872 352 l 1
 874 329 l 1
 874 325 l 1
 881 334 889 342 899 347 c 0
 909 353 919 355 932 355 c 0
1007 268 m 2
 1007 280 1008 291 1012 302 c 0
 1016 313 1021 322 1028 330 c 0
 1035 338 1042 344 1052 348 c 0
 1062 353 1073 355 1085 355 c 0
 1097 355 1108 353 1118 348 c 0
 1128 344 1136 338 1143 330 c 0
 1150 322 1154 313 1158 302 c 0
 1162 291 1163 280 1163 268 c 2
 1163 264 l 2
 1163 252 1162 241 1158 230 c 0
 1154 219 1150 210 1143 202 c 0
 1136 194 1128 188 1118 184 c 0
 1108 180 1097 177 1085 177 c 0
 1073 177 1062 180 1052 184 c 0
 1042 188 1035 194 1028 202 c 0
 1021 210 1016 219 1012 230 c 0
 1008 241 1007 252 1007 264 c 2
 1007 268 l 2
1036 264 m 2
 1036 256 1037 248 1039 240 c 0
 1041 232 1045 226 1049 220 c 0
 1053 214 1058 209 1064 206 c 0
 1070 203 1077 201 1085 201 c 0
 1093 201 1101 203 1107 206 c 0
 1113 209 1118 214 1122 220 c 0
 1126 226 1129 232 1131 240 c 0
 1133 248 1134 256 1134 264 c 2
 1134 268 l 2
 1134 276 1133 284 1131 292 c 0
 1129 300 1126 306 1122 312 c 0
 1118 318 1112 323 1106 326 c 0
 1100 329 1093 331 1085 331 c 0
 1077 331 1070 329 1064 326 c 0
 1058 323 1053 318 1049 312 c 0
 1045 306 1041 300 1039 292 c 0
 1037 284 1036 276 1036 268 c 2
 1036 264 l 2
1280 394 m 1
 1280 352 l 1
 1346 352 l 1
 1346 329 l 1
 1280 329 l 1
 1280 236 l 2
 1280 229 1281 223 1283 219 c 0
 1285 215 1287 212 1290 209 c 0
 1293 206 1296 204 1300 203 c 0
 1304 202 1308 202 1312 202 c 0
 1315 202 1319 202 1322 202 c 0
 1325 202 1329 203 1332 204 c 0
 1335 205 1338 204 1341 205 c 0
 1344 206 1346 207 1348 207 c 1
 1352 186 l 2
 1350 185 1346 183 1343 182 c 0
 1340 181 1336 180 1332 179 c 0
 1328 178 1324 177 1319 177 c 0
 1314 177 1310 177 1305 177 c 0
 1297 177 1291 178 1284 180 c 0
 1277 182 1272 186 1267 191 c 0
 1262 196 1258 202 1255 209 c 0
 1252 217 1251 225 1251 236 c 2
 1251 329 l 1
 1206 329 l 1
 1206 352 l 1
 1251 352 l 1
 1251 394 l 1
 1280 394 l 1
EndSplineSet
Validated: 1
EndChar

StartChar: B
Encoding: 66 66 6
Width: 1024
Flags: WO
HStem: 176 24<476.02 535.938 874.297 935.703> 263 21<477.859 550> 288 25<78 152.719> 326 30<332.282 385.641> 332 24<477.249 525.765 874.794 934.716> 387 25<78 134.765>
VStem: 48 30<205 288 313 387> 169 30<214.323 279.359 329.285 374.694> 270 29<180 312.759 326 353> 439 29<206.619 256.723 305 326.089> 550 30<180.094 198 211.316 263 284 325.894> 826 30<215.217 315.697> 954 30<215.217 315.697>
LayerCount: 2
Fore
SplineSet
48 180 m 1xeff8
 48 412 l 1
 117 412 l 2
 127 412 136 410 145 408 c 0
 154 406 162 402 169 397 c 0
 176 392 183 386 187 378 c 0
 191 370 193 361 193 350 c 0
 193 344 192 337 190 332 c 0
 188 327 186 324 183 320 c 0
 180 316 176 313 172 310 c 0
 168 307 163 304 157 302 c 1
 163 301 169 298 174 294 c 0
 179 290 184 286 188 282 c 0
 192 277 194 272 196 266 c 0
 198 260 199 254 199 247 c 0
 199 236 197 226 193 218 c 0
 189 210 183 203 176 197 c 0
 169 191 160 187 151 184 c 0
 142 181 132 180 122 180 c 2
 48 180 l 1xeff8
78 288 m 1
 78 205 l 1
 123 205 l 2
 129 205 135 206 141 208 c 0
 147 210 152 212 156 216 c 0
 160 220 164 224 166 229 c 0
 169 234 169 240 169 246 c 0
 169 253 168 258 166 263 c 0
 164 268 161 273 157 277 c 0
 153 281 147 283 142 285 c 0
 137 287 131 288 125 288 c 2
 78 288 l 1
78 313 m 1
 119 313 l 2
 125 313 130 314 135 316 c 0
 140 318 145 320 149 323 c 0
 153 326 157 327 160 332 c 0
 163 337 163 344 163 350 c 0
 163 356 163 362 160 367 c 0
 158 372 154 375 150 378 c 0
 146 381 141 386 135 387 c 0
 130 388 124 387 118 387 c 2
 78 387 l 1
 78 313 l 1
358 356 m 0xf7f8
 363 356 369 356 375 355 c 0
 381 354 386 353 389 352 c 2
 385 323 l 1
 379 324 373 325 368 326 c 0
 363 327 358 326 352 326 c 0
 345 326 338 328 332 326 c 0
 326 324 321 319 317 316 c 0
 313 313 310 309 307 305 c 0
 304 301 301 296 299 291 c 2
 299 180 l 1
 270 180 l 1
 270 353 l 1
 298 353 l 1
 299 329 l 1
 299 326 l 1
 306 335 314 342 324 347 c 0
 334 353 345 356 358 356 c 0xf7f8
555 180 m 2
 554 182 551 185 550 188 c 0
 549 191 550 194 550 198 c 1
 547 195 545 193 541 190 c 0
 537 187 533 185 529 183 c 0
 525 181 520 177 515 176 c 0
 510 175 505 176 499 176 c 0
 490 176 481 177 474 180 c 0
 467 183 460 186 455 191 c 0
 450 195 446 201 443 207 c 0
 440 213 439 221 439 228 c 0
 439 237 440 245 444 252 c 0
 448 259 453 265 460 270 c 0
 467 275 475 279 485 281 c 0
 495 283 506 284 518 284 c 2
 550 284 l 1
 550 298 l 2
 550 303 549 308 547 312 c 0
 545 316 543 320 539 323 c 0
 535 326 531 330 526 332 c 0
 521 334 515 332 509 332 c 0
 503 332 499 333 494 332 c 0xeff8
 489 331 485 328 482 326 c 0xf7f8
 479 324 476 318 474 315 c 0
 472 312 472 309 472 305 c 1
 442 305 l 1
 442 311 444 317 447 323 c 0
 450 329 455 335 461 340 c 0
 467 345 474 348 482 351 c 0
 491 354 500 356 511 356 c 0xeff8
 521 356 530 354 538 352 c 0
 546 350 554 346 560 341 c 0
 566 336 571 330 575 323 c 0
 579 316 580 308 580 298 c 2
 580 217 l 2
 580 211 580 205 581 199 c 0
 582 193 584 185 586 180 c 2
 555 180 l 2
503 202 m 0
 509 202 514 203 519 204 c 0
 524 205 529 208 533 210 c 0
 537 212 540 216 543 219 c 0
 546 222 548 225 550 228 c 2
 550 263 l 1
 523 263 l 2
 513 263 504 265 496 263 c 0
 488 261 482 257 478 253 c 0
 475 250 473 248 471 244 c 0
 469 240 468 236 468 232 c 0
 468 228 469 224 470 220 c 0
 471 216 474 214 477 211 c 0
 480 208 484 205 488 204 c 0
 492 203 497 202 503 202 c 0
697 180 m 1
 626 353 l 1
 656 353 l 1
 706 222 l 1
 709 211 l 1
 711 222 l 1
 760 353 l 1
 790 353 l 1
 720 180 l 1
 697 180 l 1
826 268 m 2
 826 280 828 291 832 302 c 0
 836 313 840 324 847 332 c 0
 854 340 862 345 872 349 c 0
 882 354 893 356 905 356 c 0
 917 356 928 354 938 349 c 0
 948 345 956 340 963 332 c 0
 970 324 974 313 978 302 c 0
 982 291 984 280 984 268 c 2
 984 263 l 2
 984 251 982 240 978 229 c 0
 974 218 970 210 963 202 c 0
 956 194 948 187 938 183 c 0
 928 179 917 176 905 176 c 0
 893 176 882 179 872 183 c 0
 862 187 854 194 847 202 c 0
 840 210 836 218 832 229 c 0
 828 240 826 251 826 263 c 2
 826 268 l 2
856 263 m 2
 856 254 857 248 859 240 c 0
 861 232 864 225 868 219 c 0
 872 213 878 208 884 205 c 0
 890 202 897 200 905 200 c 0
 913 200 920 202 926 205 c 0
 932 208 938 213 942 219 c 0
 946 225 949 232 951 240 c 0
 953 248 954 254 954 263 c 2
 954 268 l 2
 954 276 953 284 951 292 c 0
 949 300 946 306 942 312 c 0
 938 318 932 323 926 326 c 0xf7f8
 920 330 913 332 905 332 c 0xeff8
 897 332 889 330 883 326 c 0xf7f8
 877 323 872 318 868 312 c 0
 864 306 861 300 859 292 c 0
 857 284 856 276 856 268 c 2
 856 263 l 2
EndSplineSet
Validated: 5
EndChar

StartChar: E
Encoding: 69 69 7
Width: 838
Flags: HW
HStem: 180 25<79 192 283 355 673 744> 287 25<79 176> 331 24<287 349 487 546 678 739> 387 25<79 191> 405 20G<441 471>
VStem: 50 30<205 287 312 387> 240 30<215 317> 361 28<210 234 293 322> 441 30<180 321 327 425> 555 30<180 324> 630 30<216 315> 757 30<216 315>
LayerCount: 2
Fore
SplineSet
176 287 m 1xf7f0
 79 287 l 1
 79 205 l 1
 192 205 l 1
 192 180 l 1
 50 180 l 1
 50 412 l 1
 191 412 l 1
 191 387 l 1
 79 387 l 1
 79 312 l 1
 176 312 l 1
 176 287 l 1xf7f0
319 200 m 0
 324 200 329 201 334 203 c 0
 339 205 344 207 348 210 c 0
 352 213 355 217 357 221 c 0
 359 225 361 229 361 234 c 1
 389 234 l 1
 389 226 387 219 383 212 c 0
 379 205 373 199 367 194 c 0
 361 189 353 184 345 181 c 0
 337 178 328 176 319 176 c 0
 306 176 294 178 284 183 c 0
 274 188 266 194 260 202 c 0
 253 210 248 220 245 230 c 0
 242 240 240 251 240 263 c 2
 240 269 l 2
 240 280 242 292 245 302 c 0
 248 312 253 322 260 330 c 0
 266 338 274 344 284 349 c 0
 294 354 306 356 319 356 c 0
 329 356 338 354 347 351 c 0
 356 348 363 344 369 338 c 0
 375 332 380 326 384 318 c 0
 388 310 389 302 389 293 c 1
 361 293 l 1
 361 298 359 303 357 308 c 0
 355 313 353 316 349 320 c 0
 345 324 340 326 335 328 c 0
 330 330 325 331 319 331 c 0
 310 331 301 330 295 326 c 0
 289 322 284 318 280 312 c 0
 276 306 274 299 272 292 c 0
 270 285 270 276 270 269 c 2
 270 263 l 2
 270 255 270 247 272 240 c 0
 274 233 276 226 280 220 c 0
 284 214 289 210 295 206 c 0
 301 202 310 200 319 200 c 0
471 327 m 1
 473 331 476 333 479 336 c 0
 482 339 485 342 488 344 c 0
 493 348 499 351 505 353 c 0
 511 355 517 356 524 356 c 0
 533 356 542 355 549 352 c 0
 556 349 563 346 568 340 c 0
 573 334 577 327 580 318 c 0
 583 310 584 300 584 288 c 2
 584 180 l 1
 555 180 l 1
 555 289 l 2
 555 296 554 302 552 307 c 0
 550 312 548 317 545 320 c 0
 542 324 538 326 533 328 c 0
 528 330 522 331 516 331 c 0
 511 331 505 329 500 328 c 0
 495 327 491 325 487 322 c 0
 484 320 481 317 478 314 c 0
 475 311 473 308 471 305 c 2
 471 180 l 1
 441 180 l 1
 441 425 l 1
 471 425 l 1xeff0
 471 327 l 1
630 268 m 2
 630 280 631 291 635 302 c 0
 639 313 644 322 651 330 c 0
 658 338 665 345 675 349 c 0
 685 354 696 356 708 356 c 0
 720 356 731 354 741 349 c 0
 751 345 759 338 766 330 c 0
 773 322 778 313 782 302 c 0
 786 291 787 280 787 268 c 2
 787 264 l 2
 787 252 786 240 782 229 c 0
 778 218 773 210 766 202 c 0
 759 194 751 187 741 183 c 0
 731 179 721 176 709 176 c 0
 697 176 685 179 675 183 c 0
 665 187 658 194 651 202 c 0
 644 210 639 218 635 229 c 0
 631 240 630 252 630 264 c 2
 630 268 l 2
659 264 m 2
 659 255 660 248 662 240 c 0
 664 232 668 225 672 219 c 0
 676 213 681 208 687 205 c 0
 693 202 701 200 709 200 c 0
 717 200 724 202 730 205 c 0
 736 208 741 213 745 219 c 0
 749 225 752 232 754 240 c 0
 756 248 757 255 757 264 c 2
 757 268 l 2
 757 276 756 284 754 292 c 0
 752 300 749 306 745 312 c 0
 741 318 736 323 730 326 c 0
 724 330 716 331 708 331 c 0
 700 331 693 330 687 326 c 0
 681 323 676 318 672 312 c 0
 668 306 664 300 662 292 c 0
 660 284 659 276 659 268 c 2
 659 264 l 2
EndSplineSet
Validated: 1
EndChar

StartChar: d
Encoding: 100 100 8
Width: 1024
Flags: HW
HStem: 176 24<289 360 714 778 868 929> 180 26<75 144 446 505 535 591 711 733 733 777 864 891 892 936> 258 24<269 362 865 943> 330 23<286 349 633 678 708 774 870 937> 388 24<75 141> 399 26<446 505>
VStem: 45 30<204 388> 172 30<232 359> 239 30<219 258> 362 30<282 320> 505 30<205 399> 678 30<205 330 353 394> 832 30<206 256 305 324> 943 30<180 182 212 263 284 325>
LayerCount: 2
Fore
SplineSet
45 180 m 1x7bfc
 45 412 l 1
 99 412 l 2
 108 412 117 411 125 409 c 0
 133 407 140 405 147 402 c 0
 156 398 165 392 172 385 c 0
 179 378 186 369 190 360 c 0
 194 352 197 343 199 334 c 0
 201 325 202 315 202 304 c 2
 202 287 l 2
 202 277 201 267 199 258 c 0
 197 249 195 241 191 233 c 0
 187 225 182 217 176 211 c 0
 170 205 163 200 156 195 c 0
 148 190 140 187 130 184 c 0
 120 181 110 180 99 180 c 2
 45 180 l 1x7bfc
75 388 m 1
 75 204 l 1
 99 204 l 2
 108 204 115 205 122 207 c 0
 129 209 136 212 141 216 c 0
 147 220 152 224 156 230 c 0
 160 236 164 241 166 248 c 0
 168 254 170 261 171 267 c 0
 172 274 172 280 172 287 c 2
 172 305 l 2
 172 312 172 319 171 326 c 0
 170 333 168 338 166 344 c 0
 163 351 159 358 154 364 c 0
 149 370 143 375 136 379 c 0
 131 382 125 384 119 385 c 0
 113 387 106 388 99 388 c 2
 75 388 l 1
321 176 m 0xb3fc
 309 176 298 179 288 183 c 0
 278 187 269 193 262 200 c 0
 255 207 249 217 245 227 c 0
 241 237 239 248 239 260 c 2
 239 267 l 2
 239 281 241 293 245 304 c 0
 249 315 256 324 263 332 c 0
 270 340 279 346 288 350 c 0
 297 354 307 356 317 356 c 0
 329 356 341 353 350 349 c 0
 359 345 367 339 373 331 c 0
 379 323 384 314 387 304 c 0
 390 294 392 283 392 271 c 2
 392 258 l 1
 268 258 l 1
 268 256 l 2
 269 248 270 240 273 234 c 0
 276 228 279 222 284 217 c 0
 289 212 294 208 301 205 c 0
 308 202 315 201 323 201 c 0
 334 201 343 203 351 207 c 0
 359 211 366 217 371 224 c 1
 390 210 l 1
 384 201 376 193 364 186 c 0
 353 179 338 176 321 176 c 0xb3fc
317 331 m 0
 311 331 306 330 301 328 c 0
 296 326 290 323 286 319 c 0
 282 315 278 309 275 303 c 0
 272 297 270 290 269 282 c 1
 362 282 l 1
 362 283 l 2
 362 288 361 294 359 300 c 0
 357 306 355 312 351 316 c 0
 347 320 343 324 337 327 c 0
 332 330 325 331 317 331 c 0
446 425 m 1x77fc
 535 425 l 1
 535 205 l 1
 591 205 l 1
 591 180 l 1
 446 180 l 1
 446 205 l 1
 505 205 l 1
 505 399 l 1
 446 399 l 1
 446 425 l 1x77fc
708 394 m 1
 708 353 l 1
 774 353 l 1
 774 330 l 1
 708 330 l 1
 708 236 l 2
 708 229 709 223 711 219 c 0
 713 215 715 212 718 209 c 0
 721 206 724 204 728 203 c 0
 732 202 736 201 740 201 c 0
 743 201 747 202 750 202 c 0
 753 202 757 202 760 203 c 0
 763 204 766 204 769 205 c 0
 772 206 774 207 776 207 c 1
 780 186 l 2
 778 185 776 183 772 182 c 0
 768 181 764 180 760 179 c 0
 756 178 752 177 747 177 c 0
 742 177 738 176 733 176 c 0xb3fc
 725 176 718 178 711 180 c 0
 704 182 699 185 694 190 c 0
 689 195 686 201 683 208 c 0
 680 216 678 225 678 236 c 2
 678 330 l 1
 633 330 l 1
 633 353 l 1
 678 353 l 1
 678 394 l 1
 708 394 l 1
948 180 m 2x73fc
 947 182 946 185 945 188 c 0
 944 191 944 194 944 198 c 1
 941 195 938 193 934 190 c 0
 930 187 926 185 922 183 c 0
 918 181 913 179 908 178 c 0
 903 177 898 176 892 176 c 0xb3fc
 883 176 874 177 867 180 c 0
 860 183 853 186 848 191 c 0
 843 195 839 201 836 207 c 0
 833 213 832 221 832 228 c 0
 832 237 833 245 837 252 c 0
 841 259 847 265 854 270 c 0
 861 275 868 279 878 281 c 0
 888 283 899 284 911 284 c 2
 943 284 l 1
 943 298 l 2
 943 303 943 308 941 312 c 0
 939 316 936 320 932 323 c 0
 928 326 925 328 920 330 c 0
 915 332 909 332 903 332 c 0
 897 332 892 331 887 330 c 0
 882 329 878 326 875 324 c 0
 872 322 870 318 868 315 c 0
 866 312 865 309 865 305 c 1
 835 305 l 1
 835 311 837 317 840 323 c 0
 843 329 848 335 854 340 c 0
 860 345 867 348 875 351 c 0
 884 354 893 356 904 356 c 0
 914 356 924 354 932 352 c 0
 940 350 947 346 953 341 c 0
 959 336 964 330 968 323 c 0
 972 316 973 308 973 298 c 2
 973 217 l 2
 973 211 974 205 975 199 c 0
 976 193 977 187 979 182 c 2
 979 180 l 1
 948 180 l 2x73fc
896 202 m 0
 902 202 907 203 912 204 c 0
 917 205 922 208 926 210 c 0
 930 212 933 216 936 219 c 0
 939 222 941 225 943 228 c 2
 943 263 l 1
 916 263 l 2
 906 263 897 263 889 261 c 0
 881 259 875 257 871 253 c 0
 868 250 866 248 864 244 c 0
 862 240 861 236 861 232 c 0
 861 228 862 224 863 220 c 0
 864 216 867 214 870 211 c 0
 873 208 877 205 881 204 c 0
 885 203 890 202 896 202 c 0
EndSplineSet
Validated: 1
EndChar

StartChar: G
Encoding: 71 71 9
Width: 834
Flags: HW
HStem: 180 26<88 169 280 351 446 505 535 591> 271 25<123 170> 330 23<284 347 635 682 712 779> 390 25<88 154> 399 26<446 505 716 753 754 788> 407 25<721 789>
VStem: 36 30<226 369> 123 75<271 295> 169 29<207 271 344 377> 237 30<216 315> 364 30<216 315> 505 30<205 399> 682 30<180 330 353 400>
LayerCount: 2
Fore
SplineSet
199 210 m 2xf378
 195 206 191 202 187 198 c 0
 183 195 179 192 175 189 c 0
 168 185 160 182 151 180 c 0
 142 178 132 176 123 176 c 0
 113 176 105 178 97 181 c 0
 89 184 81 188 75 193 c 0
 69 198 64 203 59 210 c 0
 54 217 50 224 47 232 c 0
 44 240 41 247 39 256 c 0
 37 265 36 273 36 282 c 2
 36 309 l 2
 36 318 38 326 39 335 c 0
 40 344 42 352 45 360 c 0
 48 368 53 375 57 382 c 0
 61 389 67 395 73 400 c 0
 79 405 86 408 94 411 c 0
 102 414 110 415 120 415 c 0
 131 415 141 413 150 410 c 0
 159 407 167 402 174 396 c 0
 181 390 187 382 191 373 c 0
 195 364 198 355 199 344 c 1
 169 344 l 1xf2f8
 168 351 166 357 164 363 c 0
 162 369 158 373 154 377 c 0
 150 381 146 385 140 387 c 0
 134 389 128 390 121 390 c 0
 114 390 107 389 102 387 c 0
 97 385 92 381 88 377 c 0
 84 373 81 368 78 363 c 0
 75 358 73 352 71 346 c 0
 69 340 68 334 67 328 c 0
 66 322 66 316 66 310 c 2
 66 282 l 2
 66 276 67 270 68 264 c 0
 69 258 70 252 72 246 c 0
 74 240 76 234 79 229 c 0
 82 224 86 219 90 215 c 0
 94 211 99 207 105 205 c 0
 111 203 117 201 124 201 c 0
 128 201 132 202 136 202 c 0
 140 202 145 204 149 205 c 0
 153 206 157 208 161 210 c 0
 165 212 168 214 170 218 c 2
 170 271 l 1
 123 271 l 1
 123 295 l 1
 198 295 l 1
 199 210 l 2xf378
237 268 m 2
 237 280 238 291 242 302 c 0
 246 313 251 322 258 330 c 0
 265 338 272 345 282 349 c 0
 292 354 303 356 315 356 c 0
 327 356 338 354 348 349 c 0
 358 345 366 338 373 330 c 0
 380 322 384 313 388 302 c 0
 392 291 394 280 394 268 c 2
 394 264 l 2
 394 252 392 240 388 229 c 0
 384 218 380 210 373 202 c 0
 366 194 358 187 348 183 c 0
 338 179 327 176 315 176 c 0
 303 176 292 179 282 183 c 0
 272 187 265 194 258 202 c 0
 251 210 246 218 242 229 c 0
 238 240 237 252 237 264 c 2
 237 268 l 2
266 264 m 2
 266 255 267 248 269 240 c 0
 271 232 274 225 278 219 c 0
 282 213 288 208 294 205 c 0
 300 202 307 200 315 200 c 0
 323 200 331 202 337 205 c 0
 343 208 348 213 352 219 c 0
 356 225 359 232 361 240 c 0
 363 248 364 255 364 264 c 2
 364 268 l 2
 364 276 363 284 361 292 c 0
 359 300 356 306 352 312 c 0
 348 318 342 323 336 326 c 0
 330 330 323 331 315 331 c 0
 307 331 300 330 294 326 c 0
 288 323 282 318 278 312 c 0
 274 306 271 300 269 292 c 0
 267 284 266 276 266 268 c 2
 266 264 l 2
446 425 m 1xea78
 535 425 l 1
 535 205 l 1
 591 205 l 1
 591 180 l 1
 446 180 l 1
 446 205 l 1
 505 205 l 1
 505 399 l 1
 446 399 l 1
 446 425 l 1xea78
682 180 m 1
 682 330 l 1
 635 330 l 1
 635 353 l 1
 682 353 l 1
 682 365 l 2
 682 376 684 386 687 394 c 0
 690 402 695 409 701 415 c 0
 707 421 714 425 722 428 c 0
 730 431 740 432 750 432 c 0
 754 432 759 432 763 431 c 0
 767 431 771 430 775 429 c 0
 778 428 780 429 783 428 c 0
 786 427 788 427 791 426 c 2
 788 401 l 1
 784 402 778 404 772 405 c 0
 766 406 761 407 754 407 c 0xe678
 747 407 741 406 736 404 c 0
 731 402 726 400 723 397 c 0
 719 394 717 389 715 384 c 0
 713 379 712 372 712 365 c 2
 712 353 l 1
 779 353 l 1
 779 330 l 1
 712 330 l 1
 712 180 l 1
 682 180 l 1
EndSplineSet
Validated: 1
EndChar

StartChar: H
Encoding: 72 72 10
Width: 1024
Flags: HW
HStem: 180 26<280 351 515 581 677 759 839 898 928 984> 258 24<662 755> 287 25<71 166> 330 23<284 347 436 482 511 577 679 742> 392 20G<43 71 166 194> 399 26<839 898>
VStem: 43 28<180 287 312 412> 166 28<180 287 312 412> 237 30<216 315> 364 30<216 315> 482 30<205 330 353 394> 632 30<219 258> 755 30<282 320> 898 30<205 399>
LayerCount: 2
Fore
SplineSet
194 180 m 1xfbfc
 166 180 l 1
 166 287 l 1
 71 287 l 1
 71 180 l 1
 43 180 l 1
 43 412 l 1
 71 412 l 1
 71 312 l 1
 166 312 l 1
 166 412 l 1
 194 412 l 1
 194 180 l 1xfbfc
237 268 m 2
 237 280 238 291 242 302 c 0
 246 313 251 322 258 330 c 0
 265 338 272 345 282 349 c 0
 292 354 303 356 315 356 c 0
 327 356 338 354 348 349 c 0
 358 345 366 338 373 330 c 0
 380 322 384 313 388 302 c 0
 392 291 394 280 394 268 c 2
 394 264 l 2
 394 252 392 240 388 229 c 0
 384 218 380 210 373 202 c 0
 366 194 358 187 348 183 c 0
 338 179 327 176 315 176 c 0
 303 176 292 179 282 183 c 0
 272 187 265 194 258 202 c 0
 251 210 246 218 242 229 c 0
 238 240 237 252 237 264 c 2
 237 268 l 2
266 264 m 2
 266 255 267 248 269 240 c 0
 271 232 274 225 278 219 c 0
 282 213 288 208 294 205 c 0
 300 202 307 200 315 200 c 0
 323 200 331 202 337 205 c 0
 343 208 348 213 352 219 c 0
 356 225 359 232 361 240 c 0
 363 248 364 255 364 264 c 2
 364 268 l 2
 364 276 363 284 361 292 c 0
 359 300 356 306 352 312 c 0
 348 318 342 323 336 326 c 0
 330 330 323 331 315 331 c 0
 307 331 300 330 294 326 c 0
 288 323 282 318 278 312 c 0
 274 306 271 300 269 292 c 0
 267 284 266 276 266 268 c 2
 266 264 l 2
511 394 m 1
 511 353 l 1
 577 353 l 1
 577 330 l 1
 511 330 l 1
 511 236 l 2
 511 229 512 223 514 219 c 0
 516 215 518 212 521 209 c 0
 524 206 527 204 531 203 c 0
 535 202 540 201 544 201 c 0
 547 201 551 202 554 202 c 0
 557 202 561 202 564 203 c 0
 567 204 570 204 573 205 c 0
 576 206 578 207 580 207 c 1
 584 186 l 2
 582 185 579 183 575 182 c 0
 571 181 567 180 563 179 c 0
 559 178 555 177 550 177 c 0
 545 177 541 176 536 176 c 0
 528 176 522 178 515 180 c 0
 508 182 503 185 498 190 c 0
 493 195 489 201 486 208 c 0
 483 216 482 225 482 236 c 2
 482 330 l 1
 436 330 l 1
 436 353 l 1
 482 353 l 1
 482 394 l 1
 511 394 l 1
714 176 m 0
 702 176 691 179 681 183 c 0
 671 187 662 193 655 200 c 0
 648 207 642 217 638 227 c 0
 634 237 632 248 632 260 c 2
 632 267 l 2
 632 281 635 293 639 304 c 0
 643 315 649 324 656 332 c 0
 663 340 673 346 682 350 c 0
 691 354 701 356 711 356 c 0
 723 356 734 353 743 349 c 0
 752 345 761 339 767 331 c 0
 773 323 777 314 780 304 c 0
 783 294 785 283 785 271 c 2
 785 258 l 1
 661 258 l 1
 661 256 l 2
 662 248 663 240 666 234 c 0
 669 228 672 222 677 217 c 0
 682 212 687 208 694 205 c 0
 701 202 708 201 716 201 c 0
 727 201 736 203 744 207 c 0
 752 211 760 217 765 224 c 1
 783 210 l 1
 777 201 769 193 757 186 c 0
 746 179 731 176 714 176 c 0
711 331 m 0
 705 331 699 330 694 328 c 0
 689 326 683 323 679 319 c 0
 675 315 671 309 668 303 c 0
 665 297 663 290 662 282 c 1
 755 282 l 1
 755 283 l 2
 755 288 754 294 752 300 c 0
 750 306 748 312 744 316 c 0
 740 320 736 324 730 327 c 0
 725 330 719 331 711 331 c 0
839 425 m 1xf7fc
 928 425 l 1
 928 205 l 1
 984 205 l 1
 984 180 l 1
 839 180 l 1
 839 205 l 1
 898 205 l 1
 898 399 l 1
 839 399 l 1
 839 425 l 1xf7fc
EndSplineSet
Validated: 1
EndChar

StartChar: I
Encoding: 73 73 11
Width: 1024
Flags: HW
HStem: 180 26<48 103 133 189 478 547 643 702 731 788 864 936> 263 21<872 943> 331 25<289 350 482 543 643 702 870 937> 387 26<48 103 133 189 702 729> 405 20G<552 582>
VStem: 103 30<205 387> 245 30<180 321 327 353> 358 30<180 325> 436 30<216 316> 552 30<180 198 209 323 335 425> 702 30<205 327 386 415> 832 30<206 256 305 324> 943 30<180 182 212 263 284 325>
LayerCount: 2
Fore
SplineSet
48 412 m 1xf7f8
 189 412 l 1
 189 387 l 1
 133 387 l 1
 133 205 l 1
 189 205 l 1
 189 180 l 1
 48 180 l 1
 48 205 l 1
 103 205 l 1
 103 387 l 1
 48 387 l 1
 48 412 l 1xf7f8
245 180 m 1
 245 353 l 1
 271 353 l 1
 274 327 l 1
 277 331 279 334 282 337 c 0
 285 340 289 343 292 345 c 0
 297 348 302 351 308 353 c 0
 314 355 320 356 327 356 c 0
 336 356 345 355 352 352 c 0
 359 349 366 345 371 340 c 0
 376 335 380 327 383 319 c 0
 386 311 387 301 387 289 c 2
 387 180 l 1
 358 180 l 1
 358 289 l 2
 358 297 357 303 355 308 c 0
 353 313 351 318 348 321 c 0
 345 324 340 327 335 328 c 0
 330 329 325 331 319 331 c 0
 314 331 308 330 303 328 c 0
 298 327 294 325 290 322 c 0
 287 320 284 317 281 314 c 0
 278 311 276 308 274 304 c 2
 274 180 l 1
 245 180 l 1
436 267 m 2
 436 280 438 292 441 303 c 0
 444 314 449 323 455 331 c 0
 461 339 467 345 476 349 c 0
 485 353 494 356 505 356 c 0
 515 356 524 354 532 350 c 0
 540 347 546 342 552 335 c 1
 552 425 l 1
 582 425 l 1xeff8
 582 180 l 1
 555 180 l 1
 553 198 l 1
 547 191 541 186 533 182 c 0
 525 178 516 176 505 176 c 0
 495 176 485 179 476 183 c 0
 468 187 461 194 455 202 c 0
 449 210 444 218 441 229 c 0
 438 240 436 252 436 264 c 2
 436 267 l 2
465 264 m 2
 465 256 466 248 468 240 c 0
 470 232 473 226 477 220 c 0
 481 214 485 209 491 206 c 0
 497 203 504 201 512 201 c 0
 522 201 531 204 537 208 c 0
 543 212 548 218 552 226 c 2
 552 306 l 2
 548 313 543 320 537 324 c 0
 531 329 522 331 512 331 c 0
 504 331 497 329 491 326 c 0
 485 323 481 318 477 312 c 0
 473 306 470 299 468 291 c 0
 466 283 465 275 465 267 c 2
 465 264 l 2
643 353 m 1
 731 353 l 1
 731 205 l 1
 788 205 l 1
 788 180 l 1
 643 180 l 1
 643 205 l 1
 702 205 l 1
 702 327 l 1
 643 327 l 1
 643 353 l 1
698 398 m 0
 698 401 698 403 699 405 c 0
 700 407 701 409 703 411 c 0
 704 412 706 413 708 414 c 0
 710 415 712 415 715 415 c 0
 718 415 721 415 723 414 c 0
 725 413 727 412 728 411 c 0
 730 410 731 407 732 405 c 0
 733 403 733 401 733 398 c 0
 733 393 732 389 729 386 c 0
 726 383 721 381 715 381 c 0
 709 381 705 383 702 386 c 0
 699 389 698 393 698 398 c 0
948 180 m 2
 947 182 946 185 945 188 c 0
 944 191 944 194 944 198 c 1
 941 195 938 193 934 190 c 0
 930 187 926 185 922 183 c 0
 918 181 913 179 908 178 c 0
 903 177 898 176 892 176 c 0
 883 176 874 177 867 180 c 0
 860 183 853 186 848 191 c 0
 843 195 839 201 836 207 c 0
 833 213 832 221 832 228 c 0
 832 237 833 245 837 252 c 0
 841 259 847 265 854 270 c 0
 861 275 868 279 878 281 c 0
 888 283 899 284 911 284 c 2
 943 284 l 1
 943 298 l 2
 943 303 943 308 941 312 c 0
 939 316 936 320 932 323 c 0
 928 326 925 328 920 330 c 0
 915 332 909 332 903 332 c 0
 897 332 892 331 887 330 c 0
 882 329 878 326 875 324 c 0
 872 322 870 318 868 315 c 0
 866 312 865 309 865 305 c 1
 835 305 l 1
 835 311 837 317 840 323 c 0
 843 329 848 335 854 340 c 0
 860 345 867 348 875 351 c 0
 884 354 893 356 904 356 c 0
 914 356 924 354 932 352 c 0
 940 350 947 346 953 341 c 0
 959 336 964 330 968 323 c 0
 972 316 973 308 973 298 c 2
 973 217 l 2
 973 211 974 205 975 199 c 0
 976 193 977 187 979 182 c 2
 979 180 l 1
 948 180 l 2
896 202 m 0
 902 202 907 203 912 204 c 0
 917 205 922 208 926 210 c 0
 930 212 933 216 936 219 c 0
 939 222 941 225 943 228 c 2
 943 263 l 1
 916 263 l 2
 906 263 897 263 889 261 c 0
 881 259 875 257 871 253 c 0
 868 250 866 248 864 244 c 0
 862 240 861 236 861 232 c 0
 861 228 862 224 863 220 c 0
 864 216 867 214 870 211 c 0
 873 208 877 205 881 204 c 0
 885 203 890 202 896 202 c 0
EndSplineSet
Validated: 1
EndChar

StartChar: J
Encoding: 74 74 12
Width: 1212
Flags: HW
HStem: 180 26<75 145 279 346 444 503 532 589 640 699 729 785 871 953 1102 1168> 258 24<856 949> 330 23<640 699 873 936 1024 1069 1099 1164> 381 34<700 726> 400 26<444 503>
VStem: 34 30<213 247> 156 30<214 413> 244 30<207 353> 354 30<180 204 210 353> 503 30<206 400> 695 35<206 327 386 416> 826 30<219 258> 949 30<282 320> 1069 30<206 330 353 395>
LayerCount: 2
Fore
SplineSet
156 413 m 1xe7fc
 186 413 l 1
 186 251 l 2
 186 240 184 230 180 221 c 0
 176 212 171 204 164 198 c 0
 157 191 149 186 140 182 c 0
 131 178 121 177 110 177 c 0
 99 177 90 179 81 182 c 0
 72 185 64 190 58 196 c 0
 51 202 46 209 42 218 c 0
 38 227 35 236 34 247 c 1
 64 247 l 1
 64 241 66 235 68 229 c 0
 70 223 74 219 78 215 c 0
 82 211 87 207 92 205 c 0
 98 203 103 202 110 202 c 0
 117 202 123 203 129 206 c 0
 135 209 139 212 143 216 c 0
 147 220 150 226 152 232 c 0
 154 238 156 244 156 251 c 2
 156 413 l 1xe7fc
357 180 m 1
 355 204 l 1
 349 195 342 189 333 184 c 0
 324 179 315 177 304 177 c 0
 295 177 286 178 279 181 c 0
 272 184 265 188 260 194 c 0
 255 200 251 208 248 217 c 0
 245 226 244 237 244 250 c 2
 244 353 l 1
 273 353 l 1
 273 250 l 2
 273 241 275 232 276 226 c 0
 277 220 279 216 282 212 c 0
 285 208 289 205 293 204 c 0
 297 203 302 202 308 202 c 0
 315 202 321 203 326 204 c 0
 331 206 336 208 340 211 c 0
 343 213 346 216 348 219 c 0
 350 222 352 225 354 229 c 2
 354 353 l 1
 384 353 l 1
 384 180 l 1
 357 180 l 1
444 425 m 1xeffc
 532 425 l 1
 532 206 l 1
 589 206 l 1
 589 180 l 1
 444 180 l 1
 444 206 l 1
 503 206 l 1
 503 400 l 1
 444 400 l 1
 444 425 l 1xeffc
640 353 m 1
 729 353 l 1
 729 206 l 1
 785 206 l 1
 785 180 l 1
 640 180 l 1
 640 206 l 1
 699 206 l 1
 699 327 l 1
 640 327 l 1
 640 353 l 1
695 398 m 0
 695 401 695 403 696 405 c 0
 697 407 698 409 700 411 c 0
 701 412 704 413 706 414 c 0
 708 415 710 416 713 416 c 0
 716 416 718 415 720 414 c 0
 722 413 725 412 726 411 c 0
 728 410 729 408 730 406 c 0
 731 404 731 401 731 398 c 0
 731 393 729 389 726 386 c 0
 723 383 719 381 713 381 c 0xf7fc
 707 381 703 383 700 386 c 0
 697 389 695 393 695 398 c 0
909 177 m 0
 897 177 885 179 875 183 c 0
 865 187 856 193 849 200 c 0
 842 207 836 217 832 227 c 0
 828 237 826 248 826 260 c 2
 826 267 l 2
 826 281 829 293 833 304 c 0
 837 315 844 325 851 333 c 0
 858 341 867 346 876 350 c 0
 885 354 895 356 905 356 c 0
 917 356 928 353 937 349 c 0
 946 345 955 340 961 332 c 0
 967 324 971 315 974 305 c 0
 977 295 979 283 979 271 c 2
 979 258 l 1
 856 258 l 1
 856 257 l 2
 857 249 857 241 860 235 c 0
 863 229 866 223 871 218 c 0
 876 213 881 208 888 205 c 0
 895 202 902 201 910 201 c 0
 921 201 930 203 938 207 c 0
 946 211 954 217 959 224 c 1
 977 210 l 1
 971 201 962 194 951 187 c 0
 940 180 926 177 909 177 c 0
905 332 m 0
 899 332 893 330 888 328 c 0
 883 326 877 323 873 319 c 0
 869 315 866 309 863 303 c 0
 860 297 857 290 856 282 c 1
 949 282 l 1
 949 284 l 2
 949 289 948 295 946 301 c 0
 944 307 942 313 938 317 c 0
 934 321 930 325 924 328 c 0
 919 331 913 332 905 332 c 0
1099 395 m 1
 1099 353 l 1
 1164 353 l 1
 1164 330 l 1
 1099 330 l 1
 1099 236 l 2
 1099 229 1099 223 1101 219 c 0
 1103 215 1105 212 1108 209 c 0
 1111 206 1114 205 1118 204 c 0
 1122 203 1127 202 1131 202 c 0
 1134 202 1138 202 1141 202 c 0
 1144 202 1148 203 1151 204 c 0
 1154 205 1157 204 1160 205 c 0
 1163 206 1165 207 1167 207 c 1
 1171 186 l 2
 1169 185 1166 183 1162 182 c 0
 1158 181 1154 180 1150 179 c 0
 1146 178 1142 177 1137 177 c 0
 1132 177 1128 177 1123 177 c 0
 1115 177 1109 178 1102 180 c 0
 1095 182 1090 186 1085 191 c 0
 1080 196 1076 202 1073 209 c 0
 1070 217 1069 225 1069 236 c 2
 1069 330 l 1
 1024 330 l 1
 1024 353 l 1
 1069 353 l 1
 1069 395 l 1
 1099 395 l 1
EndSplineSet
Validated: 1
EndChar

StartChar: i
Encoding: 105 105 13
Width: 1024
Flags: HW
HStem: 180 26<48 103 133 189 478 547 643 702 731 788 864 936> 263 21<872 943> 331 25<289 350 482 543 643 702 870 937> 387 26<48 103 133 189 702 729> 405 20G<552 582>
VStem: 103 30<205 387> 245 30<180 321 327 353> 358 30<180 325> 436 30<216 316> 552 30<180 198 209 323 335 425> 702 30<205 327 386 415> 832 30<206 256 305 324> 943 30<180 182 212 263 284 325>
LayerCount: 2
Fore
SplineSet
48 412 m 1xf7f8
 189 412 l 1
 189 387 l 1
 133 387 l 1
 133 205 l 1
 189 205 l 1
 189 180 l 1
 48 180 l 1
 48 205 l 1
 103 205 l 1
 103 387 l 1
 48 387 l 1
 48 412 l 1xf7f8
245 180 m 1
 245 353 l 1
 271 353 l 1
 274 327 l 1
 277 331 279 334 282 337 c 0
 285 340 289 343 292 345 c 0
 297 348 302 351 308 353 c 0
 314 355 320 356 327 356 c 0
 336 356 345 355 352 352 c 0
 359 349 366 345 371 340 c 0
 376 335 380 327 383 319 c 0
 386 311 387 301 387 289 c 2
 387 180 l 1
 358 180 l 1
 358 289 l 2
 358 297 357 303 355 308 c 0
 353 313 351 318 348 321 c 0
 345 324 340 327 335 328 c 0
 330 329 325 331 319 331 c 0
 314 331 308 330 303 328 c 0
 298 327 294 325 290 322 c 0
 287 320 284 317 281 314 c 0
 278 311 276 308 274 304 c 2
 274 180 l 1
 245 180 l 1
436 267 m 2
 436 280 438 292 441 303 c 0
 444 314 449 323 455 331 c 0
 461 339 467 345 476 349 c 0
 485 353 494 356 505 356 c 0
 515 356 524 354 532 350 c 0
 540 347 546 342 552 335 c 1
 552 425 l 1
 582 425 l 1xeff8
 582 180 l 1
 555 180 l 1
 553 198 l 1
 547 191 541 186 533 182 c 0
 525 178 516 176 505 176 c 0
 495 176 485 179 476 183 c 0
 468 187 461 194 455 202 c 0
 449 210 444 218 441 229 c 0
 438 240 436 252 436 264 c 2
 436 267 l 2
465 264 m 2
 465 256 466 248 468 240 c 0
 470 232 473 226 477 220 c 0
 481 214 485 209 491 206 c 0
 497 203 504 201 512 201 c 0
 522 201 531 204 537 208 c 0
 543 212 548 218 552 226 c 2
 552 306 l 2
 548 313 543 320 537 324 c 0
 531 329 522 331 512 331 c 0
 504 331 497 329 491 326 c 0
 485 323 481 318 477 312 c 0
 473 306 470 299 468 291 c 0
 466 283 465 275 465 267 c 2
 465 264 l 2
643 353 m 1
 731 353 l 1
 731 205 l 1
 788 205 l 1
 788 180 l 1
 643 180 l 1
 643 205 l 1
 702 205 l 1
 702 327 l 1
 643 327 l 1
 643 353 l 1
698 398 m 0
 698 401 698 403 699 405 c 0
 700 407 701 409 703 411 c 0
 704 412 706 413 708 414 c 0
 710 415 712 415 715 415 c 0
 718 415 721 415 723 414 c 0
 725 413 727 412 728 411 c 0
 730 410 731 407 732 405 c 0
 733 403 733 401 733 398 c 0
 733 393 732 389 729 386 c 0
 726 383 721 381 715 381 c 0
 709 381 705 383 702 386 c 0
 699 389 698 393 698 398 c 0
948 180 m 2
 947 182 946 185 945 188 c 0
 944 191 944 194 944 198 c 1
 941 195 938 193 934 190 c 0
 930 187 926 185 922 183 c 0
 918 181 913 179 908 178 c 0
 903 177 898 176 892 176 c 0
 883 176 874 177 867 180 c 0
 860 183 853 186 848 191 c 0
 843 195 839 201 836 207 c 0
 833 213 832 221 832 228 c 0
 832 237 833 245 837 252 c 0
 841 259 847 265 854 270 c 0
 861 275 868 279 878 281 c 0
 888 283 899 284 911 284 c 2
 943 284 l 1
 943 298 l 2
 943 303 943 308 941 312 c 0
 939 316 936 320 932 323 c 0
 928 326 925 328 920 330 c 0
 915 332 909 332 903 332 c 0
 897 332 892 331 887 330 c 0
 882 329 878 326 875 324 c 0
 872 322 870 318 868 315 c 0
 866 312 865 309 865 305 c 1
 835 305 l 1
 835 311 837 317 840 323 c 0
 843 329 848 335 854 340 c 0
 860 345 867 348 875 351 c 0
 884 354 893 356 904 356 c 0
 914 356 924 354 932 352 c 0
 940 350 947 346 953 341 c 0
 959 336 964 330 968 323 c 0
 972 316 973 308 973 298 c 2
 973 217 l 2
 973 211 974 205 975 199 c 0
 976 193 977 187 979 182 c 2
 979 180 l 1
 948 180 l 2
896 202 m 0
 902 202 907 203 912 204 c 0
 917 205 922 208 926 210 c 0
 930 212 933 216 936 219 c 0
 939 222 941 225 943 228 c 2
 943 263 l 1
 916 263 l 2
 906 263 897 263 889 261 c 0
 881 259 875 257 871 253 c 0
 868 250 866 248 864 244 c 0
 862 240 861 236 861 232 c 0
 861 228 862 224 863 220 c 0
 864 216 867 214 870 211 c 0
 873 208 877 205 881 204 c 0
 885 203 890 202 896 202 c 0
EndSplineSet
Validated: 1
EndChar

StartChar: K
Encoding: 75 75 14
Width: 827
Flags: HW
HStem: 180 26<250 308 338 394 446 505 535 591 673 744> 327 26<250 308 673 744> 381 34<309 335> 399 26<446 505>
VStem: 48 30<180 258 299 412> 308 30<205 327 386 415> 505 30<205 399> 630 30<216 315> 757 30<216 315>
LayerCount: 2
Fore
SplineSet
104 288 m 1xcf80
 78 258 l 1
 78 180 l 1
 48 180 l 1
 48 412 l 1
 78 412 l 1
 78 299 l 1
 101 327 l 1
 169 412 l 1
 205 412 l 1
 124 310 l 1
 210 180 l 1
 174 180 l 1
 104 288 l 1xcf80
250 353 m 1
 338 353 l 1
 338 205 l 1
 394 205 l 1
 394 180 l 1
 250 180 l 1
 250 205 l 1
 308 205 l 1
 308 327 l 1
 250 327 l 1
 250 353 l 1
305 398 m 0
 305 401 305 403 306 405 c 0
 307 407 307 409 309 411 c 0
 310 412 313 413 315 414 c 0
 317 415 319 415 322 415 c 0
 325 415 328 415 330 414 c 0
 332 413 334 412 335 411 c 0
 337 410 338 407 339 405 c 0
 340 403 340 401 340 398 c 0
 340 393 339 389 336 386 c 0
 333 383 328 381 322 381 c 0xef80
 316 381 312 383 309 386 c 0
 306 389 305 393 305 398 c 0
446 425 m 1xdf80
 535 425 l 1
 535 205 l 1
 591 205 l 1
 591 180 l 1
 446 180 l 1
 446 205 l 1
 505 205 l 1
 505 399 l 1
 446 399 l 1
 446 425 l 1xdf80
630 268 m 2
 630 280 631 291 635 302 c 0
 639 313 644 322 651 330 c 0
 658 338 665 345 675 349 c 0
 685 354 696 356 708 356 c 0
 720 356 731 354 741 349 c 0
 751 345 759 338 766 330 c 0
 773 322 778 313 782 302 c 0
 786 291 787 280 787 268 c 2
 787 264 l 2
 787 252 786 240 782 229 c 0
 778 218 773 210 766 202 c 0
 759 194 751 187 741 183 c 0
 731 179 721 176 709 176 c 0
 697 176 685 179 675 183 c 0
 665 187 658 194 651 202 c 0
 644 210 639 218 635 229 c 0
 631 240 630 252 630 264 c 2
 630 268 l 2
659 264 m 2
 659 255 660 248 662 240 c 0
 664 232 668 225 672 219 c 0
 676 213 681 208 687 205 c 0
 693 202 701 200 709 200 c 0
 717 200 724 202 730 205 c 0
 736 208 741 213 745 219 c 0
 749 225 752 232 754 240 c 0
 756 248 757 255 757 264 c 2
 757 268 l 2
 757 276 756 284 754 292 c 0
 752 300 749 306 745 312 c 0
 741 318 736 323 730 326 c 0
 724 330 716 331 708 331 c 0
 700 331 693 330 687 326 c 0
 681 323 676 318 672 312 c 0
 668 306 664 300 662 292 c 0
 660 284 659 276 659 268 c 2
 659 264 l 2
EndSplineSet
Validated: 1
EndChar

StartChar: L
Encoding: 76 76 15
Width: 827
Flags: HW
HStem: 180 25<82 196 250 308 338 394 668 738> 263 21<675 747> 329 24<250 308 459 497 527 566 673 741> 381 34<309 335>
VStem: 52 30<205 412> 308 30<205 327 386 415> 429 28<180 330 336 353> 498 28<180 330> 567 28<180 330> 635 30<206 256 305 324> 747 30<180 182 212 263 284 325>
LayerCount: 2
Fore
SplineSet
82 205 m 1
 196 205 l 1
 196 180 l 1
 52 180 l 1
 52 412 l 1
 82 412 l 1
 82 205 l 1
250 353 m 1
 338 353 l 1
 338 205 l 1
 394 205 l 1
 394 180 l 1
 250 180 l 1
 250 205 l 1
 308 205 l 1
 308 327 l 1
 250 327 l 1
 250 353 l 1
305 398 m 0
 305 401 305 403 306 405 c 0
 307 407 307 409 309 411 c 0
 310 412 313 413 315 414 c 0
 317 415 319 415 322 415 c 0
 325 415 328 415 330 414 c 0
 332 413 334 412 335 411 c 0
 337 410 338 407 339 405 c 0
 340 403 340 401 340 398 c 0
 340 393 339 389 336 386 c 0
 333 383 328 381 322 381 c 0
 316 381 312 383 309 386 c 0
 306 389 305 393 305 398 c 0
455 353 m 1
 456 336 l 1
 460 342 464 347 470 350 c 0
 476 353 482 356 490 356 c 0
 495 356 499 355 503 354 c 0
 507 353 509 352 512 350 c 0
 514 349 516 346 518 344 c 0
 520 342 521 340 522 337 c 1
 523 339 525 342 527 344 c 0
 529 346 532 348 534 350 c 0
 537 352 540 353 544 354 c 0
 548 355 552 356 556 356 c 0
 562 356 567 355 572 353 c 0
 577 351 581 348 584 345 c 0
 588 341 591 336 593 330 c 0
 595 324 596 317 596 309 c 2
 596 180 l 1
 567 180 l 1
 567 309 l 2
 567 313 567 316 566 319 c 0
 565 322 564 324 562 326 c 0
 560 328 559 328 556 329 c 0
 554 330 550 331 547 331 c 0
 543 331 541 330 538 329 c 0
 535 328 534 327 532 325 c 0
 530 323 529 321 528 319 c 0
 527 317 526 315 526 312 c 0
 526 311 526 312 526 311 c 0
 526 311 526 310 526 309 c 2
 526 180 l 1
 498 180 l 1
 498 309 l 2
 498 313 498 316 497 319 c 0
 496 322 495 324 493 326 c 0
 491 328 489 328 487 329 c 0
 485 330 482 331 479 331 c 0
 475 331 472 330 469 329 c 0
 466 328 465 327 463 326 c 0
 462 325 460 323 459 322 c 0
 458 321 458 319 457 317 c 2
 457 180 l 1
 429 180 l 1
 429 353 l 1
 455 353 l 1
752 180 m 2
 751 182 750 185 749 188 c 0
 748 191 747 194 747 198 c 1
 744 195 741 193 737 190 c 0
 733 187 729 185 725 183 c 0
 721 181 716 179 711 178 c 0
 706 177 701 176 695 176 c 0
 686 176 677 177 670 180 c 0
 663 183 656 186 651 191 c 0
 646 195 642 201 639 207 c 0
 636 213 635 221 635 228 c 0
 635 237 637 245 641 252 c 0
 645 259 650 265 657 270 c 0
 664 275 672 279 682 281 c 0
 692 283 703 284 715 284 c 2
 747 284 l 1
 747 298 l 2
 747 303 746 308 744 312 c 0
 742 316 740 320 736 323 c 0
 732 326 728 328 723 330 c 0
 718 332 712 332 706 332 c 0
 700 332 695 331 690 330 c 0
 685 329 682 326 679 324 c 0
 676 322 673 318 671 315 c 0
 669 312 668 309 668 305 c 1
 639 305 l 1
 639 311 641 317 644 323 c 0
 647 329 651 335 657 340 c 0
 663 345 671 348 679 351 c 0
 688 354 697 356 708 356 c 0
 718 356 727 354 735 352 c 0
 743 350 751 346 757 341 c 0
 763 336 767 330 771 323 c 0
 775 316 776 308 776 298 c 2
 776 217 l 2
 776 211 777 205 778 199 c 0
 779 193 781 187 783 182 c 2
 783 180 l 1
 752 180 l 2
699 202 m 0
 705 202 711 203 716 204 c 0
 721 205 725 208 729 210 c 0
 733 212 737 216 740 219 c 0
 743 222 745 225 747 228 c 2
 747 263 l 1
 719 263 l 2
 709 263 701 263 693 261 c 0
 685 259 679 257 675 253 c 0
 672 250 669 248 667 244 c 0
 665 240 665 236 665 232 c 0
 665 228 666 224 667 220 c 0
 668 216 670 214 673 211 c 0
 676 208 680 205 684 204 c 0
 688 203 693 202 699 202 c 0
EndSplineSet
Validated: 1
EndChar

StartChar: M
Encoding: 77 77 16
Width: 832
Flags: HW
HStem: 180 26<250 308 338 394 677 759> 258 24<662 755> 327 26<250 308 676 745> 381 34<309 335> 405 20G<442 472>
VStem: 44 37<390 412> 44 29<180 366> 168 29<180 370> 308 30<205 327 386 415> 442 30<180 239 275 425> 632 30<219 258> 755 30<282 320>
LayerCount: 2
Fore
SplineSet
81 412 m 1xe5f0
 119 296 l 1
 160 412 l 1
 196 412 l 1
 196 180 l 1
 168 180 l 1
 168 272 l 1
 170 370 l 1
 127 244 l 1
 110 244 l 1
 71 366 l 1
 73 272 l 1
 73 180 l 1
 44 180 l 1xe3f0
 44 412 l 1
 81 412 l 1xe5f0
250 353 m 1
 338 353 l 1
 338 205 l 1
 394 205 l 1
 394 180 l 1
 250 180 l 1
 250 205 l 1
 308 205 l 1
 308 327 l 1
 250 327 l 1
 250 353 l 1
305 398 m 0
 305 401 305 403 306 405 c 0
 307 407 307 409 309 411 c 0
 310 412 313 413 315 414 c 0
 317 415 319 415 322 415 c 0
 325 415 328 415 330 414 c 0
 332 413 334 412 335 411 c 0
 337 410 338 407 339 405 c 0
 340 403 340 401 340 398 c 0
 340 393 339 389 336 386 c 0
 333 383 328 381 322 381 c 0xf1f0
 316 381 312 383 309 386 c 0
 306 389 305 393 305 398 c 0
493 260 m 1
 472 239 l 1
 472 180 l 1
 442 180 l 1
 442 425 l 1
 472 425 l 1xe9f0
 472 275 l 1
 491 296 l 1
 548 353 l 1
 584 353 l 1
 514 280 l 1
 594 180 l 1
 557 180 l 1
 493 260 l 1
714 176 m 0
 702 176 691 179 681 183 c 0
 671 187 662 193 655 200 c 0
 648 207 642 217 638 227 c 0
 634 237 632 248 632 260 c 2
 632 267 l 2
 632 281 635 293 639 304 c 0
 643 315 649 324 656 332 c 0
 663 340 673 346 682 350 c 0
 691 354 701 356 711 356 c 0
 723 356 734 353 743 349 c 0
 752 345 761 339 767 331 c 0
 773 323 777 314 780 304 c 0
 783 294 785 283 785 271 c 2
 785 258 l 1
 661 258 l 1
 661 256 l 2
 662 248 663 240 666 234 c 0
 669 228 672 222 677 217 c 0
 682 212 687 208 694 205 c 0
 701 202 708 201 716 201 c 0
 727 201 736 203 744 207 c 0
 752 211 760 217 765 224 c 1
 783 210 l 1
 777 201 769 193 757 186 c 0
 746 179 731 176 714 176 c 0
711 331 m 0
 705 331 699 330 694 328 c 0
 689 326 683 323 679 319 c 0
 675 315 671 309 668 303 c 0
 665 297 663 290 662 282 c 1
 755 282 l 1
 755 283 l 2
 755 288 754 294 752 300 c 0
 750 306 748 312 744 316 c 0
 740 320 736 324 730 327 c 0
 725 330 719 331 711 331 c 0
EndSplineSet
Validated: 1
EndChar

StartChar: N
Encoding: 78 78 17
Width: 1597
Flags: HW
HStem: 176 24<281 342 675 745 1062 1119 1259 1329> 257 24<655 748 1239 1331> 330 24<281 342 673 733 846 880 912 949 1061 1120 1257 1317 1486 1548> 402 20G<1021 1050>
VStem: 43 30<179 352> 162 30<238 410> 234 29<216 314> 360 29<216 314> 625 29<218 257> 748 29<281 318> 813 28<179 328 334 351> 882 28<179 328> 951 28<179 328> 1021 29<179 199 209 321 332 422> 1136 29<214 316> 1209 29<218 257> 1331 29<281 318> 1434 29<179 312 323 351>
LayerCount: 2
Fore
SplineSet
192 179 m 5
 162 179 l 5
 73 352 l 5
 72 179 l 5
 43 179 l 5
 43 410 l 5
 72 410 l 5
 162 238 l 5
 162 410 l 5
 192 410 l 5
 192 179 l 5
234 267 m 6
 234 279 235 290 239 301 c 4
 243 312 248 321 255 329 c 4
 262 337 269 343 279 347 c 4
 289 352 300 354 312 354 c 4
 324 354 334 352 344 347 c 4
 354 343 362 337 369 329 c 4
 376 321 380 312 384 301 c 4
 388 290 390 279 390 267 c 6
 390 263 l 6
 390 251 388 240 384 229 c 4
 380 218 376 209 369 201 c 4
 362 193 354 187 344 183 c 4
 334 179 324 176 312 176 c 4
 300 176 289 179 279 183 c 4
 269 187 262 193 255 201 c 4
 248 209 243 218 239 229 c 4
 235 240 234 251 234 263 c 6
 234 267 l 6
263 263 m 6
 263 255 264 247 266 239 c 4
 268 231 271 225 275 219 c 4
 279 213 284 208 290 205 c 4
 296 202 304 200 312 200 c 4
 320 200 327 202 333 205 c 4
 339 208 344 213 348 219 c 4
 352 225 355 231 357 239 c 4
 359 247 360 255 360 263 c 6
 360 267 l 6
 360 275 359 282 357 290 c 4
 355 298 352 305 348 311 c 4
 344 317 339 321 333 324 c 4
 327 327 320 330 312 330 c 4
 304 330 296 327 290 324 c 4
 284 321 279 317 275 311 c 4
 271 305 268 298 266 290 c 4
 264 282 263 275 263 267 c 6
 263 263 l 6
495 179 m 5
 425 351 l 5
 455 351 l 5
 504 221 l 5
 506 211 l 5
 509 221 l 5
 557 351 l 5
 587 351 l 5
 517 179 l 5
 495 179 l 5
707 176 m 4
 695 176 684 178 674 182 c 4
 664 186 655 193 648 200 c 4
 641 207 635 216 631 226 c 4
 627 236 625 247 625 259 c 6
 625 266 l 6
 625 280 628 292 632 303 c 4
 636 314 643 322 650 330 c 4
 657 337 665 344 674 348 c 4
 683 352 693 354 703 354 c 4
 715 354 726 351 735 347 c 4
 744 343 753 337 759 330 c 4
 765 322 769 313 772 303 c 4
 775 293 777 282 777 270 c 6
 777 257 l 5
 654 257 l 5
 654 255 l 6
 655 247 656 239 659 233 c 4
 662 227 665 222 670 217 c 4
 675 212 680 208 687 205 c 4
 694 202 701 200 709 200 c 4
 719 200 728 202 736 206 c 4
 744 210 752 216 757 223 c 5
 775 209 l 5
 769 200 760 193 749 186 c 4
 738 179 724 176 707 176 c 4
703 330 m 4
 697 330 691 328 686 326 c 4
 681 324 676 321 672 317 c 4
 668 313 664 308 661 302 c 4
 658 296 656 289 655 281 c 5
 748 281 l 5
 748 282 l 6
 748 287 746 293 744 299 c 4
 742 305 740 311 736 315 c 4
 732 319 728 323 723 326 c 4
 718 329 710 330 703 330 c 4
839 351 m 5
 840 334 l 5
 843 340 848 346 854 349 c 4
 860 352 866 354 874 354 c 4
 879 354 883 353 887 352 c 4
 891 351 893 350 896 348 c 4
 898 347 900 345 902 343 c 4
 904 341 905 338 906 335 c 5
 907 337 909 340 911 342 c 4
 913 344 916 346 918 348 c 4
 921 350 923 351 927 352 c 4
 931 353 935 354 939 354 c 4
 945 354 950 353 955 351 c 4
 960 349 964 346 967 343 c 4
 971 339 974 335 976 329 c 4
 978 323 979 315 979 307 c 6
 979 179 l 5
 951 179 l 5
 951 308 l 6
 951 312 950 314 949 317 c 4
 948 320 948 322 946 324 c 4
 944 326 942 327 939 328 c 4
 937 329 934 329 931 329 c 4
 928 329 925 328 922 327 c 4
 919 326 918 326 916 324 c 4
 914 322 913 320 912 318 c 4
 911 316 910 314 910 311 c 4
 910 310 910 310 910 309 c 4
 910 309 910 309 910 308 c 6
 910 179 l 5
 882 179 l 5
 882 308 l 6
 882 312 882 314 881 317 c 4
 880 320 879 322 877 324 c 4
 875 326 873 327 871 328 c 4
 869 329 866 329 863 329 c 4
 860 329 857 329 854 328 c 4
 851 327 849 325 847 324 c 4
 846 323 844 321 843 320 c 4
 842 319 842 318 841 316 c 6
 841 179 l 5
 813 179 l 5
 813 351 l 5
 839 351 l 5
1166 263 m 6
 1166 256 1165 248 1164 241 c 4
 1163 234 1161 228 1159 222 c 4
 1156 214 1153 207 1148 201 c 4
 1143 195 1138 189 1132 185 c 4
 1127 182 1122 181 1116 179 c 4
 1111 177 1104 176 1098 176 c 4
 1091 176 1084 177 1078 179 c 4
 1072 181 1067 184 1062 187 c 4
 1060 189 1057 190 1055 192 c 4
 1053 194 1051 197 1049 199 c 5
 1048 179 l 5
 1021 179 l 5
 1021 422 l 5
 1050 422 l 5
 1050 332 l 5
 1052 335 1055 338 1058 340 c 4
 1061 343 1065 345 1068 347 c 4
 1072 349 1077 351 1082 352 c 4
 1087 353 1092 354 1098 354 c 4
 1105 354 1112 353 1118 351 c 4
 1124 349 1130 346 1135 342 c 4
 1140 339 1144 335 1148 330 c 4
 1152 325 1154 320 1157 314 c 4
 1160 307 1163 300 1164 292 c 4
 1165 284 1166 275 1166 266 c 6
 1166 263 l 6
1136 266 m 6
 1136 271 1136 277 1135 282 c 4
 1134 287 1133 292 1132 297 c 4
 1130 303 1128 307 1125 312 c 4
 1122 317 1118 320 1114 323 c 4
 1111 325 1107 326 1103 327 c 4
 1099 328 1096 329 1091 329 c 4
 1086 329 1081 328 1077 327 c 4
 1073 326 1069 323 1066 321 c 4
 1063 319 1060 316 1057 313 c 4
 1054 310 1052 306 1050 302 c 6
 1050 228 l 6
 1052 224 1054 220 1057 217 c 4
 1060 214 1063 211 1066 209 c 4
 1069 207 1073 204 1077 203 c 4
 1081 202 1086 201 1091 201 c 4
 1096 201 1100 202 1104 203 c 4
 1108 204 1112 206 1115 208 c 4
 1119 211 1123 214 1126 219 c 4
 1129 224 1131 229 1133 235 c 4
 1134 239 1135 243 1136 248 c 4
 1137 253 1136 258 1136 263 c 6
 1136 266 l 6
1291 176 m 4
 1279 176 1268 178 1258 182 c 4
 1248 186 1239 193 1232 200 c 4
 1225 207 1219 216 1215 226 c 4
 1211 236 1209 247 1209 259 c 6
 1209 266 l 6
 1209 280 1212 292 1216 303 c 4
 1220 314 1226 322 1233 330 c 4
 1240 337 1249 344 1258 348 c 4
 1267 352 1277 354 1287 354 c 4
 1299 354 1310 351 1319 347 c 4
 1328 343 1337 337 1343 330 c 4
 1349 322 1353 313 1356 303 c 4
 1359 293 1361 282 1361 270 c 6
 1361 257 l 5
 1238 257 l 5
 1238 255 l 6
 1239 247 1240 239 1243 233 c 4
 1246 227 1249 222 1254 217 c 4
 1259 212 1264 208 1271 205 c 4
 1278 202 1285 200 1293 200 c 4
 1303 200 1312 202 1320 206 c 4
 1328 210 1336 216 1341 223 c 5
 1359 209 l 5
 1353 200 1344 193 1333 186 c 4
 1322 179 1308 176 1291 176 c 4
1287 330 m 4
 1281 330 1275 328 1270 326 c 4
 1265 324 1260 321 1256 317 c 4
 1252 313 1248 308 1245 302 c 4
 1242 296 1240 289 1239 281 c 5
 1331 281 l 5
 1331 282 l 6
 1331 287 1330 293 1328 299 c 4
 1326 305 1324 311 1320 315 c 4
 1316 319 1311 323 1306 326 c 4
 1301 329 1294 330 1287 330 c 4
1522 354 m 4
 1527 354 1533 354 1539 353 c 4
 1545 352 1549 351 1552 350 c 6
 1548 321 l 5
 1542 322 1537 323 1532 324 c 4
 1527 325 1522 325 1516 325 c 4
 1509 325 1502 324 1496 322 c 4
 1490 320 1485 317 1481 314 c 4
 1477 311 1474 307 1471 303 c 4
 1468 299 1466 294 1464 289 c 6
 1464 179 l 5
 1434 179 l 5
 1434 351 l 5
 1462 351 l 5
 1464 328 l 5
 1464 323 l 5
 1471 332 1479 341 1489 346 c 4
 1499 351 1510 354 1522 354 c 4
EndSplineSet
Validated: 1
EndChar

StartChar: m
Encoding: 109 109 18
Width: 832
Flags: HW
HStem: 180 26<250 308 338 394 677 759> 258 24<662 755> 327 26<250 308 676 745> 381 34<309 335> 405 20G<442 472>
VStem: 44 37<390 412> 44 29<180 366> 168 29<180 370> 308 30<205 327 386 415> 442 30<180 239 275 425> 632 30<219 258> 755 30<282 320>
LayerCount: 2
Fore
SplineSet
81 412 m 1xe5f0
 119 296 l 1
 160 412 l 1
 196 412 l 1
 196 180 l 1
 168 180 l 1
 168 272 l 1
 170 370 l 1
 127 244 l 1
 110 244 l 1
 71 366 l 1
 73 272 l 1
 73 180 l 1
 44 180 l 1xe3f0
 44 412 l 1
 81 412 l 1xe5f0
250 353 m 1
 338 353 l 1
 338 205 l 1
 394 205 l 1
 394 180 l 1
 250 180 l 1
 250 205 l 1
 308 205 l 1
 308 327 l 1
 250 327 l 1
 250 353 l 1
305 398 m 0
 305 401 305 403 306 405 c 0
 307 407 307 409 309 411 c 0
 310 412 313 413 315 414 c 0
 317 415 319 415 322 415 c 0
 325 415 328 415 330 414 c 0
 332 413 334 412 335 411 c 0
 337 410 338 407 339 405 c 0
 340 403 340 401 340 398 c 0
 340 393 339 389 336 386 c 0
 333 383 328 381 322 381 c 0xf1f0
 316 381 312 383 309 386 c 0
 306 389 305 393 305 398 c 0
493 260 m 1
 472 239 l 1
 472 180 l 1
 442 180 l 1
 442 425 l 1
 472 425 l 1xe9f0
 472 275 l 1
 491 296 l 1
 548 353 l 1
 584 353 l 1
 514 280 l 1
 594 180 l 1
 557 180 l 1
 493 260 l 1
714 176 m 0
 702 176 691 179 681 183 c 0
 671 187 662 193 655 200 c 0
 648 207 642 217 638 227 c 0
 634 237 632 248 632 260 c 2
 632 267 l 2
 632 281 635 293 639 304 c 0
 643 315 649 324 656 332 c 0
 663 340 673 346 682 350 c 0
 691 354 701 356 711 356 c 0
 723 356 734 353 743 349 c 0
 752 345 761 339 767 331 c 0
 773 323 777 314 780 304 c 0
 783 294 785 283 785 271 c 2
 785 258 l 1
 661 258 l 1
 661 256 l 2
 662 248 663 240 666 234 c 0
 669 228 672 222 677 217 c 0
 682 212 687 208 694 205 c 0
 701 202 708 201 716 201 c 0
 727 201 736 203 744 207 c 0
 752 211 760 217 765 224 c 1
 783 210 l 1
 777 201 769 193 757 186 c 0
 746 179 731 176 714 176 c 0
711 331 m 0
 705 331 699 330 694 328 c 0
 689 326 683 323 679 319 c 0
 675 315 671 309 668 303 c 0
 665 297 663 290 662 282 c 1
 755 282 l 1
 755 283 l 2
 755 288 754 294 752 300 c 0
 750 306 748 312 744 316 c 0
 740 320 736 324 730 327 c 0
 725 330 719 331 711 331 c 0
EndSplineSet
Validated: 1
EndChar

StartChar: n
Encoding: 110 110 19
Width: 1597
Flags: HW
HStem: 176 24<281 342 675 745 1062 1119 1259 1329> 257 24<655 748 1239 1331> 330 24<281 342 673 733 846 880 912 949 1061 1120 1257 1317 1486 1548> 402 20G<1021 1050>
VStem: 43 30<179 352> 162 30<238 410> 234 29<216 314> 360 29<216 314> 625 29<218 257> 748 29<281 318> 813 28<179 328 334 351> 882 28<179 328> 951 28<179 328> 1021 29<179 199 209 321 332 422> 1136 29<214 316> 1209 29<218 257> 1331 29<281 318> 1434 29<179 312 323 351>
LayerCount: 2
Fore
SplineSet
192 179 m 5
 162 179 l 5
 73 352 l 5
 72 179 l 5
 43 179 l 5
 43 410 l 5
 72 410 l 5
 162 238 l 5
 162 410 l 5
 192 410 l 5
 192 179 l 5
234 267 m 6
 234 279 235 290 239 301 c 4
 243 312 248 321 255 329 c 4
 262 337 269 343 279 347 c 4
 289 352 300 354 312 354 c 4
 324 354 334 352 344 347 c 4
 354 343 362 337 369 329 c 4
 376 321 380 312 384 301 c 4
 388 290 390 279 390 267 c 6
 390 263 l 6
 390 251 388 240 384 229 c 4
 380 218 376 209 369 201 c 4
 362 193 354 187 344 183 c 4
 334 179 324 176 312 176 c 4
 300 176 289 179 279 183 c 4
 269 187 262 193 255 201 c 4
 248 209 243 218 239 229 c 4
 235 240 234 251 234 263 c 6
 234 267 l 6
263 263 m 6
 263 255 264 247 266 239 c 4
 268 231 271 225 275 219 c 4
 279 213 284 208 290 205 c 4
 296 202 304 200 312 200 c 4
 320 200 327 202 333 205 c 4
 339 208 344 213 348 219 c 4
 352 225 355 231 357 239 c 4
 359 247 360 255 360 263 c 6
 360 267 l 6
 360 275 359 282 357 290 c 4
 355 298 352 305 348 311 c 4
 344 317 339 321 333 324 c 4
 327 327 320 330 312 330 c 4
 304 330 296 327 290 324 c 4
 284 321 279 317 275 311 c 4
 271 305 268 298 266 290 c 4
 264 282 263 275 263 267 c 6
 263 263 l 6
495 179 m 5
 425 351 l 5
 455 351 l 5
 504 221 l 5
 506 211 l 5
 509 221 l 5
 557 351 l 5
 587 351 l 5
 517 179 l 5
 495 179 l 5
707 176 m 4
 695 176 684 178 674 182 c 4
 664 186 655 193 648 200 c 4
 641 207 635 216 631 226 c 4
 627 236 625 247 625 259 c 6
 625 266 l 6
 625 280 628 292 632 303 c 4
 636 314 643 322 650 330 c 4
 657 337 665 344 674 348 c 4
 683 352 693 354 703 354 c 4
 715 354 726 351 735 347 c 4
 744 343 753 337 759 330 c 4
 765 322 769 313 772 303 c 4
 775 293 777 282 777 270 c 6
 777 257 l 5
 654 257 l 5
 654 255 l 6
 655 247 656 239 659 233 c 4
 662 227 665 222 670 217 c 4
 675 212 680 208 687 205 c 4
 694 202 701 200 709 200 c 4
 719 200 728 202 736 206 c 4
 744 210 752 216 757 223 c 5
 775 209 l 5
 769 200 760 193 749 186 c 4
 738 179 724 176 707 176 c 4
703 330 m 4
 697 330 691 328 686 326 c 4
 681 324 676 321 672 317 c 4
 668 313 664 308 661 302 c 4
 658 296 656 289 655 281 c 5
 748 281 l 5
 748 282 l 6
 748 287 746 293 744 299 c 4
 742 305 740 311 736 315 c 4
 732 319 728 323 723 326 c 4
 718 329 710 330 703 330 c 4
839 351 m 5
 840 334 l 5
 843 340 848 346 854 349 c 4
 860 352 866 354 874 354 c 4
 879 354 883 353 887 352 c 4
 891 351 893 350 896 348 c 4
 898 347 900 345 902 343 c 4
 904 341 905 338 906 335 c 5
 907 337 909 340 911 342 c 4
 913 344 916 346 918 348 c 4
 921 350 923 351 927 352 c 4
 931 353 935 354 939 354 c 4
 945 354 950 353 955 351 c 4
 960 349 964 346 967 343 c 4
 971 339 974 335 976 329 c 4
 978 323 979 315 979 307 c 6
 979 179 l 5
 951 179 l 5
 951 308 l 6
 951 312 950 314 949 317 c 4
 948 320 948 322 946 324 c 4
 944 326 942 327 939 328 c 4
 937 329 934 329 931 329 c 4
 928 329 925 328 922 327 c 4
 919 326 918 326 916 324 c 4
 914 322 913 320 912 318 c 4
 911 316 910 314 910 311 c 4
 910 310 910 310 910 309 c 4
 910 309 910 309 910 308 c 6
 910 179 l 5
 882 179 l 5
 882 308 l 6
 882 312 882 314 881 317 c 4
 880 320 879 322 877 324 c 4
 875 326 873 327 871 328 c 4
 869 329 866 329 863 329 c 4
 860 329 857 329 854 328 c 4
 851 327 849 325 847 324 c 4
 846 323 844 321 843 320 c 4
 842 319 842 318 841 316 c 6
 841 179 l 5
 813 179 l 5
 813 351 l 5
 839 351 l 5
1166 263 m 6
 1166 256 1165 248 1164 241 c 4
 1163 234 1161 228 1159 222 c 4
 1156 214 1153 207 1148 201 c 4
 1143 195 1138 189 1132 185 c 4
 1127 182 1122 181 1116 179 c 4
 1111 177 1104 176 1098 176 c 4
 1091 176 1084 177 1078 179 c 4
 1072 181 1067 184 1062 187 c 4
 1060 189 1057 190 1055 192 c 4
 1053 194 1051 197 1049 199 c 5
 1048 179 l 5
 1021 179 l 5
 1021 422 l 5
 1050 422 l 5
 1050 332 l 5
 1052 335 1055 338 1058 340 c 4
 1061 343 1065 345 1068 347 c 4
 1072 349 1077 351 1082 352 c 4
 1087 353 1092 354 1098 354 c 4
 1105 354 1112 353 1118 351 c 4
 1124 349 1130 346 1135 342 c 4
 1140 339 1144 335 1148 330 c 4
 1152 325 1154 320 1157 314 c 4
 1160 307 1163 300 1164 292 c 4
 1165 284 1166 275 1166 266 c 6
 1166 263 l 6
1136 266 m 6
 1136 271 1136 277 1135 282 c 4
 1134 287 1133 292 1132 297 c 4
 1130 303 1128 307 1125 312 c 4
 1122 317 1118 320 1114 323 c 4
 1111 325 1107 326 1103 327 c 4
 1099 328 1096 329 1091 329 c 4
 1086 329 1081 328 1077 327 c 4
 1073 326 1069 323 1066 321 c 4
 1063 319 1060 316 1057 313 c 4
 1054 310 1052 306 1050 302 c 6
 1050 228 l 6
 1052 224 1054 220 1057 217 c 4
 1060 214 1063 211 1066 209 c 4
 1069 207 1073 204 1077 203 c 4
 1081 202 1086 201 1091 201 c 4
 1096 201 1100 202 1104 203 c 4
 1108 204 1112 206 1115 208 c 4
 1119 211 1123 214 1126 219 c 4
 1129 224 1131 229 1133 235 c 4
 1134 239 1135 243 1136 248 c 4
 1137 253 1136 258 1136 263 c 6
 1136 266 l 6
1291 176 m 4
 1279 176 1268 178 1258 182 c 4
 1248 186 1239 193 1232 200 c 4
 1225 207 1219 216 1215 226 c 4
 1211 236 1209 247 1209 259 c 6
 1209 266 l 6
 1209 280 1212 292 1216 303 c 4
 1220 314 1226 322 1233 330 c 4
 1240 337 1249 344 1258 348 c 4
 1267 352 1277 354 1287 354 c 4
 1299 354 1310 351 1319 347 c 4
 1328 343 1337 337 1343 330 c 4
 1349 322 1353 313 1356 303 c 4
 1359 293 1361 282 1361 270 c 6
 1361 257 l 5
 1238 257 l 5
 1238 255 l 6
 1239 247 1240 239 1243 233 c 4
 1246 227 1249 222 1254 217 c 4
 1259 212 1264 208 1271 205 c 4
 1278 202 1285 200 1293 200 c 4
 1303 200 1312 202 1320 206 c 4
 1328 210 1336 216 1341 223 c 5
 1359 209 l 5
 1353 200 1344 193 1333 186 c 4
 1322 179 1308 176 1291 176 c 4
1287 330 m 4
 1281 330 1275 328 1270 326 c 4
 1265 324 1260 321 1256 317 c 4
 1252 313 1248 308 1245 302 c 4
 1242 296 1240 289 1239 281 c 5
 1331 281 l 5
 1331 282 l 6
 1331 287 1330 293 1328 299 c 4
 1326 305 1324 311 1320 315 c 4
 1316 319 1311 323 1306 326 c 4
 1301 329 1294 330 1287 330 c 4
1522 354 m 4
 1527 354 1533 354 1539 353 c 4
 1545 352 1549 351 1552 350 c 6
 1548 321 l 5
 1542 322 1537 323 1532 324 c 4
 1527 325 1522 325 1516 325 c 4
 1509 325 1502 324 1496 322 c 4
 1490 320 1485 317 1481 314 c 4
 1477 311 1474 307 1471 303 c 4
 1468 299 1466 294 1464 289 c 6
 1464 179 l 5
 1434 179 l 5
 1434 351 l 5
 1462 351 l 5
 1464 328 l 5
 1464 323 l 5
 1471 332 1479 341 1489 346 c 4
 1499 351 1510 354 1522 354 c 4
EndSplineSet
Validated: 1
EndChar

StartChar: O
Encoding: 79 79 20
Width: 1022
Flags: HW
HStem: 176 26<88 150 281 357 481 550 669 736> 263 21<675 747> 331 24<286 350 484 546 674 739 912 974> 389 26<87 150>
VStem: 37 29<224 368> 170 29<223 369> 251 30<205 233 286 327> 360 30<205 246 302 324> 437 30<215 317> 558 28<210 234 293 322> 635 30<206 256 305 324> 747 30<180 182 212 263 284 325> 859 30<180 314 325 353>
LayerCount: 2
Fore
SplineSet
200 283 m 2
 200 275 198 266 197 257 c 0
 196 249 194 241 191 233 c 0
 188 225 185 218 181 211 c 0
 177 204 171 198 165 193 c 0
 159 188 153 184 145 181 c 0
 137 178 129 176 119 176 c 0
 109 176 101 178 93 181 c 0
 85 184 78 188 72 193 c 0
 66 198 61 204 57 211 c 0
 53 218 49 225 46 233 c 0
 43 241 41 249 40 257 c 0
 39 265 37 275 37 283 c 2
 37 309 l 2
 37 317 39 326 40 334 c 0
 41 343 43 351 46 359 c 0
 49 367 52 374 56 381 c 0
 60 388 66 394 72 399 c 0
 78 404 84 408 92 411 c 0
 100 414 108 415 118 415 c 0
 128 415 137 414 145 411 c 0
 153 408 159 404 165 399 c 0
 171 394 176 388 180 381 c 0
 184 374 188 367 191 359 c 0
 194 351 196 343 197 334 c 0
 198 325 200 317 200 309 c 2
 200 283 l 2
170 309 m 2
 170 315 170 321 169 327 c 0
 168 333 167 339 166 345 c 0
 164 351 163 356 160 361 c 0
 157 366 154 372 150 376 c 0
 146 380 142 383 137 385 c 0
 132 387 125 389 118 389 c 0
 111 389 105 387 100 385 c 0
 95 383 91 380 87 376 c 0
 83 372 80 366 77 361 c 0
 74 356 72 351 71 345 c 0
 69 339 69 332 68 326 c 0
 67 320 67 314 67 309 c 2
 67 283 l 2
 67 278 67 271 68 265 c 0
 69 259 69 253 71 247 c 0
 73 241 74 235 77 230 c 0
 80 225 83 220 87 216 c 0
 91 212 96 208 101 206 c 0
 106 204 112 202 119 202 c 0
 126 202 132 204 137 206 c 0
 142 208 147 212 151 216 c 0
 155 220 158 225 160 230 c 0
 163 235 164 241 166 247 c 0
 167 253 168 259 169 265 c 0
 170 271 170 277 170 283 c 2
 170 309 l 2
360 225 m 0
 360 229 359 232 358 235 c 0
 357 238 354 241 351 243 c 0
 348 245 343 247 338 249 c 0
 333 251 325 253 317 255 c 0
 307 257 298 259 290 262 c 0
 282 265 275 268 269 272 c 0
 263 276 259 281 256 286 c 0
 253 291 251 298 251 305 c 0
 251 312 253 319 256 325 c 0
 259 331 264 336 270 341 c 0
 276 346 283 349 291 352 c 0
 299 355 308 356 318 356 c 0
 329 356 338 355 347 352 c 0
 356 349 363 345 369 340 c 0
 375 335 380 330 383 323 c 0
 386 317 388 310 388 302 c 1
 358 302 l 1
 358 306 357 309 355 313 c 0
 353 317 350 319 347 322 c 0
 344 325 340 327 335 329 c 0
 330 331 324 331 318 331 c 0
 312 331 307 330 302 329 c 0
 297 328 293 326 290 324 c 0
 287 322 285 319 283 316 c 0
 281 313 281 309 281 306 c 0
 281 303 281 300 282 297 c 0
 283 294 286 292 289 290 c 0
 292 288 297 286 302 284 c 0
 307 282 314 281 322 279 c 0
 333 277 342 274 350 271 c 0
 358 268 366 265 372 261 c 0
 378 257 382 251 385 246 c 0
 388 241 389 235 389 228 c 0
 389 220 388 213 384 207 c 0
 381 201 376 194 370 190 c 0
 364 186 357 182 348 180 c 0
 339 178 329 176 319 176 c 0
 307 176 297 178 288 181 c 0
 279 184 271 189 265 194 c 0
 259 199 253 205 250 212 c 0
 247 219 245 226 245 233 c 1
 275 233 l 1
 275 227 276 221 279 217 c 0
 282 213 286 210 290 207 c 0
 294 204 299 203 304 202 c 0
 309 201 314 200 319 200 c 0
 327 200 334 201 340 203 c 0
 346 205 351 208 354 211 c 0
 356 213 357 216 358 218 c 0
 359 220 360 222 360 225 c 0
515 200 m 0
 520 200 526 201 531 203 c 0
 536 205 540 207 544 210 c 0
 548 213 552 217 554 221 c 0
 556 225 558 229 558 234 c 1
 585 234 l 1
 585 226 583 219 579 212 c 0
 575 205 570 199 564 194 c 0
 558 189 550 184 542 181 c 0
 534 178 524 176 515 176 c 0
 502 176 491 178 481 183 c 0
 471 188 462 194 456 202 c 0
 449 210 444 220 441 230 c 0
 438 240 437 251 437 263 c 2
 437 269 l 2
 437 280 438 292 441 302 c 0
 444 312 449 322 456 330 c 0
 462 338 471 344 481 349 c 0
 491 354 502 356 515 356 c 0
 525 356 534 354 543 351 c 0
 552 348 560 344 566 338 c 0
 572 332 576 326 580 318 c 0
 584 310 585 302 585 293 c 1
 558 293 l 1
 558 298 556 303 554 308 c 0
 552 313 549 316 545 320 c 0
 541 324 537 326 532 328 c 0
 527 330 521 331 515 331 c 0
 506 331 498 330 492 326 c 0
 486 322 481 318 477 312 c 0
 473 306 471 299 469 292 c 0
 467 285 466 276 466 269 c 2
 466 263 l 2
 466 255 467 247 469 240 c 0
 471 233 473 226 477 220 c 0
 481 214 486 210 492 206 c 0
 498 202 506 200 515 200 c 0
752 180 m 2
 751 182 750 185 749 188 c 0
 748 191 747 194 747 198 c 1
 744 195 741 193 737 190 c 0
 733 187 729 185 725 183 c 0
 721 181 716 179 711 178 c 0
 706 177 701 176 695 176 c 0
 686 176 677 177 670 180 c 0
 663 183 656 186 651 191 c 0
 646 195 642 201 639 207 c 0
 636 213 635 221 635 228 c 0
 635 237 637 245 641 252 c 0
 645 259 650 265 657 270 c 0
 664 275 672 279 682 281 c 0
 692 283 703 284 715 284 c 2
 747 284 l 1
 747 298 l 2
 747 303 746 308 744 312 c 0
 742 316 740 320 736 323 c 0
 732 326 728 328 723 330 c 0
 718 332 712 332 706 332 c 0
 700 332 695 331 690 330 c 0
 685 329 682 326 679 324 c 0
 676 322 673 318 671 315 c 0
 669 312 668 309 668 305 c 1
 639 305 l 1
 639 311 641 317 644 323 c 0
 647 329 651 335 657 340 c 0
 663 345 671 348 679 351 c 0
 688 354 697 356 708 356 c 0
 718 356 727 354 735 352 c 0
 743 350 751 346 757 341 c 0
 763 336 767 330 771 323 c 0
 775 316 776 308 776 298 c 2
 776 217 l 2
 776 211 777 205 778 199 c 0
 779 193 781 187 783 182 c 2
 783 180 l 1
 752 180 l 2
699 202 m 0
 705 202 711 203 716 204 c 0
 721 205 725 208 729 210 c 0
 733 212 737 216 740 219 c 0
 743 222 745 225 747 228 c 2
 747 263 l 1
 719 263 l 2
 709 263 701 263 693 261 c 0
 685 259 679 257 675 253 c 0
 672 250 669 248 667 244 c 0
 665 240 665 236 665 232 c 0
 665 228 666 224 667 220 c 0
 668 216 670 214 673 211 c 0
 676 208 680 205 684 204 c 0
 688 203 693 202 699 202 c 0
948 356 m 0
 953 356 959 356 965 355 c 0
 971 354 975 353 978 352 c 2
 974 323 l 1
 968 324 963 324 958 325 c 0
 953 326 948 326 942 326 c 0
 935 326 928 326 922 324 c 0
 916 322 911 319 907 316 c 0
 903 313 899 309 896 305 c 0
 893 301 891 296 889 291 c 2
 889 180 l 1
 859 180 l 1
 859 353 l 1
 888 353 l 1
 889 329 l 1
 889 325 l 1
 896 334 904 342 914 347 c 0
 924 353 935 356 948 356 c 0
EndSplineSet
Validated: 1
EndChar

StartChar: P
Encoding: 80 80 21
Width: 825
Flags: HW
HStem: 176 26<276 343 478 543 670 736> 263 21<282 354 675 747> 273 24<81 160> 332 24<282 345 481 539 675 739> 388 24<81 160>
VStem: 51 30<180 273 297 388> 174 30<308 377> 242 30<206 256 305 324> 354 30<180 182 212 263 284 325> 441 30<113 196 207 324 334 353> 558 30<215 316> 635 30<206 256 305 324> 747 30<180 182 212 263 284 325>
LayerCount: 2
Fore
SplineSet
81 273 m 1xbff8
 81 180 l 1
 51 180 l 1
 51 412 l 1
 126 412 l 2
 136 412 147 410 156 407 c 0
 165 404 174 400 181 394 c 0
 188 388 193 381 197 372 c 0
 201 363 204 353 204 342 c 0
 204 331 201 322 197 313 c 0
 193 304 188 297 181 291 c 0
 174 285 165 281 156 278 c 0
 147 275 136 273 126 273 c 2
 81 273 l 1xbff8
81 297 m 1
 126 297 l 2
 133 297 139 298 145 300 c 0
 151 302 156 305 160 309 c 0
 164 313 168 318 170 323 c 0
 172 329 174 335 174 342 c 0
 174 349 172 355 170 361 c 0
 168 367 165 372 161 376 c 0
 157 380 151 383 145 385 c 0
 139 387 133 388 126 388 c 2
 81 388 l 1
 81 297 l 1
359 180 m 2
 358 182 357 185 356 188 c 0
 355 191 354 194 354 198 c 1
 351 195 348 193 344 190 c 0
 340 187 336 185 332 183 c 0
 328 181 323 179 318 178 c 0
 313 177 308 176 302 176 c 0
 293 176 284 177 277 180 c 0
 270 183 263 186 258 191 c 0
 253 195 249 201 246 207 c 0
 243 213 242 221 242 228 c 0
 242 237 244 245 248 252 c 0
 252 259 257 265 264 270 c 0
 271 275 279 279 289 281 c 0
 299 283 309 284 321 284 c 2
 354 284 l 1xdff8
 354 298 l 2
 354 303 353 308 351 312 c 0
 349 316 347 320 343 323 c 0
 339 326 335 328 330 330 c 0
 325 332 319 332 313 332 c 0
 307 332 302 331 297 330 c 0
 292 329 288 326 285 324 c 0
 282 322 280 318 278 315 c 0
 276 312 275 309 275 305 c 1
 246 305 l 1
 246 311 247 317 250 323 c 0
 253 329 258 335 264 340 c 0
 270 345 277 348 285 351 c 0
 294 354 303 356 314 356 c 0
 324 356 334 354 342 352 c 0
 350 350 358 346 364 341 c 0
 370 336 374 330 378 323 c 0
 382 316 383 308 383 298 c 2
 383 217 l 2
 383 211 384 205 385 199 c 0
 386 193 387 187 389 182 c 2
 389 180 l 1
 359 180 l 2
306 202 m 0
 312 202 317 203 322 204 c 0
 327 205 332 208 336 210 c 0
 340 212 344 216 347 219 c 0
 350 222 352 225 354 228 c 2
 354 263 l 1
 326 263 l 2
 316 263 307 263 299 261 c 0
 291 259 285 257 281 253 c 0
 278 250 276 248 274 244 c 0
 272 240 272 236 272 232 c 0
 272 228 273 224 274 220 c 0
 275 216 277 214 280 211 c 0
 283 208 287 205 291 204 c 0
 295 203 300 202 306 202 c 0
441 113 m 1
 441 353 l 1
 468 353 l 1
 470 334 l 1
 472 337 474 340 477 342 c 0
 480 344 483 346 486 348 c 0
 490 351 496 353 501 354 c 0
 507 355 513 356 519 356 c 0
 530 356 539 353 548 349 c 0
 557 345 564 339 570 331 c 0
 576 323 580 314 583 303 c 0
 586 292 587 280 587 267 c 2
 587 264 l 2
 587 252 586 240 583 229 c 0
 580 218 576 210 570 202 c 0
 564 194 557 187 548 183 c 0
 540 179 530 176 519 176 c 0
 512 176 507 177 501 178 c 0
 495 179 491 181 486 184 c 0
 483 186 480 188 478 190 c 0
 476 192 473 194 471 196 c 1
 471 113 l 1
 441 113 l 1
558 267 m 2
 558 275 557 283 555 291 c 0
 553 299 550 306 546 312 c 0
 542 318 538 323 532 326 c 0
 526 329 518 331 510 331 c 0
 505 331 501 330 497 329 c 0
 493 328 490 326 487 324 c 0
 484 322 481 320 478 317 c 0
 475 314 473 311 471 307 c 2
 471 224 l 2
 473 221 475 218 477 215 c 0
 479 212 482 210 485 208 c 0
 488 206 492 203 496 202 c 0
 500 201 506 201 511 201 c 0
 519 201 526 203 532 206 c 0
 538 210 542 214 546 220 c 0
 550 226 553 232 555 240 c 0
 557 248 558 256 558 264 c 2
 558 267 l 2
752 180 m 2
 751 182 750 185 749 188 c 0
 748 191 747 194 747 198 c 1
 744 195 741 193 737 190 c 0
 733 187 729 185 725 183 c 0
 721 181 716 179 711 178 c 0
 706 177 701 176 695 176 c 0
 686 176 677 177 670 180 c 0
 663 183 656 186 651 191 c 0
 646 195 642 201 639 207 c 0
 636 213 635 221 635 228 c 0
 635 237 637 245 641 252 c 0
 645 259 650 265 657 270 c 0
 664 275 672 279 682 281 c 0
 692 283 703 284 715 284 c 2
 747 284 l 1
 747 298 l 2
 747 303 746 308 744 312 c 0
 742 316 740 320 736 323 c 0
 732 326 728 328 723 330 c 0
 718 332 712 332 706 332 c 0
 700 332 695 331 690 330 c 0
 685 329 682 326 679 324 c 0
 676 322 673 318 671 315 c 0
 669 312 668 309 668 305 c 1
 639 305 l 1
 639 311 641 317 644 323 c 0
 647 329 651 335 657 340 c 0
 663 345 671 348 679 351 c 0
 688 354 697 356 708 356 c 0
 718 356 727 354 735 352 c 0
 743 350 751 346 757 341 c 0
 763 336 767 330 771 323 c 0
 775 316 776 308 776 298 c 2
 776 217 l 2
 776 211 777 205 778 199 c 0
 779 193 781 187 783 182 c 2
 783 180 l 1
 752 180 l 2
699 202 m 0
 705 202 711 203 716 204 c 0
 721 205 725 208 729 210 c 0
 733 212 737 216 740 219 c 0
 743 222 745 225 747 228 c 2
 747 263 l 1
 719 263 l 2
 709 263 701 263 693 261 c 0
 685 259 679 257 675 253 c 0
 672 250 669 248 667 244 c 0
 665 240 665 236 665 232 c 0
 665 228 666 224 667 220 c 0
 668 216 670 214 673 211 c 0
 676 208 680 205 684 204 c 0
 688 203 693 202 699 202 c 0
EndSplineSet
Validated: 1
EndChar

StartChar: Q
Encoding: 81 81 22
Width: 1204
Flags: HW
HStem: 177 25<87 143 279 339 478 550 669 729 866 938 1057 1123> 257 24<459 551 847 939> 330 24<477 537 670 729 865 925 1059 1120> 387 26<85 149> 402 20G<630 659>
VStem: 35 29<224 365> 170 29<223 366> 243 29<206 351> 351 29<180 203 210 351> 429 29<219 257> 551 29<281 318> 630 29<180 199 210 321 332 422> 745 29<215 316> 817 29<219 257> 939 29<281 318> 1012 29<215 315> 1132 28<210 234 292 320>
LayerCount: 2
Fore
SplineSet
199 285 m 2xf7ff80
 199 276 198 268 197 259 c 0
 196 250 194 242 191 234 c 0
 188 226 184 218 180 211 c 0
 176 204 170 198 164 193 c 1
 204 160 l 1
 184 141 l 1
 138 180 l 2
 135 179 132 178 128 178 c 0
 125 177 121 177 117 177 c 0
 107 177 99 178 91 181 c 0
 83 184 76 189 70 194 c 0
 64 199 58 205 54 212 c 0
 50 219 47 226 44 234 c 0
 41 242 38 250 37 259 c 0
 36 268 35 277 35 285 c 2
 35 305 l 2
 35 313 36 321 37 330 c 0
 38 339 41 347 44 355 c 0
 47 363 50 371 54 378 c 0
 58 385 64 391 70 396 c 0
 76 401 83 405 91 408 c 0
 99 411 107 413 117 413 c 0
 127 413 135 411 143 408 c 0
 151 405 158 401 164 396 c 0
 170 391 176 385 180 378 c 0
 184 371 188 363 191 355 c 0
 194 347 196 339 197 330 c 0
 198 321 199 313 199 305 c 2
 199 285 l 2xf7ff80
170 305 m 2
 170 311 170 317 169 323 c 0
 168 329 167 336 166 342 c 0
 164 348 163 354 160 359 c 0
 157 364 154 369 150 373 c 0
 146 377 141 381 136 383 c 0
 131 385 124 387 117 387 c 0
 110 387 103 386 98 383 c 0
 93 381 88 377 84 373 c 0
 80 369 78 364 75 359 c 0
 72 354 70 347 68 341 c 0
 66 335 66 329 65 323 c 0
 64 317 64 311 64 305 c 2
 64 285 l 2
 64 279 64 273 65 267 c 0
 66 261 66 254 68 248 c 0
 70 242 72 236 75 231 c 0
 78 226 80 220 84 216 c 0
 88 212 93 209 98 206 c 0
 103 204 110 203 117 203 c 0
 124 203 131 204 136 206 c 0
 141 209 146 212 150 216 c 0
 154 220 157 226 160 231 c 0
 163 236 164 242 166 248 c 0
 167 254 168 260 169 266 c 0
 170 272 170 279 170 285 c 2
 170 305 l 2
354 180 m 1
 352 203 l 1
 346 195 340 189 331 184 c 0
 322 179 312 177 301 177 c 0
 292 177 284 178 277 181 c 0
 270 184 264 188 259 194 c 0
 254 200 250 207 247 216 c 0
 244 225 243 236 243 249 c 2
 243 351 l 1
 272 351 l 1
 272 249 l 2
 272 240 273 232 274 226 c 0
 275 220 278 215 281 211 c 0
 284 207 287 205 291 204 c 0
 295 203 300 201 306 201 c 0
 313 201 319 203 324 204 c 0
 329 206 333 207 337 210 c 0
 340 212 343 215 345 218 c 0
 347 221 349 224 351 228 c 2
 351 351 l 1
 380 351 l 1
 380 180 l 1
 354 180 l 1
511 177 m 0
 499 177 488 179 478 183 c 0
 468 187 459 193 452 200 c 0
 445 207 439 216 435 226 c 0
 431 236 429 247 429 259 c 2
 429 266 l 2
 429 280 432 292 436 303 c 0
 440 314 447 323 454 331 c 0
 461 338 469 344 478 348 c 0
 487 352 497 354 507 354 c 0
 519 354 530 351 539 347 c 0
 548 343 556 337 562 330 c 0
 568 322 573 313 576 303 c 0
 579 293 580 282 580 270 c 2
 580 257 l 1
 459 257 l 1
 459 256 l 2
 460 248 460 240 463 234 c 0
 466 228 469 222 474 217 c 0
 479 212 484 208 491 205 c 0
 498 202 504 201 512 201 c 0
 522 201 532 203 540 207 c 0
 548 211 555 217 560 224 c 1
 578 210 l 1
 572 201 564 194 553 187 c 0
 542 180 528 177 511 177 c 0
507 330 m 0
 501 330 495 328 490 326 c 0
 485 324 480 321 476 317 c 0
 472 313 468 308 465 302 c 0
 462 296 460 289 459 281 c 1
 551 281 l 1
 551 282 l 2
 551 287 550 293 548 299 c 0
 546 305 544 311 540 315 c 0
 536 319 531 323 526 326 c 0
 521 329 514 330 507 330 c 0
774 263 m 2
 774 256 773 249 772 242 c 0
 771 235 770 229 768 223 c 0
 765 215 761 207 756 201 c 0
 751 195 746 190 740 186 c 0
 735 183 731 181 725 179 c 0
 720 177 713 177 707 177 c 0
 700 177 693 178 687 180 c 0
 681 182 675 184 670 187 c 0
 668 189 666 191 664 193 c 0
 662 195 660 197 658 199 c 1
 656 180 l 1
 630 180 l 1
 630 422 l 1
 659 422 l 1xefff80
 659 332 l 1
 661 335 664 338 667 340 c 0
 670 343 673 345 676 347 c 0
 680 349 685 351 690 352 c 0
 695 353 700 354 706 354 c 0
 713 354 721 353 727 351 c 0
 733 349 739 346 744 342 c 0
 749 339 752 335 756 330 c 0
 760 325 762 320 765 314 c 0
 768 307 771 300 772 292 c 0
 773 284 774 276 774 267 c 2
 774 263 l 2
745 267 m 2
 745 272 745 277 744 282 c 0
 743 287 742 292 741 297 c 0
 739 303 736 307 733 312 c 0
 730 317 726 320 722 323 c 0
 719 325 716 326 712 327 c 0
 708 328 704 329 699 329 c 0
 694 329 689 328 685 327 c 0
 681 326 677 324 674 322 c 0
 671 320 668 316 665 313 c 0
 662 310 661 307 659 303 c 2
 659 228 l 2
 661 224 662 221 665 218 c 0
 668 215 671 211 674 209 c 0
 677 207 682 204 686 203 c 0
 690 202 695 202 700 202 c 0
 705 202 709 202 713 203 c 0
 717 204 721 207 724 209 c 0
 728 212 731 215 734 220 c 0
 737 225 739 229 741 235 c 0
 742 239 743 244 744 249 c 0
 745 254 745 258 745 263 c 2
 745 267 l 2
899 177 m 0
 887 177 876 179 866 183 c 0
 856 187 847 193 840 200 c 0
 833 207 827 216 823 226 c 0
 819 236 817 247 817 259 c 2
 817 266 l 2
 817 280 820 292 824 303 c 0
 828 314 834 323 841 331 c 0
 848 338 857 344 866 348 c 0
 875 352 885 354 895 354 c 0
 907 354 918 351 927 347 c 0
 936 343 944 337 950 330 c 0
 956 322 961 313 964 303 c 0
 967 293 968 282 968 270 c 2
 968 257 l 1
 846 257 l 1
 846 256 l 2
 847 248 848 240 851 234 c 0
 854 228 857 222 862 217 c 0
 867 212 872 208 879 205 c 0
 886 202 892 201 900 201 c 0
 910 201 920 203 928 207 c 0
 936 211 943 217 948 224 c 1
 966 210 l 1
 960 201 951 194 940 187 c 0
 929 180 916 177 899 177 c 0
895 330 m 0
 889 330 883 328 878 326 c 0
 873 324 868 321 864 317 c 0
 860 313 856 308 853 302 c 0
 850 296 848 289 847 281 c 1
 939 281 l 1
 939 282 l 2
 939 287 938 293 936 299 c 0
 934 305 932 311 928 315 c 0
 924 319 919 323 914 326 c 0
 909 329 902 330 895 330 c 0
1090 200 m 0
 1095 200 1100 201 1105 203 c 0
 1110 205 1115 207 1119 210 c 0
 1123 213 1126 217 1128 221 c 0
 1130 225 1132 229 1132 234 c 1
 1159 234 l 1
 1159 226 1157 219 1153 212 c 0
 1149 205 1144 199 1138 194 c 0
 1132 189 1124 184 1116 181 c 0
 1108 178 1099 177 1090 177 c 0
 1077 177 1066 179 1056 184 c 0
 1046 189 1038 195 1032 203 c 0
 1025 211 1020 220 1017 230 c 0
 1014 240 1012 251 1012 262 c 2
 1012 269 l 2
 1012 280 1014 291 1017 301 c 0
 1020 311 1025 320 1032 328 c 0
 1038 336 1046 342 1056 347 c 0
 1066 352 1077 354 1090 354 c 0
 1100 354 1110 352 1118 349 c 0
 1127 346 1134 341 1140 336 c 0
 1146 330 1151 324 1154 316 c 0
 1157 308 1159 301 1159 292 c 1
 1132 292 l 1
 1132 297 1130 301 1128 306 c 0
 1126 311 1124 316 1120 319 c 0
 1116 322 1111 325 1106 327 c 0
 1101 329 1096 330 1090 330 c 0
 1081 330 1073 328 1067 324 c 0
 1061 320 1056 316 1052 310 c 0
 1048 304 1046 298 1044 291 c 0
 1042 284 1042 276 1042 269 c 2
 1042 262 l 2
 1042 255 1042 247 1044 240 c 0
 1046 233 1048 226 1052 220 c 0
 1056 214 1061 210 1067 206 c 0
 1073 202 1081 200 1090 200 c 0
EndSplineSet
Validated: 1
EndChar

StartChar: R
Encoding: 82 82 23
Width: 1024
Flags: HW
HStem: 176 24<285 346 683 753 874 936> 258 24<662 755> 275 24<79 125> 331 24<285 346 461 496 528 566 680 741 874 935> 388 24<79 154>
VStem: 49 29<180 275 299 388> 167 30<310 377> 237 30<216 315> 364 30<216 315> 429 28<180 330 336 353> 498 28<180 330> 567 28<180 330> 632 30<219 258> 755 30<282 320> 826 30<216 315> 954 30<216 315>
LayerCount: 2
Fore
SplineSet
125 275 m 1xbfff
 79 275 l 1
 79 180 l 1
 49 180 l 1
 49 412 l 1
 118 412 l 2
 129 412 138 411 148 408 c 0
 158 405 167 401 174 395 c 0
 181 389 186 382 190 373 c 0
 194 364 197 354 197 342 c 0
 197 334 195 328 193 322 c 0
 191 316 188 310 184 305 c 0
 180 300 176 295 171 291 c 0
 166 287 159 284 153 281 c 1
 202 182 l 1
 202 180 l 1
 171 180 l 1
 125 275 l 1xbfff
79 299 m 1
 118 299 l 2
 125 299 131 300 137 302 c 0
 143 304 149 306 153 310 c 0
 157 314 160 319 163 324 c 0
 166 329 167 336 167 343 c 0
 167 350 165 356 163 362 c 0
 161 368 157 372 153 376 c 0
 149 380 143 383 137 385 c 0
 131 387 125 388 118 388 c 2
 79 388 l 1
 79 299 l 1
237 268 m 2
 237 280 238 291 242 302 c 0
 246 313 251 322 258 330 c 0
 265 338 272 345 282 349 c 0
 292 354 303 356 315 356 c 0
 327 356 338 354 348 349 c 0
 358 345 366 338 373 330 c 0
 380 322 384 313 388 302 c 0
 392 291 394 280 394 268 c 2
 394 264 l 2
 394 252 392 240 388 229 c 0
 384 218 380 210 373 202 c 0
 366 194 358 187 348 183 c 0
 338 179 327 176 315 176 c 0
 303 176 292 179 282 183 c 0
 272 187 265 194 258 202 c 0
 251 210 246 218 242 229 c 0
 238 240 237 252 237 264 c 2
 237 268 l 2
266 264 m 2
 266 255 267 248 269 240 c 0
 271 232 274 225 278 219 c 0
 282 213 288 208 294 205 c 0
 300 202 307 200 315 200 c 0
 323 200 331 202 337 205 c 0
 343 208 348 213 352 219 c 0
 356 225 359 232 361 240 c 0
 363 248 364 255 364 264 c 2
 364 268 l 2
 364 276 363 284 361 292 c 0
 359 300 356 306 352 312 c 0
 348 318 342 323 336 326 c 0
 330 330 323 331 315 331 c 0
 307 331 300 330 294 326 c 0
 288 323 282 318 278 312 c 0
 274 306 271 300 269 292 c 0
 267 284 266 276 266 268 c 2
 266 264 l 2
455 353 m 1
 456 336 l 1
 460 342 464 347 470 350 c 0
 476 353 482 356 490 356 c 0
 495 356 499 355 503 354 c 0
 507 353 509 352 512 350 c 0
 514 349 516 346 518 344 c 0
 520 342 521 340 522 337 c 1
 523 339 525 342 527 344 c 0
 529 346 532 348 534 350 c 0
 537 352 540 353 544 354 c 0
 548 355 552 356 556 356 c 0
 562 356 567 355 572 353 c 0
 577 351 581 348 584 345 c 0
 588 341 591 336 593 330 c 0
 595 324 596 317 596 309 c 2
 596 180 l 1
 567 180 l 1
 567 309 l 2
 567 313 567 316 566 319 c 0
 565 322 564 324 562 326 c 0
 560 328 559 328 556 329 c 0
 554 330 550 331 547 331 c 0
 543 331 541 330 538 329 c 0
 535 328 534 327 532 325 c 0
 530 323 529 321 528 319 c 0
 527 317 526 315 526 312 c 0
 526 311 526 312 526 311 c 0
 526 311 526 310 526 309 c 2
 526 180 l 1
 498 180 l 1
 498 309 l 2
 498 313 498 316 497 319 c 0
 496 322 495 324 493 326 c 0
 491 328 489 328 487 329 c 0
 485 330 482 331 479 331 c 0
 475 331 472 330 469 329 c 0
 466 328 465 327 463 326 c 0
 462 325 460 323 459 322 c 0
 458 321 458 319 457 317 c 2
 457 180 l 1
 429 180 l 1
 429 353 l 1
 455 353 l 1
714 176 m 0
 702 176 691 179 681 183 c 0
 671 187 662 193 655 200 c 0
 648 207 642 217 638 227 c 0
 634 237 632 248 632 260 c 2
 632 267 l 2
 632 281 635 293 639 304 c 0
 643 315 649 324 656 332 c 0
 663 340 673 346 682 350 c 0
 691 354 701 356 711 356 c 0
 723 356 734 353 743 349 c 0
 752 345 761 339 767 331 c 0
 773 323 777 314 780 304 c 0
 783 294 785 283 785 271 c 2
 785 258 l 1
 661 258 l 1xdfff
 661 256 l 2
 662 248 663 240 666 234 c 0
 669 228 672 222 677 217 c 0
 682 212 687 208 694 205 c 0
 701 202 708 201 716 201 c 0
 727 201 736 203 744 207 c 0
 752 211 760 217 765 224 c 1
 783 210 l 1
 777 201 769 193 757 186 c 0
 746 179 731 176 714 176 c 0
711 331 m 0
 705 331 699 330 694 328 c 0
 689 326 683 323 679 319 c 0
 675 315 671 309 668 303 c 0
 665 297 663 290 662 282 c 1
 755 282 l 1
 755 283 l 2
 755 288 754 294 752 300 c 0
 750 306 748 312 744 316 c 0
 740 320 736 324 730 327 c 0
 725 330 719 331 711 331 c 0
826 268 m 2
 826 280 828 291 832 302 c 0
 836 313 840 322 847 330 c 0
 854 338 862 345 872 349 c 0
 882 354 893 356 905 356 c 0
 917 356 928 354 938 349 c 0
 948 345 956 338 963 330 c 0
 970 322 974 313 978 302 c 0
 982 291 984 280 984 268 c 2
 984 264 l 2
 984 252 982 240 978 229 c 0
 974 218 970 210 963 202 c 0
 956 194 948 187 938 183 c 0
 928 179 917 176 905 176 c 0
 893 176 882 179 872 183 c 0
 862 187 854 194 847 202 c 0
 840 210 836 218 832 229 c 0
 828 240 826 252 826 264 c 2
 826 268 l 2
856 264 m 2
 856 255 857 248 859 240 c 0
 861 232 864 225 868 219 c 0
 872 213 878 208 884 205 c 0
 890 202 897 200 905 200 c 0
 913 200 920 202 926 205 c 0
 932 208 938 213 942 219 c 0
 946 225 949 232 951 240 c 0
 953 248 954 255 954 264 c 2
 954 268 l 2
 954 276 953 284 951 292 c 0
 949 300 946 306 942 312 c 0
 938 318 932 323 926 326 c 0
 920 330 913 331 905 331 c 0
 897 331 889 330 883 326 c 0
 877 323 872 318 868 312 c 0
 864 306 861 300 859 292 c 0
 857 284 856 276 856 268 c 2
 856 264 l 2
EndSplineSet
Validated: 1
EndChar

StartChar: S
Encoding: 83 83 24
Width: 1221
Flags: HW
HStem: 179 26<73 155 243 303 333 390 477 561 1067 1139> 258 25<462 557 1067 1147> 325 29<753 780 952 980> 329 26<243 303 476 547 708 779 908 978 1070 1143> 384 35<303 330> 393 26<79 147>
VStem: 30 31<216 247> 37 31<327 384> 162 31<210 269 348 381> 303 30<205 329 389 419> 432 30<219 258> 557 30<283 322> 663 30<179 315 327 355> 862 30<179 315 327 355> 1033 30<207 257 306 326> 1147 30<179 182 212 265 286 327>
LayerCount: 2
Fore
SplineSet
162 239 m 0xd6ff
 162 246 160 252 157 257 c 0
 154 262 150 267 145 270 c 0
 140 273 134 276 128 278 c 0
 122 280 116 283 110 285 c 0
 102 288 93 290 84 294 c 0
 75 298 68 303 61 308 c 0
 54 314 48 321 43 328 c 0
 39 336 37 344 37 354 c 0
 37 364 39 374 43 382 c 0
 48 390 54 396 61 402 c 0
 68 408 77 411 86 414 c 0
 95 417 104 419 113 419 c 0
 123 419 133 417 143 414 c 0
 153 411 161 405 168 399 c 0
 175 393 182 386 186 377 c 0
 190 368 193 359 193 348 c 1
 162 348 l 1
 161 355 159 360 157 366 c 0
 155 372 151 376 147 380 c 0
 143 384 139 388 133 390 c 0
 127 392 120 393 113 393 c 0
 107 393 103 393 97 391 c 0
 92 389 86 386 82 383 c 0
 78 380 75 376 72 371 c 0
 70 366 68 361 68 355 c 0xd5ff
 68 348 70 342 73 337 c 0
 76 332 81 329 86 326 c 0
 91 323 97 320 103 318 c 0
 109 316 115 314 120 312 c 0
 129 309 137 306 146 302 c 0
 155 298 163 293 170 287 c 0
 177 281 183 275 187 267 c 0
 191 259 194 249 194 239 c 0
 194 228 192 220 187 212 c 0
 182 204 175 197 168 192 c 0
 161 187 152 183 143 180 c 0
 134 177 124 176 115 176 c 0
 104 176 93 178 82 182 c 0
 71 186 61 191 53 198 c 0
 46 204 40 212 36 220 c 0
 32 228 30 237 30 247 c 1
 60 247 l 1
 61 240 63 234 66 228 c 0
 69 222 73 218 78 214 c 0
 83 210 88 206 94 204 c 0
 100 202 108 202 115 202 c 0
 121 202 126 203 132 204 c 0
 138 206 143 208 147 211 c 0
 151 214 155 217 158 222 c 0
 161 227 162 233 162 239 c 0xd6ff
243 355 m 1
 333 355 l 1
 333 205 l 1
 390 205 l 1
 390 179 l 1
 243 179 l 1
 243 205 l 1
 303 205 l 1
 303 329 l 1
 243 329 l 1
 243 355 l 1
299 401 m 0
 299 404 299 406 300 408 c 0
 301 410 302 412 304 414 c 0
 305 415 307 416 309 417 c 0
 311 418 314 419 317 419 c 0
 320 419 322 418 324 417 c 0
 326 416 329 415 330 414 c 0
 332 412 333 410 334 408 c 0
 335 406 335 404 335 401 c 0
 335 396 333 392 330 389 c 0
 327 386 323 384 317 384 c 0xc8ff
 311 384 306 386 303 389 c 0
 300 392 299 396 299 401 c 0
515 176 m 0
 503 176 491 178 481 182 c 0
 471 186 462 192 455 200 c 0
 448 208 442 217 438 227 c 0
 434 237 432 249 432 261 c 2
 432 268 l 2
 432 282 433 295 438 306 c 0
 443 317 448 326 456 334 c 0
 463 342 472 348 482 352 c 0
 492 356 501 358 511 358 c 0
 524 358 536 355 545 351 c 0
 555 347 562 341 568 333 c 0
 574 325 579 316 582 306 c 0
 585 296 587 284 587 272 c 2
 587 258 l 1
 462 258 l 1
 462 257 l 2
 463 248 464 241 467 235 c 0
 470 229 473 223 478 218 c 0
 483 213 488 208 495 205 c 0
 502 202 509 201 517 201 c 0
 528 201 538 203 546 207 c 0
 554 211 560 217 566 224 c 1
 585 210 l 1
 579 201 570 193 558 186 c 0
 546 179 532 176 515 176 c 0
511 333 m 0
 505 333 499 332 494 330 c 0
 489 328 484 324 480 320 c 0
 476 316 472 311 469 305 c 0
 466 299 463 291 462 283 c 1
 557 283 l 1
 557 285 l 2
 557 290 556 296 554 302 c 0
 552 308 549 313 545 318 c 0
 541 323 537 326 531 329 c 0
 525 332 519 333 511 333 c 0
752 358 m 0
 758 358 764 358 770 357 c 0
 776 356 780 355 783 354 c 2
 779 325 l 1xe0ff
 773 326 767 326 762 327 c 0
 757 328 752 328 746 328 c 0
 739 328 732 327 726 325 c 0
 720 323 715 321 711 318 c 0
 707 315 703 311 700 307 c 0
 697 303 695 297 693 292 c 2
 693 179 l 1
 663 179 l 1
 663 355 l 1
 691 355 l 1xd0ff
 692 331 l 1
 693 327 l 1
 700 337 708 344 718 350 c 0
 728 356 739 358 752 358 c 0
952 358 m 0
 958 358 963 358 969 357 c 0
 975 356 980 355 983 354 c 2
 979 325 l 1xe0ff
 973 326 967 326 962 327 c 0
 957 328 952 328 946 328 c 0
 939 328 932 327 926 325 c 0
 920 323 914 321 910 318 c 0
 906 315 902 311 899 307 c 0
 896 303 894 297 892 292 c 2
 892 179 l 1
 862 179 l 1
 862 355 l 1
 891 355 l 1xd0ff
 892 331 l 1
 892 327 l 1
 899 337 908 344 918 350 c 0
 928 356 939 358 952 358 c 0
1152 179 m 2
 1151 181 1150 185 1149 188 c 0
 1148 191 1147 194 1147 198 c 1
 1144 195 1141 193 1137 190 c 0
 1133 187 1129 185 1125 183 c 0
 1120 181 1116 179 1111 178 c 0
 1106 177 1100 176 1094 176 c 0
 1085 176 1077 177 1069 180 c 0
 1062 183 1055 186 1050 191 c 0
 1045 196 1041 201 1038 207 c 0
 1035 213 1033 221 1033 228 c 0
 1033 238 1035 246 1039 253 c 0
 1043 260 1049 266 1056 271 c 0
 1063 276 1071 280 1081 282 c 0
 1091 284 1102 286 1114 286 c 2
 1147 286 l 1
 1147 300 l 2
 1147 305 1146 310 1144 314 c 0
 1142 318 1140 322 1136 325 c 0
 1132 328 1128 329 1123 331 c 0
 1118 333 1111 334 1105 334 c 0
 1099 334 1094 334 1089 332 c 0
 1084 330 1080 328 1077 326 c 0
 1074 324 1072 320 1070 317 c 0
 1068 314 1067 310 1067 306 c 1
 1037 306 l 1
 1037 312 1039 319 1042 325 c 0
 1045 331 1050 337 1056 342 c 0
 1062 347 1069 351 1078 354 c 0
 1087 357 1096 358 1107 358 c 0
 1117 358 1126 356 1135 354 c 0
 1144 352 1151 348 1157 343 c 0
 1163 338 1168 332 1172 325 c 0
 1176 318 1177 309 1177 299 c 2
 1177 218 l 2
 1177 212 1178 206 1179 199 c 0
 1180 193 1181 187 1183 182 c 2
 1183 179 l 1
 1152 179 l 2
1099 202 m 0
 1105 202 1110 202 1115 204 c 0
 1120 206 1125 208 1129 210 c 0
 1133 212 1137 216 1140 219 c 0
 1143 222 1145 226 1147 229 c 2
 1147 264 l 1
 1119 264 l 2
 1109 264 1100 264 1092 262 c 0
 1084 260 1078 258 1073 254 c 0
 1070 251 1068 248 1066 244 c 0
 1064 240 1064 237 1064 232 c 0
 1064 228 1065 224 1066 220 c 0
 1068 216 1069 214 1072 211 c 0
 1075 208 1079 206 1083 204 c 0
 1087 202 1093 202 1099 202 c 0
EndSplineSet
Validated: 1
EndChar

StartChar: T
Encoding: 84 84 25
Width: 1024
Flags: HW
HStem: 111 24<668 737> 176 26<276 343 677 741 872 938> 263 21<282 354> 331 25<280 347 486 547 679 740 873 937> 387 25<33 105 133 205>
VStem: 105 29<180 387> 242 30<206 256 305 324> 354 30<180 182 212 263 284 325> 441 30<180 321 327 353> 554 30<180 325> 633 30<215 316> 749 30<146 197 209 323 334 353> 826 30<216 315> 954 30<216 315>
LayerCount: 2
Fore
SplineSet
205 387 m 1
 133 387 l 1
 133 180 l 1
 105 180 l 1
 105 387 l 1
 33 387 l 1
 33 412 l 1
 205 412 l 1
 205 387 l 1
359 180 m 2
 358 182 357 185 356 188 c 0
 355 191 354 194 354 198 c 1
 351 195 348 193 344 190 c 0
 340 187 336 185 332 183 c 0
 328 181 323 179 318 178 c 0
 313 177 308 176 302 176 c 0
 293 176 284 177 277 180 c 0
 270 183 263 186 258 191 c 0
 253 195 249 201 246 207 c 0
 243 213 242 221 242 228 c 0
 242 237 244 245 248 252 c 0
 252 259 257 265 264 270 c 0
 271 275 279 279 289 281 c 0
 299 283 309 284 321 284 c 2
 354 284 l 1
 354 298 l 2
 354 303 353 308 351 312 c 0
 349 316 347 320 343 323 c 0
 339 326 335 328 330 330 c 0
 325 332 319 332 313 332 c 0
 307 332 302 331 297 330 c 0
 292 329 288 326 285 324 c 0
 282 322 280 318 278 315 c 0
 276 312 275 309 275 305 c 1
 246 305 l 1
 246 311 247 317 250 323 c 0
 253 329 258 335 264 340 c 0
 270 345 277 348 285 351 c 0
 294 354 303 356 314 356 c 0
 324 356 334 354 342 352 c 0
 350 350 358 346 364 341 c 0
 370 336 374 330 378 323 c 0
 382 316 383 308 383 298 c 2
 383 217 l 2
 383 211 384 205 385 199 c 0
 386 193 387 187 389 182 c 2
 389 180 l 1
 359 180 l 2
306 202 m 0
 312 202 317 203 322 204 c 0
 327 205 332 208 336 210 c 0
 340 212 344 216 347 219 c 0
 350 222 352 225 354 228 c 2
 354 263 l 1
 326 263 l 2
 316 263 307 263 299 261 c 0
 291 259 285 257 281 253 c 0
 278 250 276 248 274 244 c 0
 272 240 272 236 272 232 c 0
 272 228 273 224 274 220 c 0
 275 216 277 214 280 211 c 0
 283 208 287 205 291 204 c 0
 295 203 300 202 306 202 c 0
441 180 m 1
 441 353 l 1
 468 353 l 1
 470 327 l 1
 473 331 475 334 478 337 c 0
 481 340 485 343 488 345 c 0
 493 348 499 351 505 353 c 0
 511 355 517 356 524 356 c 0
 533 356 542 355 549 352 c 0
 556 349 563 345 568 340 c 0
 573 335 577 327 580 319 c 0
 583 311 584 301 584 289 c 2
 584 180 l 1
 554 180 l 1
 554 289 l 2
 554 297 554 303 552 308 c 0
 550 313 547 318 544 321 c 0
 541 324 537 327 532 328 c 0
 527 329 521 331 515 331 c 0
 510 331 505 330 500 328 c 0
 495 327 491 325 487 322 c 0
 484 320 481 317 478 314 c 0
 475 311 473 308 471 304 c 2
 471 180 l 1
 441 180 l 1
633 267 m 2
 633 280 634 292 637 303 c 0
 640 314 645 323 651 331 c 0
 657 339 664 345 673 349 c 0
 682 353 691 356 702 356 c 0
 709 356 715 355 721 353 c 0
 727 351 732 349 737 346 c 0
 740 344 742 343 744 341 c 0
 746 339 748 337 750 334 c 1
 752 353 l 1
 779 353 l 1
 779 183 l 2
 779 172 777 162 773 153 c 0
 769 144 764 136 758 130 c 0
 752 124 744 119 735 116 c 0
 726 113 716 111 705 111 c 0
 701 111 696 112 690 113 c 0
 684 114 679 116 673 118 c 0
 667 120 661 123 655 127 c 0
 650 131 645 135 641 141 c 1
 657 159 l 1
 661 155 664 151 668 148 c 0
 672 145 675 143 679 141 c 0
 683 139 687 138 691 137 c 0
 695 136 699 136 703 136 c 0
 710 136 716 137 722 139 c 0
 728 141 733 144 737 148 c 0
 741 152 744 156 746 162 c 0
 748 168 749 175 749 182 c 2
 749 197 l 1
 747 194 745 192 742 190 c 0
 740 188 737 186 734 184 c 0
 730 182 724 179 719 178 c 0
 714 177 707 176 701 176 c 0
 690 176 682 179 673 183 c 0
 664 187 657 194 651 202 c 0
 645 210 640 218 637 229 c 0
 634 240 633 252 633 264 c 2
 633 267 l 2
662 264 m 2
 662 256 663 248 665 240 c 0
 667 232 669 226 673 220 c 0
 677 214 682 209 688 206 c 0
 694 203 701 201 709 201 c 0
 714 201 718 202 722 203 c 0
 726 204 731 207 734 209 c 0
 737 211 739 214 742 217 c 0
 745 220 747 223 749 227 c 2
 749 306 l 2
 747 310 745 313 742 316 c 0
 739 319 736 322 733 324 c 0
 730 326 726 328 722 329 c 0
 718 330 714 331 709 331 c 0
 701 331 694 329 688 326 c 0
 682 323 677 318 673 312 c 0
 669 306 667 299 665 291 c 0
 663 283 662 275 662 267 c 2
 662 264 l 2
826 268 m 2
 826 280 828 291 832 302 c 0
 836 313 840 322 847 330 c 0
 854 338 862 345 872 349 c 0
 882 354 893 356 905 356 c 0
 917 356 928 354 938 349 c 0
 948 345 956 338 963 330 c 0
 970 322 974 313 978 302 c 0
 982 291 984 280 984 268 c 2
 984 264 l 2
 984 252 982 240 978 229 c 0
 974 218 970 210 963 202 c 0
 956 194 948 187 938 183 c 0
 928 179 917 176 905 176 c 0
 893 176 882 179 872 183 c 0
 862 187 854 194 847 202 c 0
 840 210 836 218 832 229 c 0
 828 240 826 252 826 264 c 2
 826 268 l 2
856 264 m 2
 856 255 857 248 859 240 c 0
 861 232 864 225 868 219 c 0
 872 213 878 208 884 205 c 0
 890 202 897 200 905 200 c 0
 913 200 920 202 926 205 c 0
 932 208 938 213 942 219 c 0
 946 225 949 232 951 240 c 0
 953 248 954 255 954 264 c 2
 954 268 l 2
 954 276 953 284 951 292 c 0
 949 300 946 306 942 312 c 0
 938 318 932 323 926 326 c 0
 920 330 913 331 905 331 c 0
 897 331 889 330 883 326 c 0
 877 323 872 318 868 312 c 0
 864 306 861 300 859 292 c 0
 857 284 856 276 856 268 c 2
 856 264 l 2
EndSplineSet
Validated: 1
EndChar

StartChar: U
Encoding: 85 85 26
Width: 1454
Flags: HW
HStem: 180 26<95 164 457 516 545 602 880 951> 330 23<297 361 457 516 645 693 722 789 884 947 1117 1181 1256 1293 1324 1363> 381 34<516 543> 407 25<731 798>
VStem: 54 29<216 413> 176 29<215 413> 256 30<180 321 327 353> 368 30<180 325> 516 30<206 327 386 416> 693 30<180 330 353 400> 837 30<217 315> 964 30<217 315> 1066 30<180 314 325 353> 1225 28<180 330 337 353> 1294 28<180 330> 1364 28<180 330>
LayerCount: 2
Fore
SplineSet
205 413 m 1xcfff
 206 255 l 2
 206 244 204 234 200 225 c 0
 196 216 191 207 184 200 c 0
 177 193 169 187 160 183 c 0
 151 179 140 177 129 177 c 0
 118 177 108 179 99 183 c 0
 90 187 82 193 75 200 c 0
 68 207 63 215 59 224 c 0
 55 234 54 244 54 255 c 2
 54 413 l 1
 82 413 l 1
 83 255 l 2
 83 248 84 241 86 235 c 0
 88 229 91 223 95 218 c 0
 99 213 103 209 109 206 c 0
 115 203 121 202 129 202 c 0
 137 202 143 203 149 206 c 0
 155 209 160 213 164 218 c 0
 168 223 171 229 173 235 c 0
 175 241 176 248 176 255 c 2
 177 413 l 1
 205 413 l 1xcfff
256 180 m 1
 256 353 l 1
 282 353 l 1
 284 327 l 1
 287 331 290 334 293 337 c 0
 296 340 299 343 302 345 c 0
 307 348 313 351 319 353 c 0
 325 355 331 356 338 356 c 0
 347 356 356 355 363 352 c 0
 370 349 377 345 382 340 c 0
 387 335 391 327 394 319 c 0
 397 311 398 302 398 290 c 2
 398 180 l 1
 368 180 l 1
 368 289 l 2
 368 297 368 304 366 309 c 0
 364 314 361 318 358 321 c 0
 355 324 351 328 346 329 c 0
 341 330 335 331 329 331 c 0
 324 331 319 331 314 329 c 0
 309 328 305 325 301 322 c 0
 298 320 295 317 292 314 c 0
 289 311 287 308 285 304 c 2
 285 180 l 1
 256 180 l 1
457 353 m 1
 545 353 l 1
 545 206 l 1
 602 206 l 1
 602 180 l 1
 457 180 l 1
 457 206 l 1
 516 206 l 1
 516 327 l 1
 457 327 l 1
 457 353 l 1
512 398 m 0
 512 401 512 403 513 405 c 0
 514 407 515 409 517 411 c 0
 518 412 520 413 522 414 c 0
 524 415 526 416 529 416 c 0
 532 416 535 415 537 414 c 0
 539 413 541 412 542 411 c 0
 544 410 545 408 546 406 c 0
 547 404 547 401 547 398 c 0
 547 393 546 389 543 386 c 0
 540 383 535 381 529 381 c 0xefff
 523 381 519 383 516 386 c 0
 513 389 512 393 512 398 c 0
693 180 m 1
 693 330 l 1
 645 330 l 1
 645 353 l 1
 693 353 l 1
 693 365 l 2
 693 376 695 386 698 394 c 0
 701 402 705 409 711 415 c 0
 717 421 725 425 733 428 c 0
 741 431 750 432 760 432 c 0
 764 432 769 432 773 431 c 0
 777 431 781 431 785 430 c 0
 788 429 790 429 793 428 c 0
 796 427 798 427 801 426 c 2
 798 402 l 1
 794 403 789 404 783 405 c 0
 777 406 771 407 764 407 c 0xdfff
 757 407 751 407 746 405 c 0
 741 403 736 400 733 397 c 0
 729 394 727 389 725 384 c 0
 723 379 722 372 722 365 c 2
 722 353 l 1
 789 353 l 1
 789 330 l 1
 722 330 l 1
 722 180 l 1
 693 180 l 1
837 268 m 2
 837 280 838 292 842 303 c 0
 846 314 851 323 858 331 c 0
 865 339 872 345 882 349 c 0
 892 354 903 356 915 356 c 0
 927 356 938 354 948 349 c 0
 958 345 966 339 973 331 c 0
 980 323 985 314 989 303 c 0
 993 292 994 280 994 268 c 2
 994 264 l 2
 994 252 993 241 989 230 c 0
 985 219 980 210 973 202 c 0
 966 194 958 187 948 183 c 0
 938 179 928 177 916 177 c 0
 904 177 892 179 882 183 c 0
 872 187 865 194 858 202 c 0
 851 210 846 219 842 230 c 0
 838 241 837 252 837 264 c 2
 837 268 l 2
866 264 m 2
 866 255 867 248 869 240 c 0
 871 232 875 226 879 220 c 0
 883 214 888 209 894 206 c 0
 900 203 908 201 916 201 c 0
 924 201 931 203 937 206 c 0
 943 209 948 214 952 220 c 0
 956 226 959 232 961 240 c 0
 963 248 964 255 964 264 c 2
 964 268 l 2
 964 276 963 284 961 292 c 0
 959 300 956 307 952 313 c 0
 948 319 943 323 937 326 c 0
 931 330 923 332 915 332 c 0
 907 332 900 330 894 326 c 0
 888 323 883 319 879 313 c 0
 875 307 871 300 869 292 c 0
 867 284 866 276 866 268 c 2
 866 264 l 2
1155 356 m 0
 1160 356 1166 356 1172 355 c 0
 1178 354 1182 353 1185 352 c 2
 1181 323 l 1
 1175 324 1170 325 1165 326 c 0
 1160 327 1155 327 1149 327 c 0
 1142 327 1135 326 1129 324 c 0
 1123 322 1118 319 1114 316 c 0
 1110 313 1106 309 1103 305 c 0
 1100 301 1098 296 1096 291 c 2
 1096 180 l 1
 1066 180 l 1
 1066 353 l 1
 1094 353 l 1
 1096 330 l 1
 1096 325 l 1
 1103 334 1111 343 1121 348 c 0
 1131 354 1142 356 1155 356 c 0
1252 353 m 1
 1252 337 l 1
 1256 343 1260 348 1266 351 c 0
 1272 354 1279 356 1287 356 c 0
 1292 356 1295 355 1299 354 c 0
 1303 353 1306 352 1309 350 c 0
 1311 349 1312 347 1314 345 c 0
 1316 343 1318 340 1319 337 c 1
 1320 339 1322 342 1324 344 c 0
 1326 346 1329 348 1331 350 c 0
 1334 352 1336 353 1340 354 c 0
 1344 355 1349 356 1353 356 c 0
 1359 356 1364 355 1369 353 c 0
 1374 351 1378 349 1381 346 c 0
 1385 342 1387 337 1389 331 c 0
 1391 325 1392 317 1392 309 c 2
 1392 180 l 1
 1364 180 l 1
 1364 309 l 2
 1364 313 1364 316 1363 319 c 0
 1362 322 1361 324 1359 326 c 0
 1357 328 1356 329 1353 330 c 0
 1351 331 1347 331 1344 331 c 0
 1340 331 1338 330 1335 329 c 0
 1332 328 1330 328 1328 326 c 0
 1326 324 1325 322 1324 320 c 0
 1323 318 1323 316 1323 313 c 0
 1323 312 1323 312 1323 311 c 0
 1323 311 1323 310 1323 309 c 2
 1323 180 l 1
 1294 180 l 1
 1294 310 l 2
 1294 314 1294 316 1293 319 c 0
 1292 322 1292 324 1290 326 c 0
 1288 328 1285 329 1283 330 c 0
 1281 331 1278 331 1275 331 c 0
 1271 331 1269 331 1266 330 c 0
 1263 329 1261 327 1259 326 c 0
 1258 325 1257 323 1256 322 c 0
 1255 321 1254 319 1253 317 c 2
 1253 180 l 1
 1225 180 l 1
 1225 353 l 1
 1252 353 l 1
EndSplineSet
Validated: 1
EndChar

StartChar: V
Encoding: 86 86 27
Width: 1222
Flags: HW
HStem: 180 25<253 312 341 397 482 554 713 779 870 941> 329 23<253 312 485 549 635 680 709 775 874 937 1106 1170> 380 34<312 339>
VStem: 312 29<205 326 385 414> 439 30<215 316> 560 28<210 234 292 321> 680 30<205 329 352 393> 827 29<216 314> 954 29<216 314> 1056 30<180 313 324 352>
LayerCount: 2
Fore
SplineSet
110 180 m 1
 37 411 l 1
 68 411 l 1
 119 238 l 1
 123 227 l 1
 126 239 l 1
 177 411 l 1
 209 411 l 1
 136 180 l 1
 110 180 l 1
253 352 m 1
 341 352 l 1
 341 205 l 1
 397 205 l 1
 397 180 l 1
 253 180 l 1
 253 205 l 1
 312 205 l 1
 312 326 l 1
 253 326 l 1
 253 352 l 1
308 397 m 0
 308 400 308 402 309 404 c 0
 310 406 311 408 313 410 c 0
 314 411 316 412 318 413 c 0
 320 414 323 414 326 414 c 0
 329 414 331 414 333 413 c 0
 335 412 337 411 338 410 c 0
 340 409 341 406 342 404 c 0
 343 402 343 400 343 397 c 0
 343 392 342 388 339 385 c 0
 336 382 332 380 326 380 c 0
 320 380 315 382 312 385 c 0
 309 388 308 392 308 397 c 0
518 200 m 0
 523 200 528 201 533 203 c 0
 538 205 543 207 547 210 c 0
 551 213 554 216 556 220 c 0
 558 224 560 229 560 234 c 1
 588 234 l 1
 588 226 586 219 582 212 c 0
 578 205 572 199 566 194 c 0
 560 189 552 184 544 181 c 0
 536 178 527 176 518 176 c 0
 505 176 493 178 483 183 c 0
 473 188 465 194 459 202 c 0
 452 210 447 219 444 229 c 0
 441 239 439 251 439 262 c 2
 439 269 l 2
 439 280 441 291 444 301 c 0
 447 311 452 321 459 329 c 0
 465 337 473 343 483 348 c 0
 493 353 505 355 518 355 c 0
 528 355 538 353 546 350 c 0
 555 347 562 343 568 337 c 0
 574 331 579 325 582 317 c 0
 585 309 588 301 588 292 c 1
 560 292 l 1
 560 297 558 302 556 307 c 0
 554 312 551 316 547 319 c 0
 543 322 539 326 534 328 c 0
 529 330 524 331 518 331 c 0
 509 331 501 329 495 325 c 0
 489 321 484 317 480 311 c 0
 476 305 473 298 471 291 c 0
 469 284 469 276 469 269 c 2
 469 262 l 2
 469 254 469 247 471 240 c 0
 473 233 476 226 480 220 c 0
 484 214 488 210 494 206 c 0
 500 202 509 200 518 200 c 0
709 393 m 1
 709 352 l 1
 775 352 l 1
 775 329 l 1
 709 329 l 1
 709 235 l 2
 709 228 710 223 712 219 c 0
 714 215 716 211 719 208 c 0
 722 205 725 204 729 203 c 0
 733 202 738 201 742 201 c 0
 745 201 748 202 751 202 c 0
 754 202 758 202 761 203 c 0
 764 204 767 204 770 205 c 0
 773 206 775 206 777 206 c 1
 782 186 l 2
 780 185 776 183 773 182 c 0
 770 181 765 180 761 179 c 0
 757 178 753 177 748 177 c 0
 743 177 739 176 734 176 c 0
 726 176 720 178 713 180 c 0
 706 182 701 185 696 190 c 0
 691 195 687 201 684 208 c 0
 681 216 680 224 680 235 c 2
 680 329 l 1
 635 329 l 1
 635 352 l 1
 680 352 l 1
 680 393 l 1
 709 393 l 1
827 267 m 2
 827 279 829 291 833 302 c 0
 837 313 841 321 848 329 c 0
 855 337 863 344 873 348 c 0
 883 353 893 355 905 355 c 0
 917 355 928 353 938 348 c 0
 948 344 956 337 963 329 c 0
 970 321 974 313 978 302 c 0
 982 291 984 279 984 267 c 2
 984 264 l 2
 984 252 982 240 978 229 c 0
 974 218 970 209 963 201 c 0
 956 193 948 187 938 183 c 0
 928 179 918 176 906 176 c 0
 894 176 883 179 873 183 c 0
 863 187 855 193 848 201 c 0
 841 209 837 218 833 229 c 0
 829 240 827 252 827 264 c 2
 827 267 l 2
857 264 m 2
 857 256 858 247 860 239 c 0
 862 231 865 225 869 219 c 0
 873 213 878 208 884 205 c 0
 890 202 898 200 906 200 c 0
 914 200 921 202 927 205 c 0
 933 208 938 213 942 219 c 0
 946 225 949 231 951 239 c 0
 953 247 954 256 954 264 c 2
 954 267 l 2
 954 275 953 283 951 291 c 0
 949 299 946 305 942 311 c 0
 938 317 933 322 927 325 c 0
 921 328 913 331 905 331 c 0
 897 331 890 328 884 325 c 0
 878 322 873 317 869 311 c 0
 865 305 862 299 860 291 c 0
 858 283 857 275 857 267 c 2
 857 264 l 2
1144 355 m 0
 1149 355 1155 355 1161 354 c 0
 1167 353 1171 352 1174 351 c 2
 1170 322 l 1
 1164 323 1159 324 1154 325 c 0
 1149 326 1143 325 1137 325 c 0
 1130 325 1124 325 1118 323 c 0
 1112 321 1107 318 1103 315 c 0
 1099 312 1095 308 1092 304 c 0
 1089 300 1087 295 1085 290 c 2
 1085 180 l 1
 1056 180 l 1
 1056 352 l 1
 1084 352 l 1
 1085 328 l 1
 1085 324 l 1
 1092 333 1100 341 1110 346 c 0
 1120 352 1131 355 1144 355 c 0
EndSplineSet
Validated: 1
EndChar

StartChar: W
Encoding: 87 87 28
Width: 1445
Flags: HW
HStem: 111 26<1235 1271> 180 26<455 514 544 600 681 760 1078 1160> 258 24<1064 1157> 327 26<295 362 455 514 684 756 1077 1147> 381 34<515 541> 405 20G<255 284 844 873>
VStem: 255 30<180 321 327 425> 368 30<180 325> 514 30<206 327 386 416> 653 30<206 233 287 327> 762 30<206 247 302 324> 844 30<180 240 275 425> 1033 30<219 258> 1157 30<282 320>
LayerCount: 2
Fore
SplineSet
71 180 m 1xf3fc
 42 413 l 1
 70 413 l 1
 87 252 l 1
 88 243 l 1
 90 253 l 1
 118 413 l 1
 144 413 l 1
 172 253 l 1
 174 243 l 1
 175 253 l 1
 191 413 l 1
 219 413 l 1
 191 180 l 1
 161 180 l 1
 133 346 l 1
 131 355 l 1
 129 345 l 1
 101 180 l 1
 71 180 l 1xf3fc
284 327 m 1
 286 331 289 334 292 337 c 0
 295 340 298 343 301 345 c 0
 306 349 312 351 318 353 c 0
 324 355 330 356 337 356 c 0
 346 356 355 355 362 352 c 0
 369 349 376 346 381 340 c 0
 386 334 390 328 393 319 c 0
 396 311 397 301 397 289 c 2
 397 180 l 1
 368 180 l 1
 368 289 l 2
 368 296 367 302 365 307 c 0
 363 312 361 317 358 320 c 0
 355 324 351 326 346 328 c 0
 341 330 335 331 329 331 c 0
 324 331 319 330 314 329 c 0
 309 328 304 325 300 322 c 0
 297 320 294 318 291 315 c 0
 288 312 286 309 284 306 c 2
 284 180 l 1
 255 180 l 1
 255 425 l 1
 284 425 l 1xf7fc
 284 327 l 1
455 353 m 1
 544 353 l 1
 544 206 l 1
 600 206 l 1
 600 180 l 1
 455 180 l 1
 455 206 l 1
 514 206 l 1
 514 327 l 1
 455 327 l 1
 455 353 l 1
510 398 m 0
 510 401 510 403 511 405 c 0
 512 407 513 409 515 411 c 0
 516 412 519 413 521 414 c 0
 523 415 525 416 528 416 c 0
 531 416 533 415 535 414 c 0
 537 413 540 412 541 411 c 0
 543 410 543 408 544 406 c 0
 545 404 546 401 546 398 c 0
 546 393 544 389 541 386 c 0
 538 383 534 381 528 381 c 0xfbfc
 522 381 518 383 515 386 c 0
 512 389 510 393 510 398 c 0
762 226 m 0
 762 230 761 233 760 236 c 0
 759 239 756 241 753 243 c 0
 750 245 745 248 740 250 c 0
 735 252 727 253 719 255 c 0
 709 257 700 259 692 262 c 0
 684 265 677 269 671 273 c 0
 665 277 661 282 658 287 c 0
 655 292 653 299 653 306 c 0
 653 313 655 319 658 325 c 0
 661 331 666 336 672 341 c 0
 678 346 685 349 693 352 c 0
 701 355 710 356 720 356 c 0
 731 356 740 355 749 352 c 0
 758 349 765 345 771 340 c 0
 777 335 782 330 785 323 c 0
 788 317 790 310 790 302 c 1
 760 302 l 1
 760 306 759 309 757 313 c 0
 755 317 752 320 749 323 c 0
 746 326 742 327 737 329 c 0
 732 331 726 332 720 332 c 0
 714 332 709 331 704 330 c 0
 699 329 695 326 692 324 c 0
 689 322 687 319 685 316 c 0
 683 313 683 310 683 307 c 0
 683 304 684 300 685 297 c 0
 686 294 688 292 691 290 c 0
 694 288 699 287 704 285 c 0
 709 283 716 282 724 280 c 0
 735 278 744 275 752 272 c 0
 760 269 768 265 774 261 c 0
 780 257 784 252 787 247 c 0
 790 242 791 235 791 228 c 0
 791 220 790 213 786 207 c 0
 783 201 778 195 772 191 c 0
 766 187 758 183 749 181 c 0
 740 179 731 177 721 177 c 0
 709 177 699 179 690 182 c 0
 681 185 673 189 667 194 c 0
 661 199 655 205 652 212 c 0
 649 219 647 226 647 233 c 1
 677 233 l 1
 677 227 679 222 682 218 c 0
 685 214 688 211 692 208 c 0
 696 205 701 204 706 203 c 0
 711 202 716 201 721 201 c 0
 729 201 736 202 742 204 c 0
 748 206 753 209 756 212 c 0
 758 214 759 216 760 218 c 0
 761 220 762 223 762 226 c 0
895 261 m 1
 873 240 l 1
 873 180 l 1
 844 180 l 1
 844 425 l 1
 873 425 l 1xf7fc
 873 275 l 1
 893 296 l 1
 949 353 l 1
 985 353 l 1
 915 281 l 1
 996 180 l 1
 958 180 l 1
 895 261 l 1
1116 177 m 0
 1104 177 1092 179 1082 183 c 0
 1072 187 1063 194 1056 201 c 0
 1049 208 1043 217 1039 227 c 0
 1035 237 1033 249 1033 261 c 2
 1033 267 l 2
 1033 281 1036 294 1040 305 c 0
 1044 316 1051 325 1058 333 c 0
 1065 341 1074 346 1083 350 c 0
 1092 354 1102 356 1112 356 c 0
 1124 356 1135 354 1144 350 c 0
 1153 346 1162 340 1168 332 c 0
 1174 324 1178 315 1181 305 c 0
 1184 295 1186 283 1186 271 c 2
 1186 258 l 1
 1063 258 l 1
 1063 257 l 2
 1064 249 1065 241 1068 235 c 0
 1071 229 1074 223 1079 218 c 0
 1084 213 1088 209 1095 206 c 0
 1102 203 1109 201 1117 201 c 0
 1128 201 1137 204 1145 208 c 0
 1153 212 1161 218 1166 225 c 1
 1184 210 l 1
 1178 201 1169 194 1158 187 c 0
 1147 180 1133 177 1116 177 c 0
1112 332 m 0
 1106 332 1100 331 1095 329 c 0
 1090 327 1085 323 1081 319 c 0
 1077 315 1073 309 1070 303 c 0
 1067 297 1065 290 1064 282 c 1
 1157 282 l 1
 1157 284 l 2
 1157 289 1156 295 1154 301 c 0
 1152 307 1149 313 1145 317 c 0
 1141 321 1137 325 1131 328 c 0
 1126 331 1120 332 1112 332 c 0
1250 111 m 0
 1247 111 1244 111 1240 112 c 0
 1236 113 1233 113 1231 113 c 2
 1236 137 l 2
 1239 137 1241 137 1244 137 c 0
 1247 137 1249 136 1250 136 c 0
 1254 136 1258 138 1261 140 c 0
 1264 142 1267 145 1270 148 c 0
 1273 151 1275 154 1277 157 c 0
 1279 160 1280 164 1281 166 c 2
 1293 188 l 1
 1219 353 l 1
 1252 353 l 1
 1299 242 l 1
 1307 221 l 1
 1315 241 l 1
 1359 353 l 1
 1392 353 l 1
 1305 154 l 2
 1303 150 1300 145 1297 140 c 0
 1294 135 1290 130 1286 126 c 0
 1282 122 1276 118 1270 115 c 0
 1264 112 1258 111 1250 111 c 0
EndSplineSet
Validated: 1
EndChar

StartChar: X
Encoding: 88 88 29
Width: 835
Flags: HW
HStem: 110 26<637 674> 176 26<473 539> 263 21<478 550> 275 24<275 322> 332 24<478 542> 388 24<275 350>
VStem: 246 29<180 275 299 388> 363 30<310 377> 439 30<206 256 305 324> 550 30<180 182 212 263 284 325>
LayerCount: 2
Fore
SplineSet
120 321 m 1xcfc0
 171 412 l 1
 205 412 l 1
 138 297 l 1
 207 180 l 1
 172 180 l 1
 121 273 l 1
 69 180 l 1
 34 180 l 1
 104 297 l 1
 36 412 l 1
 71 412 l 1
 120 321 l 1xcfc0
322 275 m 1xdfc0
 275 275 l 1
 275 180 l 1
 246 180 l 1
 246 412 l 1
 314 412 l 2
 325 412 335 411 345 408 c 0
 355 405 363 401 370 395 c 0
 377 389 383 382 387 373 c 0
 391 364 393 354 393 342 c 0
 393 334 392 328 390 322 c 0
 388 316 385 310 381 305 c 0
 377 300 372 295 367 291 c 0
 362 287 356 284 350 281 c 1
 399 182 l 1
 399 180 l 1
 368 180 l 1
 322 275 l 1xdfc0
275 299 m 1
 315 299 l 2
 322 299 328 300 334 302 c 0
 340 304 345 306 349 310 c 0
 353 314 357 319 360 324 c 0
 363 329 363 336 363 343 c 0
 363 350 362 356 360 362 c 0
 358 368 354 372 350 376 c 0
 346 380 340 383 334 385 c 0
 328 387 321 388 314 388 c 2
 275 388 l 1
 275 299 l 1
555 180 m 2
 554 182 553 185 552 188 c 0
 551 191 551 194 551 198 c 1
 548 195 545 193 541 190 c 0
 537 187 533 185 529 183 c 0
 525 181 520 179 515 178 c 0
 510 177 505 176 499 176 c 0
 490 176 481 177 474 180 c 0
 467 183 460 186 455 191 c 0
 450 195 446 201 443 207 c 0
 440 213 439 221 439 228 c 0
 439 237 440 245 444 252 c 0
 448 259 453 265 460 270 c 0
 467 275 475 279 485 281 c 0
 495 283 506 284 518 284 c 2
 550 284 l 1xefc0
 550 298 l 2
 550 303 549 308 547 312 c 0
 545 316 543 320 539 323 c 0
 535 326 531 328 526 330 c 0
 521 332 515 332 509 332 c 0
 503 332 499 331 494 330 c 0
 489 329 485 326 482 324 c 0
 479 322 476 318 474 315 c 0
 472 312 472 309 472 305 c 1
 442 305 l 1
 442 311 444 317 447 323 c 0
 450 329 455 335 461 340 c 0
 467 345 474 348 482 351 c 0
 491 354 500 356 511 356 c 0
 521 356 530 354 538 352 c 0
 546 350 554 346 560 341 c 0
 566 336 571 330 575 323 c 0
 579 316 580 308 580 298 c 2
 580 217 l 2
 580 211 580 205 581 199 c 0
 582 193 584 187 586 182 c 2
 586 180 l 1
 555 180 l 2
503 202 m 0
 509 202 514 203 519 204 c 0
 524 205 529 208 533 210 c 0
 537 212 540 216 543 219 c 0
 546 222 548 225 550 228 c 2
 550 263 l 1
 523 263 l 2
 513 263 504 263 496 261 c 0
 488 259 482 257 478 253 c 0
 475 250 473 248 471 244 c 0
 469 240 468 236 468 232 c 0
 468 228 469 224 470 220 c 0
 471 216 474 214 477 211 c 0
 480 208 484 205 488 204 c 0
 492 203 497 202 503 202 c 0
652 110 m 0
 649 110 646 110 642 111 c 0
 638 112 636 112 634 112 c 2
 639 136 l 2
 642 136 643 136 646 136 c 0
 649 136 652 136 653 136 c 0
 657 136 661 137 664 139 c 0
 667 141 670 144 673 147 c 0
 676 150 677 154 679 157 c 0
 681 160 683 163 684 165 c 2
 696 188 l 1
 621 353 l 1
 654 353 l 1
 702 241 l 1
 709 220 l 1
 718 240 l 1
 762 353 l 1
 795 353 l 1
 707 153 l 2
 705 149 703 144 700 139 c 0
 697 134 692 129 688 125 c 0
 684 121 679 117 673 114 c 0
 667 111 660 110 652 110 c 0
EndSplineSet
Validated: 1
EndChar

StartChar: Y
Encoding: 89 89 30
Width: 1251
Flags: HW
HStem: 176 24<298 360 901 972 1098 1169> 258 24<295 374 881 974 1078 1172> 333 24<301 366 507 566 900 959 1097 1156> 393 20G<49 92 180 223>
VStem: 122 28<180 267> 262 30<207 256 305 325> 374 30<180 182 212 264 285 326> 462 30<180 322 328 353> 575 30<180 325> 660 30<180 240 275 426> 850 30<219 258> 974 30<282 320> 1048 30<219 258> 1172 30<282 320>
LayerCount: 2
Fore
SplineSet
136 296 m 1
 189 413 l 1
 223 413 l 1
 150 267 l 1
 150 180 l 1
 122 180 l 1
 122 267 l 1
 49 413 l 1
 83 413 l 1
 136 296 l 1
379 180 m 2
 378 182 377 185 376 188 c 0
 375 191 374 195 374 199 c 1
 371 196 368 193 364 190 c 0
 360 187 356 185 352 183 c 0
 348 181 343 179 338 178 c 0
 333 177 328 176 322 176 c 0
 313 176 304 178 297 181 c 0
 290 184 283 186 278 191 c 0
 273 195 269 201 266 207 c 0
 263 213 262 221 262 228 c 0
 262 238 263 246 267 253 c 0
 271 260 277 266 284 271 c 0
 291 276 299 279 309 281 c 0
 319 283 329 285 341 285 c 2
 374 285 l 1
 374 299 l 2
 374 304 373 309 371 313 c 0
 369 317 367 320 363 323 c 0
 359 326 355 328 350 330 c 0
 345 332 339 333 333 333 c 0
 327 333 322 331 317 330 c 0
 312 329 308 326 305 324 c 0
 302 322 300 319 298 316 c 0
 296 313 295 309 295 305 c 1
 265 305 l 1
 265 311 267 318 270 324 c 0
 273 330 278 335 284 340 c 0
 290 345 297 349 305 352 c 0
 314 355 323 357 334 357 c 0
 344 357 354 355 362 353 c 0
 370 351 378 347 384 342 c 0
 390 337 394 331 398 324 c 0
 402 317 404 308 404 298 c 2
 404 218 l 2
 404 212 404 206 405 199 c 0
 406 193 408 187 410 182 c 2
 410 180 l 1
 379 180 l 2
326 202 m 0
 332 202 337 204 342 205 c 0
 347 207 352 209 356 211 c 0
 360 213 364 216 367 219 c 0
 370 222 372 226 374 229 c 2
 374 264 l 1
 346 264 l 2
 336 264 327 263 319 261 c 0
 311 259 305 257 301 253 c 0
 298 250 296 248 294 244 c 0
 292 240 291 236 291 232 c 0
 291 228 292 224 293 220 c 0
 295 216 297 214 300 211 c 0
 303 208 307 207 311 205 c 0
 315 204 320 202 326 202 c 0
462 180 m 1
 462 353 l 1
 489 353 l 1
 491 328 l 1
 494 332 496 335 499 338 c 0
 502 341 506 344 509 346 c 0
 514 349 519 351 525 353 c 0
 531 355 538 357 545 357 c 0
 554 357 562 356 569 353 c 0
 576 350 584 346 589 341 c 0
 594 336 598 328 601 320 c 0
 604 312 605 302 605 290 c 2
 605 180 l 1
 575 180 l 1
 575 289 l 2
 575 297 575 304 573 309 c 0
 571 314 568 319 565 322 c 0
 562 325 558 327 553 329 c 0
 548 330 542 331 536 331 c 0
 531 331 526 331 521 329 c 0
 516 328 512 326 508 323 c 0
 505 321 502 317 499 314 c 0
 496 311 494 308 492 304 c 2
 492 180 l 1
 462 180 l 1
711 261 m 1
 689 240 l 1
 689 180 l 1
 660 180 l 1
 660 426 l 1
 689 426 l 1
 689 275 l 1
 709 296 l 1
 766 353 l 1
 802 353 l 1
 732 281 l 1
 813 180 l 1
 775 180 l 1
 711 261 l 1
933 176 m 0
 921 176 910 179 900 183 c 0
 890 187 880 193 873 200 c 0
 866 207 860 217 856 227 c 0
 852 237 850 248 850 260 c 2
 850 267 l 2
 850 281 853 294 857 305 c 0
 861 316 868 325 875 333 c 0
 882 341 891 346 900 350 c 0
 910 354 919 357 929 357 c 0
 942 357 953 354 962 350 c 0
 971 346 980 340 986 332 c 0
 992 324 996 315 999 305 c 0
 1002 295 1004 283 1004 271 c 2
 1004 258 l 1
 880 258 l 1
 880 257 l 2
 881 249 882 241 885 235 c 0
 888 229 891 223 896 218 c 0
 901 213 906 208 913 205 c 0
 920 202 927 201 935 201 c 0
 946 201 955 203 963 207 c 0
 971 211 979 217 984 224 c 1
 1002 210 l 1
 996 201 988 194 976 187 c 0
 965 180 950 176 933 176 c 0
929 332 m 0
 923 332 917 331 912 329 c 0
 907 327 902 323 898 319 c 0
 894 315 890 310 887 304 c 0
 884 298 882 290 881 282 c 1
 974 282 l 1
 974 284 l 2
 974 289 973 295 971 301 c 0
 969 307 967 313 963 317 c 0
 959 321 955 325 949 328 c 0
 944 331 937 332 929 332 c 0
1131 176 m 0
 1119 176 1107 179 1097 183 c 0
 1087 187 1078 193 1071 200 c 0
 1064 207 1058 217 1054 227 c 0
 1050 237 1048 248 1048 260 c 2
 1048 267 l 2
 1048 281 1050 294 1054 305 c 0
 1058 316 1065 325 1072 333 c 0
 1079 341 1089 346 1098 350 c 0
 1108 354 1117 357 1127 357 c 0
 1140 357 1151 354 1160 350 c 0
 1169 346 1177 340 1183 332 c 0
 1189 324 1194 315 1197 305 c 0
 1200 295 1201 283 1201 271 c 2
 1201 258 l 1
 1077 258 l 1
 1077 257 l 2
 1078 249 1079 241 1082 235 c 0
 1085 229 1088 223 1093 218 c 0
 1098 213 1103 208 1110 205 c 0
 1117 202 1124 201 1132 201 c 0
 1143 201 1152 203 1160 207 c 0
 1168 211 1176 217 1181 224 c 1
 1199 210 l 1
 1193 201 1185 194 1173 187 c 0
 1162 180 1148 176 1131 176 c 0
1127 332 m 0
 1121 332 1115 331 1110 329 c 0
 1105 327 1099 323 1095 319 c 0
 1091 315 1087 310 1084 304 c 0
 1081 298 1079 290 1078 282 c 1
 1172 282 l 1
 1172 284 l 2
 1172 289 1171 295 1169 301 c 0
 1167 307 1164 313 1160 317 c 0
 1156 321 1152 325 1146 328 c 0
 1141 331 1135 332 1127 332 c 0
EndSplineSet
Validated: 1
EndChar

StartChar: Z
Encoding: 90 90 31
Width: 829
Flags: HW
HStem: 180 25<72 193 281 347 446 505 535 591 674 741> 387 25<41 155> 399 26<446 505>
VStem: 246 30<206 353> 356 30<180 203 210 353> 505 30<205 399> 639 30<206 353> 749 30<180 203 210 353>
LayerCount: 2
Fore
SplineSet
72 205 m 1xdf
 193 205 l 1
 193 180 l 1
 39 180 l 1
 39 203 l 1
 155 387 l 1
 41 387 l 1
 41 412 l 1
 188 412 l 1
 189 390 l 1
 72 205 l 1xdf
359 180 m 1
 357 203 l 1
 351 194 345 188 336 183 c 0
 327 178 317 176 306 176 c 0
 297 176 288 178 281 181 c 0
 274 184 267 188 262 194 c 0
 257 200 253 208 250 217 c 0
 247 226 246 237 246 250 c 2
 246 353 l 1
 275 353 l 1
 275 249 l 2
 275 240 277 232 278 226 c 0
 279 220 281 215 284 211 c 0
 287 207 291 205 295 204 c 0
 299 203 304 201 310 201 c 0
 317 201 323 203 328 204 c 0
 333 206 338 207 342 210 c 0
 345 212 348 215 350 218 c 0
 352 221 354 224 356 228 c 2
 356 353 l 1
 386 353 l 1
 386 180 l 1
 359 180 l 1
446 425 m 1xbf
 535 425 l 1
 535 205 l 1
 591 205 l 1
 591 180 l 1
 446 180 l 1
 446 205 l 1
 505 205 l 1
 505 399 l 1
 446 399 l 1
 446 425 l 1xbf
752 180 m 1
 750 203 l 1
 744 194 738 188 729 183 c 0
 720 178 710 176 699 176 c 0
 690 176 681 178 674 181 c 0
 667 184 660 188 655 194 c 0
 650 200 646 208 643 217 c 0
 640 226 639 237 639 250 c 2
 639 353 l 1
 669 353 l 1
 669 249 l 2
 669 240 670 232 671 226 c 0
 672 220 675 215 678 211 c 0
 681 207 684 205 688 204 c 0
 692 203 697 201 703 201 c 0
 710 201 716 203 721 204 c 0
 726 206 731 207 735 210 c 0
 738 212 741 215 743 218 c 0
 745 221 747 224 749 228 c 2
 749 353 l 1
 779 353 l 1
 779 180 l 1
 752 180 l 1
EndSplineSet
Validated: 1
EndChar

StartChar: space
Encoding: 32 32 32
Width: 1386
Flags: HW
HStem: 178 24<276 346 469 529 658 718 861 923 1057 1126> 258 24<655 733 1037 1129> 331 24<278 341 470 529 661 725 861 922 1055 1115>
VStem: 73 29<190 357> 244 29<206 234 287 326> 351 29<207 247 302 323> 431 29<116 198 209 323 333 352> 546 29<217 316> 623 29<208 257 305 324> 733 29<181 184 213 264 285 325> 814 29<216 317> 934 28<211 235 293 321> 1007 29<220 258> 1129 29<282 320> 1284 29<190 358>
LayerCount: 2
Fore
SplineSet
73 274 m 2
 73 289 74 304 76 317 c 0
 78 330 82 343 86 354 c 0
 90 365 94 376 99 385 c 0
 104 394 110 403 116 410 c 0
 122 417 127 423 133 428 c 0
 139 433 145 437 150 440 c 1
 156 421 l 2
 153 418 149 416 146 412 c 0
 143 408 139 404 136 400 c 0
 131 393 126 385 122 376 c 0
 118 367 114 357 111 346 c 0
 108 336 106 325 104 313 c 0
 102 301 102 289 102 275 c 2
 102 273 l 2
 102 260 103 247 104 236 c 0
 105 225 107 214 110 204 c 0
 113 194 116 185 120 177 c 0
 124 169 127 161 131 154 c 0
 135 148 139 143 143 138 c 0
 147 133 152 128 156 125 c 1
 150 107 l 1
 145 110 139 114 133 119 c 0
 127 124 122 131 116 138 c 0
 110 145 104 154 99 163 c 0
 94 172 90 183 86 194 c 0
 82 205 78 218 76 231 c 0
 74 244 73 258 73 273 c 2
 73 274 l 2
351 227 m 0
 351 230 350 233 349 236 c 0
 348 239 345 242 342 244 c 0
 339 246 334 248 329 250 c 0
 324 252 317 253 309 255 c 0
 299 257 290 260 282 263 c 0
 274 266 268 269 262 273 c 0
 256 277 251 281 248 286 c 0
 245 291 244 298 244 305 c 0
 244 312 246 318 249 324 c 0
 252 330 256 335 262 340 c 0
 268 345 275 348 283 351 c 0
 291 354 300 355 310 355 c 0
 321 355 331 354 339 351 c 0
 347 348 354 345 360 340 c 0
 366 335 371 330 374 323 c 0
 377 317 378 309 378 302 c 1
 349 302 l 1
 349 306 348 309 346 312 c 0
 344 316 342 319 339 322 c 0
 336 325 331 327 326 329 c 0
 321 331 316 331 310 331 c 0
 304 331 299 330 294 329 c 0
 289 328 285 326 282 324 c 0
 279 322 277 318 275 315 c 0
 273 312 273 309 273 306 c 0
 273 303 274 300 275 297 c 0
 276 294 278 292 281 290 c 0
 284 288 289 286 294 284 c 0
 299 282 305 281 313 279 c 0
 324 277 334 275 342 272 c 0
 350 269 357 265 363 261 c 0
 369 257 373 252 376 247 c 0
 379 242 380 236 380 229 c 0
 380 221 378 214 375 208 c 0
 372 202 367 196 361 192 c 0
 355 188 348 184 339 182 c 0
 330 180 321 178 311 178 c 0
 299 178 289 180 280 183 c 0
 271 186 263 190 257 195 c 0
 251 200 246 206 243 213 c 0
 240 220 238 227 238 234 c 1
 267 234 l 1
 267 228 269 223 272 219 c 0
 275 215 278 212 282 209 c 0
 286 206 291 204 296 203 c 0
 301 202 306 202 311 202 c 0
 319 202 325 203 331 205 c 0
 337 207 342 209 345 212 c 0
 347 214 348 217 349 219 c 0
 350 221 351 224 351 227 c 0
431 116 m 1
 431 352 l 1
 458 352 l 1
 459 333 l 1
 461 336 464 339 467 341 c 0
 470 343 473 345 476 347 c 0
 480 350 485 352 490 353 c 0
 495 354 502 355 508 355 c 0
 519 355 529 353 537 349 c 0
 545 345 552 339 558 331 c 0
 564 323 568 314 571 303 c 0
 574 292 575 281 575 268 c 2
 575 265 l 2
 575 253 574 242 571 231 c 0
 568 220 564 211 558 203 c 0
 552 195 545 189 537 185 c 0
 529 181 519 178 508 178 c 0
 501 178 496 179 490 180 c 0
 484 181 480 183 475 186 c 0
 472 188 469 189 467 191 c 0
 465 193 463 196 461 198 c 1
 461 116 l 1
 431 116 l 1
546 268 m 2
 546 276 545 285 543 292 c 0
 541 300 539 306 535 312 c 0
 531 318 526 322 520 325 c 0
 514 328 507 330 499 330 c 0
 494 330 491 330 487 329 c 0
 483 328 479 326 476 324 c 0
 473 322 470 320 467 317 c 0
 464 314 463 311 461 307 c 2
 461 225 l 2
 463 222 465 219 467 216 c 0
 469 213 472 211 475 209 c 0
 478 207 482 205 486 204 c 0
 490 203 495 202 500 202 c 0
 508 202 515 204 521 207 c 0
 527 210 531 215 535 221 c 0
 539 227 541 233 543 241 c 0
 545 249 546 257 546 265 c 2
 546 268 l 2
737 181 m 2
 736 183 736 187 735 190 c 0
 734 193 733 196 733 200 c 1
 730 197 727 195 723 192 c 0
 719 189 715 187 711 185 c 0
 707 183 702 181 697 180 c 0
 692 179 688 178 682 178 c 0
 673 178 664 179 657 182 c 0
 650 185 644 188 639 193 c 0
 634 197 630 203 627 209 c 0
 624 215 623 222 623 229 c 0
 623 238 624 246 628 253 c 0
 632 260 637 266 644 271 c 0
 651 276 659 279 669 281 c 0
 679 283 689 285 701 285 c 2
 733 285 l 1
 733 298 l 2
 733 303 732 308 730 312 c 0
 728 316 725 320 722 323 c 0
 719 326 714 327 709 329 c 0
 704 331 698 332 692 332 c 0
 686 332 682 330 677 329 c 0
 672 328 668 326 665 324 c 0
 662 322 660 318 658 315 c 0
 656 312 655 309 655 305 c 1
 626 305 l 1
 626 311 628 317 631 323 c 0
 634 329 638 334 644 339 c 0
 650 344 657 348 665 351 c 0
 673 354 683 355 694 355 c 0
 704 355 713 353 721 351 c 0
 729 349 736 346 742 341 c 0
 748 336 754 330 757 323 c 0
 760 316 762 308 762 298 c 2
 762 219 l 2
 762 213 762 206 763 200 c 0
 764 194 766 189 768 184 c 2
 768 181 l 1
 737 181 l 2
686 204 m 0
 692 204 697 205 702 206 c 0
 707 207 711 210 715 212 c 0
 719 214 723 217 726 220 c 0
 729 223 731 227 733 230 c 2
 733 264 l 1
 706 264 l 2
 696 264 687 263 679 261 c 0
 672 259 665 258 661 254 c 0
 658 251 656 248 654 245 c 0
 652 242 652 237 652 233 c 0
 652 229 653 225 654 221 c 0
 655 217 657 215 660 212 c 0
 663 209 667 207 671 206 c 0
 675 205 680 204 686 204 c 0
892 202 m 0
 897 202 902 202 907 204 c 0
 912 206 917 208 921 211 c 0
 925 214 928 218 930 222 c 0
 932 226 934 230 934 235 c 1
 961 235 l 1
 961 227 959 220 955 213 c 0
 951 206 946 200 940 195 c 0
 934 190 926 186 918 183 c 0
 910 180 901 178 892 178 c 0
 879 178 868 180 858 185 c 0
 848 190 840 196 834 204 c 0
 827 212 822 221 819 231 c 0
 816 241 814 252 814 263 c 2
 814 270 l 2
 814 281 816 292 819 302 c 0
 822 312 827 321 834 329 c 0
 840 337 848 343 858 348 c 0
 868 353 879 355 892 355 c 0
 902 355 912 353 920 350 c 0
 929 347 936 342 942 337 c 0
 948 331 953 326 956 318 c 0
 959 310 961 302 961 293 c 1
 934 293 l 1
 934 298 932 303 930 308 c 0
 928 313 925 317 921 320 c 0
 917 323 913 326 908 328 c 0
 903 330 898 331 892 331 c 0
 883 331 875 330 869 326 c 0
 863 322 858 318 854 312 c 0
 850 306 848 299 846 292 c 0
 844 285 844 277 844 270 c 2
 844 263 l 2
 844 256 844 248 846 241 c 0
 848 234 850 228 854 222 c 0
 858 216 863 211 869 207 c 0
 875 203 883 202 892 202 c 0
1088 178 m 0
 1076 178 1065 180 1055 184 c 0
 1045 188 1037 195 1030 202 c 0
 1023 209 1017 218 1013 228 c 0
 1009 238 1007 249 1007 261 c 2
 1007 267 l 2
 1007 281 1010 293 1014 304 c 0
 1018 315 1024 324 1031 332 c 0
 1038 339 1047 345 1056 349 c 0
 1065 353 1075 355 1085 355 c 0
 1097 355 1108 353 1117 349 c 0
 1126 345 1134 338 1140 331 c 0
 1146 323 1150 314 1153 304 c 0
 1156 294 1158 283 1158 271 c 2
 1158 258 l 1
 1036 258 l 1
 1036 257 l 2
 1037 249 1038 241 1041 235 c 0
 1044 229 1047 224 1052 219 c 0
 1057 214 1061 209 1068 206 c 0
 1075 203 1082 202 1090 202 c 0
 1100 202 1110 204 1118 208 c 0
 1126 212 1133 218 1138 225 c 1
 1156 211 l 1
 1150 202 1141 195 1130 188 c 0
 1119 181 1105 178 1088 178 c 0
1085 331 m 0
 1079 331 1073 330 1068 328 c 0
 1063 326 1058 322 1054 318 c 0
 1050 314 1046 309 1043 303 c 0
 1040 297 1038 290 1037 282 c 1
 1129 282 l 1
 1129 284 l 2
 1129 289 1128 294 1126 300 c 0
 1124 306 1121 312 1117 316 c 0
 1113 320 1109 324 1104 327 c 0
 1099 330 1092 331 1085 331 c 0
1313 273 m 2
 1313 258 1312 244 1310 231 c 0
 1308 218 1304 205 1300 194 c 0
 1296 183 1291 172 1286 163 c 0
 1281 154 1276 145 1270 138 c 0
 1264 131 1259 124 1253 119 c 0
 1247 114 1241 110 1236 107 c 1
 1230 125 l 1
 1234 128 1238 133 1243 138 c 0
 1248 143 1252 149 1256 156 c 0
 1260 163 1263 170 1267 179 c 0
 1271 188 1274 197 1276 207 c 0
 1278 216 1281 226 1282 237 c 0
 1283 248 1284 260 1284 273 c 2
 1284 275 l 2
 1284 289 1283 301 1281 313 c 0
 1279 325 1278 335 1276 343 c 0
 1273 355 1269 365 1265 374 c 0
 1261 383 1256 391 1251 398 c 0
 1248 403 1245 408 1241 412 c 0
 1237 416 1233 419 1230 422 c 1
 1236 440 l 1
 1241 437 1247 433 1253 428 c 0
 1259 423 1264 417 1270 410 c 0
 1276 403 1282 394 1287 385 c 0
 1292 376 1296 365 1300 354 c 0
 1304 343 1307 331 1309 318 c 0
 1312 305 1313 290 1313 274 c 2
 1313 273 l 2
EndSplineSet
Validated: 1
EndChar

StartChar: periodcentered
Encoding: 183 183 33
Width: 252
Flags: HW
HStem: 177 45<106 140>
VStem: 100 47<183 215>
LayerCount: 2
Fore
SplineSet
100 199 m 0
 100 205 102 211 106 215 c 0
 110 219 115 222 123 222 c 0
 131 222 136 219 140 215 c 0
 144 211 146 205 146 199 c 0
 146 193 144 187 140 183 c 0
 136 179 131 177 123 177 c 0
 115 177 110 179 106 183 c 0
 102 187 100 193 100 199 c 0
EndSplineSet
Validated: 1
EndChar

StartChar: b
Encoding: 98 98 34
Width: 1024
Flags: W
HStem: 176 24<476.02 535.938 874.297 935.703> 263 21<477.859 550> 288 25<78 152.719> 326 30<332.282 385.641> 332 24<477.249 525.765 874.794 934.716> 387 25<78 134.765>
VStem: 48 30<205 288 313 387> 169 30<214.323 279.359 329.285 374.694> 270 29<180 312.759 326 353> 439 29<206.619 256.723 305 326.089> 550 30<180.094 198 211.316 263 284 325.894> 826 30<215.217 315.697> 954 30<215.217 315.697>
LayerCount: 2
Fore
SplineSet
48 180 m 1xeff8
 48 412 l 1
 117 412 l 2
 127 412 136 410 145 408 c 0
 154 406 162 402 169 397 c 0
 176 392 183 386 187 378 c 0
 191 370 193 361 193 350 c 0
 193 344 192 337 190 332 c 0
 188 327 186 324 183 320 c 0
 180 316 176 313 172 310 c 0
 168 307 163 304 157 302 c 1
 163 301 169 298 174 294 c 0
 179 290 184 286 188 282 c 0
 192 277 194 272 196 266 c 0
 198 260 199 254 199 247 c 0
 199 236 197 226 193 218 c 0
 189 210 183 203 176 197 c 0
 169 191 160 187 151 184 c 0
 142 181 132 180 122 180 c 2
 48 180 l 1xeff8
78 288 m 1
 78 205 l 1
 123 205 l 2
 129 205 135 206 141 208 c 0
 147 210 152 212 156 216 c 0
 160 220 164 224 166 229 c 0
 169 234 169 240 169 246 c 0
 169 253 168 258 166 263 c 0
 164 268 161 273 157 277 c 0
 153 281 147 283 142 285 c 0
 137 287 131 288 125 288 c 2
 78 288 l 1
78 313 m 1
 119 313 l 2
 125 313 130 314 135 316 c 0
 140 318 145 320 149 323 c 0
 153 326 157 327 160 332 c 0
 163 337 163 344 163 350 c 0
 163 356 163 362 160 367 c 0
 158 372 154 375 150 378 c 0
 146 381 141 386 135 387 c 0
 130 388 124 387 118 387 c 2
 78 387 l 1
 78 313 l 1
358 356 m 0xf7f8
 363 356 369 356 375 355 c 0
 381 354 386 353 389 352 c 2
 385 323 l 1
 379 324 373 325 368 326 c 0
 363 327 358 326 352 326 c 0
 345 326 338 328 332 326 c 0
 326 324 321 319 317 316 c 0
 313 313 310 309 307 305 c 0
 304 301 301 296 299 291 c 2
 299 180 l 1
 270 180 l 1
 270 353 l 1
 298 353 l 1
 299 329 l 1
 299 326 l 1
 306 335 314 342 324 347 c 0
 334 353 345 356 358 356 c 0xf7f8
555 180 m 2
 554 182 551 185 550 188 c 0
 549 191 550 194 550 198 c 1
 547 195 545 193 541 190 c 0
 537 187 533 185 529 183 c 0
 525 181 520 177 515 176 c 0
 510 175 505 176 499 176 c 0
 490 176 481 177 474 180 c 0
 467 183 460 186 455 191 c 0
 450 195 446 201 443 207 c 0
 440 213 439 221 439 228 c 0
 439 237 440 245 444 252 c 0
 448 259 453 265 460 270 c 0
 467 275 475 279 485 281 c 0
 495 283 506 284 518 284 c 2
 550 284 l 1
 550 298 l 2
 550 303 549 308 547 312 c 0
 545 316 543 320 539 323 c 0
 535 326 531 330 526 332 c 0
 521 334 515 332 509 332 c 0
 503 332 499 333 494 332 c 0xeff8
 489 331 485 328 482 326 c 0xf7f8
 479 324 476 318 474 315 c 0
 472 312 472 309 472 305 c 1
 442 305 l 1
 442 311 444 317 447 323 c 0
 450 329 455 335 461 340 c 0
 467 345 474 348 482 351 c 0
 491 354 500 356 511 356 c 0xeff8
 521 356 530 354 538 352 c 0
 546 350 554 346 560 341 c 0
 566 336 571 330 575 323 c 0
 579 316 580 308 580 298 c 2
 580 217 l 2
 580 211 580 205 581 199 c 0
 582 193 584 185 586 180 c 2
 555 180 l 2
503 202 m 0
 509 202 514 203 519 204 c 0
 524 205 529 208 533 210 c 0
 537 212 540 216 543 219 c 0
 546 222 548 225 550 228 c 2
 550 263 l 1
 523 263 l 2
 513 263 504 265 496 263 c 0
 488 261 482 257 478 253 c 0
 475 250 473 248 471 244 c 0
 469 240 468 236 468 232 c 0
 468 228 469 224 470 220 c 0
 471 216 474 214 477 211 c 0
 480 208 484 205 488 204 c 0
 492 203 497 202 503 202 c 0
697 180 m 1
 626 353 l 1
 656 353 l 1
 706 222 l 1
 709 211 l 1
 711 222 l 1
 760 353 l 1
 790 353 l 1
 720 180 l 1
 697 180 l 1
826 268 m 2
 826 280 828 291 832 302 c 0
 836 313 840 324 847 332 c 0
 854 340 862 345 872 349 c 0
 882 354 893 356 905 356 c 0
 917 356 928 354 938 349 c 0
 948 345 956 340 963 332 c 0
 970 324 974 313 978 302 c 0
 982 291 984 280 984 268 c 2
 984 263 l 2
 984 251 982 240 978 229 c 0
 974 218 970 210 963 202 c 0
 956 194 948 187 938 183 c 0
 928 179 917 176 905 176 c 0
 893 176 882 179 872 183 c 0
 862 187 854 194 847 202 c 0
 840 210 836 218 832 229 c 0
 828 240 826 251 826 263 c 2
 826 268 l 2
856 263 m 2
 856 254 857 248 859 240 c 0
 861 232 864 225 868 219 c 0
 872 213 878 208 884 205 c 0
 890 202 897 200 905 200 c 0
 913 200 920 202 926 205 c 0
 932 208 938 213 942 219 c 0
 946 225 949 232 951 240 c 0
 953 248 954 254 954 263 c 2
 954 268 l 2
 954 276 953 284 951 292 c 0
 949 300 946 306 942 312 c 0
 938 318 932 323 926 326 c 0xf7f8
 920 330 913 332 905 332 c 0xeff8
 897 332 889 330 883 326 c 0xf7f8
 877 323 872 318 868 312 c 0
 864 306 861 300 859 292 c 0
 857 284 856 276 856 268 c 2
 856 263 l 2
EndSplineSet
Validated: 1
EndChar

StartChar: c
Encoding: 99 99 35
Width: 1361
Flags: HW
HStem: 179 24<80 151 452 520 804 860 889 943 992 1049 1077 1131 1213 1292> 254 23<452 527 1199 1289> 320 28<275 339 453 524 678 745 992 1049 1210 1281> 372 33<1049 1075> 382 23<85 146> 390 25<804 860>
VStem: 36 28<218 363> 162 28<212 246 334 368> 235 28<179 314 320 414> 343 28<179 318> 420 28<205 252 299 318> 527 28<179 181 210 259 279 318> 635 28<179 307 318 345> 860 28<204 390> 1049 28<204 320 377 405> 1170 28<217 254> 1289 28<277 313>
LayerCount: 2
Fore
SplineSet
192 246 m 1xebff80
 191 236 188 227 184 218 c 0
 180 209 174 202 168 196 c 0
 162 190 155 184 146 181 c 0
 137 178 127 176 116 176 c 0
 107 176 99 177 91 180 c 0
 84 183 77 186 71 191 c 0
 65 196 60 201 56 207 c 0
 52 213 49 220 46 227 c 0
 43 234 40 242 39 250 c 0
 38 258 37 267 37 275 c 2
 37 306 l 2
 37 314 38 322 39 330 c 0
 40 338 43 347 46 354 c 0
 49 361 52 368 56 374 c 0
 60 380 65 385 71 390 c 0
 77 395 84 398 91 401 c 0
 98 404 107 405 116 405 c 0
 127 405 137 403 146 400 c 0
 155 397 163 391 169 385 c 0
 175 379 180 372 184 363 c 0
 188 354 191 345 192 334 c 1
 163 334 l 1
 162 341 161 346 159 352 c 0
 157 358 154 364 150 368 c 0
 146 372 142 376 136 378 c 0
 131 381 123 382 116 382 c 0
 109 382 104 381 99 379 c 0
 94 377 89 374 85 370 c 0
 81 366 79 361 76 356 c 0
 74 351 72 347 70 341 c 0
 68 335 68 329 67 323 c 0
 66 317 66 312 66 306 c 2
 66 275 l 2
 66 269 66 264 67 258 c 0
 68 252 68 247 70 241 c 0
 72 235 74 230 76 225 c 0
 78 220 81 215 85 211 c 0
 89 207 94 204 99 202 c 0
 104 200 109 199 116 199 c 0
 123 199 131 200 136 202 c 0
 142 204 146 208 150 212 c 0
 154 216 157 221 159 227 c 0
 161 233 162 239 163 246 c 1
 192 246 l 1xebff80
264 320 m 1
 266 323 269 326 272 329 c 0
 275 332 277 335 280 337 c 0
 285 341 290 343 296 345 c 0
 302 347 308 348 315 348 c 0
 324 348 332 347 339 344 c 0
 346 342 352 337 357 332 c 0
 362 327 365 320 368 312 c 0
 371 304 373 294 373 283 c 2
 373 179 l 1
 344 179 l 1
 344 284 l 2
 344 291 344 296 342 301 c 0
 340 306 338 310 335 313 c 0
 332 317 328 319 323 321 c 0
 318 323 313 324 307 324 c 0
 302 324 297 323 292 322 c 0
 287 321 284 318 280 315 c 0
 277 313 274 311 271 308 c 0
 268 305 266 302 264 299 c 2
 264 179 l 1
 236 179 l 1
 236 414 l 1
 264 414 l 1xe7ff80
 264 320 l 1
533 179 m 2
 532 181 531 184 530 187 c 0
 529 190 529 194 529 197 c 1
 526 194 523 192 519 189 c 0
 516 186 512 184 508 182 c 0
 504 180 499 179 494 178 c 0
 489 177 484 176 479 176 c 0
 470 176 462 177 455 180 c 0
 448 183 442 186 437 190 c 0
 432 194 428 200 425 206 c 0
 422 212 421 218 421 225 c 0
 421 234 423 242 427 249 c 0
 431 256 435 261 442 266 c 0
 449 270 457 274 466 276 c 0
 475 278 485 279 497 279 c 2
 528 279 l 1
 528 292 l 2
 528 297 528 302 526 306 c 0
 524 310 521 313 518 316 c 0
 515 319 510 321 505 323 c 0
 500 325 495 325 489 325 c 0
 483 325 478 324 474 323 c 0
 470 322 466 319 463 317 c 0
 460 315 458 312 456 309 c 0
 454 306 453 302 453 299 c 1
 425 299 l 1
 425 305 426 311 429 317 c 0
 432 323 436 327 442 332 c 0
 448 337 455 340 463 343 c 0
 471 346 481 348 491 348 c 0
 500 348 509 346 517 344 c 0
 525 342 532 339 538 334 c 0
 544 329 549 324 552 317 c 0
 555 310 557 301 557 292 c 2
 557 215 l 2
 557 209 557 204 558 198 c 0
 559 192 560 186 562 181 c 2
 562 179 l 1
 533 179 l 2
483 201 m 0
 489 201 493 202 498 203 c 0
 503 204 507 206 511 208 c 0
 515 210 519 213 522 216 c 0
 525 219 526 223 528 226 c 2
 528 259 l 1
 502 259 l 2
 492 259 483 259 476 257 c 0
 469 255 463 252 459 249 c 0
 456 247 454 243 452 240 c 0
 450 237 450 233 450 229 c 0
 450 225 451 221 452 218 c 0
 453 215 455 211 458 209 c 0
 461 206 464 204 468 203 c 0
 472 202 477 201 483 201 c 0
721 348 m 0
 726 348 731 348 737 347 c 0
 743 346 747 345 750 344 c 2
 746 316 l 1
 740 317 735 318 730 319 c 0
 725 320 720 320 715 320 c 0
 708 320 702 319 696 317 c 0
 690 315 685 313 681 310 c 0
 677 307 674 303 671 299 c 0
 668 295 667 290 665 285 c 2
 665 179 l 1
 636 179 l 1
 636 345 l 1
 663 345 l 1
 664 322 l 1
 664 318 l 1
 671 327 680 335 689 340 c 0
 698 345 709 348 721 348 c 0
805 414 m 1
 890 414 l 1
 890 204 l 1
 944 204 l 1
 944 179 l 1
 805 179 l 1
 805 204 l 1
 861 204 l 1
 861 390 l 1
 805 390 l 1
 805 414 l 1
993 345 m 1
 1078 345 l 1
 1078 204 l 1
 1132 204 l 1
 1132 179 l 1
 993 179 l 1
 993 204 l 1
 1050 204 l 1
 1050 320 l 1
 993 320 l 1
 993 345 l 1
1046 388 m 0
 1046 390 1046 393 1047 395 c 0
 1048 397 1049 399 1051 401 c 0
 1052 402 1054 403 1056 404 c 0
 1058 405 1060 405 1063 405 c 0
 1066 405 1068 405 1070 404 c 0
 1072 403 1074 402 1075 401 c 0
 1077 400 1078 397 1079 395 c 0
 1080 393 1080 391 1080 388 c 0
 1080 383 1079 380 1076 377 c 0
 1073 374 1069 372 1063 372 c 0xf3ff80
 1057 372 1053 374 1050 377 c 0
 1047 380 1046 383 1046 388 c 0
1250 176 m 0
 1238 176 1228 178 1218 182 c 0
 1208 186 1200 192 1193 199 c 0
 1186 206 1181 214 1177 224 c 0
 1173 234 1171 244 1171 256 c 2
 1171 262 l 2
 1171 275 1174 287 1178 298 c 0
 1182 309 1188 318 1195 325 c 0
 1202 332 1210 338 1219 342 c 0
 1228 346 1238 348 1247 348 c 0
 1259 348 1269 345 1278 341 c 0
 1287 337 1294 331 1300 324 c 0
 1306 317 1310 309 1313 299 c 0
 1316 289 1318 278 1318 266 c 2
 1318 254 l 1
 1200 254 l 1
 1200 253 l 2
 1201 245 1202 237 1204 231 c 0
 1207 225 1211 220 1215 215 c 0
 1219 210 1225 206 1231 203 c 0
 1237 200 1244 199 1252 199 c 0
 1262 199 1271 201 1279 205 c 0
 1287 209 1293 214 1298 221 c 1
 1316 208 l 1
 1310 200 1302 193 1291 186 c 0
 1280 180 1266 176 1250 176 c 0
1247 324 m 0
 1241 324 1236 323 1231 321 c 0
 1226 319 1221 316 1217 312 c 0
 1213 308 1209 303 1206 297 c 0
 1203 291 1201 285 1200 277 c 1
 1290 277 l 1
 1290 278 l 2
 1290 283 1289 289 1287 295 c 0
 1285 301 1282 306 1279 310 c 0
 1276 314 1270 317 1265 320 c 0
 1260 323 1254 324 1247 324 c 0
EndSplineSet
Validated: 1
EndChar

StartChar: e
Encoding: 101 101 36
Width: 838
Flags: HW
HStem: 180 25<79 192 283 355 673 744> 287 25<79 176> 331 24<287 349 487 546 678 739> 387 25<79 191> 405 20G<441 471>
VStem: 50 30<205 287 312 387> 240 30<215 317> 361 28<210 234 293 322> 441 30<180 321 327 425> 555 30<180 324> 630 30<216 315> 757 30<216 315>
LayerCount: 2
Fore
SplineSet
176 287 m 1xf7f0
 79 287 l 1
 79 205 l 1
 192 205 l 1
 192 180 l 1
 50 180 l 1
 50 412 l 1
 191 412 l 1
 191 387 l 1
 79 387 l 1
 79 312 l 1
 176 312 l 1
 176 287 l 1xf7f0
319 200 m 0
 324 200 329 201 334 203 c 0
 339 205 344 207 348 210 c 0
 352 213 355 217 357 221 c 0
 359 225 361 229 361 234 c 1
 389 234 l 1
 389 226 387 219 383 212 c 0
 379 205 373 199 367 194 c 0
 361 189 353 184 345 181 c 0
 337 178 328 176 319 176 c 0
 306 176 294 178 284 183 c 0
 274 188 266 194 260 202 c 0
 253 210 248 220 245 230 c 0
 242 240 240 251 240 263 c 2
 240 269 l 2
 240 280 242 292 245 302 c 0
 248 312 253 322 260 330 c 0
 266 338 274 344 284 349 c 0
 294 354 306 356 319 356 c 0
 329 356 338 354 347 351 c 0
 356 348 363 344 369 338 c 0
 375 332 380 326 384 318 c 0
 388 310 389 302 389 293 c 1
 361 293 l 1
 361 298 359 303 357 308 c 0
 355 313 353 316 349 320 c 0
 345 324 340 326 335 328 c 0
 330 330 325 331 319 331 c 0
 310 331 301 330 295 326 c 0
 289 322 284 318 280 312 c 0
 276 306 274 299 272 292 c 0
 270 285 270 276 270 269 c 2
 270 263 l 2
 270 255 270 247 272 240 c 0
 274 233 276 226 280 220 c 0
 284 214 289 210 295 206 c 0
 301 202 310 200 319 200 c 0
471 327 m 1
 473 331 476 333 479 336 c 0
 482 339 485 342 488 344 c 0
 493 348 499 351 505 353 c 0
 511 355 517 356 524 356 c 0
 533 356 542 355 549 352 c 0
 556 349 563 346 568 340 c 0
 573 334 577 327 580 318 c 0
 583 310 584 300 584 288 c 2
 584 180 l 1
 555 180 l 1
 555 289 l 2
 555 296 554 302 552 307 c 0
 550 312 548 317 545 320 c 0
 542 324 538 326 533 328 c 0
 528 330 522 331 516 331 c 0
 511 331 505 329 500 328 c 0
 495 327 491 325 487 322 c 0
 484 320 481 317 478 314 c 0
 475 311 473 308 471 305 c 2
 471 180 l 1
 441 180 l 1
 441 425 l 1
 471 425 l 1xeff0
 471 327 l 1
630 268 m 2
 630 280 631 291 635 302 c 0
 639 313 644 322 651 330 c 0
 658 338 665 345 675 349 c 0
 685 354 696 356 708 356 c 0
 720 356 731 354 741 349 c 0
 751 345 759 338 766 330 c 0
 773 322 778 313 782 302 c 0
 786 291 787 280 787 268 c 2
 787 264 l 2
 787 252 786 240 782 229 c 0
 778 218 773 210 766 202 c 0
 759 194 751 187 741 183 c 0
 731 179 721 176 709 176 c 0
 697 176 685 179 675 183 c 0
 665 187 658 194 651 202 c 0
 644 210 639 218 635 229 c 0
 631 240 630 252 630 264 c 2
 630 268 l 2
659 264 m 2
 659 255 660 248 662 240 c 0
 664 232 668 225 672 219 c 0
 676 213 681 208 687 205 c 0
 693 202 701 200 709 200 c 0
 717 200 724 202 730 205 c 0
 736 208 741 213 745 219 c 0
 749 225 752 232 754 240 c 0
 756 248 757 255 757 264 c 2
 757 268 l 2
 757 276 756 284 754 292 c 0
 752 300 749 306 745 312 c 0
 741 318 736 323 730 326 c 0
 724 330 716 331 708 331 c 0
 700 331 693 330 687 326 c 0
 681 323 676 318 672 312 c 0
 668 306 664 300 662 292 c 0
 660 284 659 276 659 268 c 2
 659 264 l 2
EndSplineSet
Validated: 1
EndChar

StartChar: g
Encoding: 103 103 37
Width: 834
Flags: HW
HStem: 180 26<88 169 280 351 446 505 535 591> 271 25<123 170> 330 23<284 347 635 682 712 779> 390 25<88 154> 399 26<446 505 716 753 754 788> 407 25<721 789>
VStem: 36 30<226 369> 123 75<271 295> 169 29<207 271 344 377> 237 30<216 315> 364 30<216 315> 505 30<205 399> 682 30<180 330 353 400>
LayerCount: 2
Fore
SplineSet
199 210 m 2xf378
 195 206 191 202 187 198 c 0
 183 195 179 192 175 189 c 0
 168 185 160 182 151 180 c 0
 142 178 132 176 123 176 c 0
 113 176 105 178 97 181 c 0
 89 184 81 188 75 193 c 0
 69 198 64 203 59 210 c 0
 54 217 50 224 47 232 c 0
 44 240 41 247 39 256 c 0
 37 265 36 273 36 282 c 2
 36 309 l 2
 36 318 38 326 39 335 c 0
 40 344 42 352 45 360 c 0
 48 368 53 375 57 382 c 0
 61 389 67 395 73 400 c 0
 79 405 86 408 94 411 c 0
 102 414 110 415 120 415 c 0
 131 415 141 413 150 410 c 0
 159 407 167 402 174 396 c 0
 181 390 187 382 191 373 c 0
 195 364 198 355 199 344 c 1
 169 344 l 1xf2f8
 168 351 166 357 164 363 c 0
 162 369 158 373 154 377 c 0
 150 381 146 385 140 387 c 0
 134 389 128 390 121 390 c 0
 114 390 107 389 102 387 c 0
 97 385 92 381 88 377 c 0
 84 373 81 368 78 363 c 0
 75 358 73 352 71 346 c 0
 69 340 68 334 67 328 c 0
 66 322 66 316 66 310 c 2
 66 282 l 2
 66 276 67 270 68 264 c 0
 69 258 70 252 72 246 c 0
 74 240 76 234 79 229 c 0
 82 224 86 219 90 215 c 0
 94 211 99 207 105 205 c 0
 111 203 117 201 124 201 c 0
 128 201 132 202 136 202 c 0
 140 202 145 204 149 205 c 0
 153 206 157 208 161 210 c 0
 165 212 168 214 170 218 c 2
 170 271 l 1
 123 271 l 1
 123 295 l 1
 198 295 l 1
 199 210 l 2xf378
237 268 m 2
 237 280 238 291 242 302 c 0
 246 313 251 322 258 330 c 0
 265 338 272 345 282 349 c 0
 292 354 303 356 315 356 c 0
 327 356 338 354 348 349 c 0
 358 345 366 338 373 330 c 0
 380 322 384 313 388 302 c 0
 392 291 394 280 394 268 c 2
 394 264 l 2
 394 252 392 240 388 229 c 0
 384 218 380 210 373 202 c 0
 366 194 358 187 348 183 c 0
 338 179 327 176 315 176 c 0
 303 176 292 179 282 183 c 0
 272 187 265 194 258 202 c 0
 251 210 246 218 242 229 c 0
 238 240 237 252 237 264 c 2
 237 268 l 2
266 264 m 2
 266 255 267 248 269 240 c 0
 271 232 274 225 278 219 c 0
 282 213 288 208 294 205 c 0
 300 202 307 200 315 200 c 0
 323 200 331 202 337 205 c 0
 343 208 348 213 352 219 c 0
 356 225 359 232 361 240 c 0
 363 248 364 255 364 264 c 2
 364 268 l 2
 364 276 363 284 361 292 c 0
 359 300 356 306 352 312 c 0
 348 318 342 323 336 326 c 0
 330 330 323 331 315 331 c 0
 307 331 300 330 294 326 c 0
 288 323 282 318 278 312 c 0
 274 306 271 300 269 292 c 0
 267 284 266 276 266 268 c 2
 266 264 l 2
446 425 m 1xea78
 535 425 l 1
 535 205 l 1
 591 205 l 1
 591 180 l 1
 446 180 l 1
 446 205 l 1
 505 205 l 1
 505 399 l 1
 446 399 l 1
 446 425 l 1xea78
682 180 m 1
 682 330 l 1
 635 330 l 1
 635 353 l 1
 682 353 l 1
 682 365 l 2
 682 376 684 386 687 394 c 0
 690 402 695 409 701 415 c 0
 707 421 714 425 722 428 c 0
 730 431 740 432 750 432 c 0
 754 432 759 432 763 431 c 0
 767 431 771 430 775 429 c 0
 778 428 780 429 783 428 c 0
 786 427 788 427 791 426 c 2
 788 401 l 1
 784 402 778 404 772 405 c 0
 766 406 761 407 754 407 c 0xe678
 747 407 741 406 736 404 c 0
 731 402 726 400 723 397 c 0
 719 394 717 389 715 384 c 0
 713 379 712 372 712 365 c 2
 712 353 l 1
 779 353 l 1
 779 330 l 1
 712 330 l 1
 712 180 l 1
 682 180 l 1
EndSplineSet
Validated: 1
EndChar

StartChar: h
Encoding: 104 104 38
Width: 1024
Flags: HW
HStem: 180 26<280 351 515 581 677 759 839 898 928 984> 258 24<662 755> 287 25<71 166> 330 23<284 347 436 482 511 577 679 742> 392 20G<43 71 166 194> 399 26<839 898>
VStem: 43 28<180 287 312 412> 166 28<180 287 312 412> 237 30<216 315> 364 30<216 315> 482 30<205 330 353 394> 632 30<219 258> 755 30<282 320> 898 30<205 399>
LayerCount: 2
Fore
SplineSet
194 180 m 1xfbfc
 166 180 l 1
 166 287 l 1
 71 287 l 1
 71 180 l 1
 43 180 l 1
 43 412 l 1
 71 412 l 1
 71 312 l 1
 166 312 l 1
 166 412 l 1
 194 412 l 1
 194 180 l 1xfbfc
237 268 m 2
 237 280 238 291 242 302 c 0
 246 313 251 322 258 330 c 0
 265 338 272 345 282 349 c 0
 292 354 303 356 315 356 c 0
 327 356 338 354 348 349 c 0
 358 345 366 338 373 330 c 0
 380 322 384 313 388 302 c 0
 392 291 394 280 394 268 c 2
 394 264 l 2
 394 252 392 240 388 229 c 0
 384 218 380 210 373 202 c 0
 366 194 358 187 348 183 c 0
 338 179 327 176 315 176 c 0
 303 176 292 179 282 183 c 0
 272 187 265 194 258 202 c 0
 251 210 246 218 242 229 c 0
 238 240 237 252 237 264 c 2
 237 268 l 2
266 264 m 2
 266 255 267 248 269 240 c 0
 271 232 274 225 278 219 c 0
 282 213 288 208 294 205 c 0
 300 202 307 200 315 200 c 0
 323 200 331 202 337 205 c 0
 343 208 348 213 352 219 c 0
 356 225 359 232 361 240 c 0
 363 248 364 255 364 264 c 2
 364 268 l 2
 364 276 363 284 361 292 c 0
 359 300 356 306 352 312 c 0
 348 318 342 323 336 326 c 0
 330 330 323 331 315 331 c 0
 307 331 300 330 294 326 c 0
 288 323 282 318 278 312 c 0
 274 306 271 300 269 292 c 0
 267 284 266 276 266 268 c 2
 266 264 l 2
511 394 m 1
 511 353 l 1
 577 353 l 1
 577 330 l 1
 511 330 l 1
 511 236 l 2
 511 229 512 223 514 219 c 0
 516 215 518 212 521 209 c 0
 524 206 527 204 531 203 c 0
 535 202 540 201 544 201 c 0
 547 201 551 202 554 202 c 0
 557 202 561 202 564 203 c 0
 567 204 570 204 573 205 c 0
 576 206 578 207 580 207 c 1
 584 186 l 2
 582 185 579 183 575 182 c 0
 571 181 567 180 563 179 c 0
 559 178 555 177 550 177 c 0
 545 177 541 176 536 176 c 0
 528 176 522 178 515 180 c 0
 508 182 503 185 498 190 c 0
 493 195 489 201 486 208 c 0
 483 216 482 225 482 236 c 2
 482 330 l 1
 436 330 l 1
 436 353 l 1
 482 353 l 1
 482 394 l 1
 511 394 l 1
714 176 m 0
 702 176 691 179 681 183 c 0
 671 187 662 193 655 200 c 0
 648 207 642 217 638 227 c 0
 634 237 632 248 632 260 c 2
 632 267 l 2
 632 281 635 293 639 304 c 0
 643 315 649 324 656 332 c 0
 663 340 673 346 682 350 c 0
 691 354 701 356 711 356 c 0
 723 356 734 353 743 349 c 0
 752 345 761 339 767 331 c 0
 773 323 777 314 780 304 c 0
 783 294 785 283 785 271 c 2
 785 258 l 1
 661 258 l 1
 661 256 l 2
 662 248 663 240 666 234 c 0
 669 228 672 222 677 217 c 0
 682 212 687 208 694 205 c 0
 701 202 708 201 716 201 c 0
 727 201 736 203 744 207 c 0
 752 211 760 217 765 224 c 1
 783 210 l 1
 777 201 769 193 757 186 c 0
 746 179 731 176 714 176 c 0
711 331 m 0
 705 331 699 330 694 328 c 0
 689 326 683 323 679 319 c 0
 675 315 671 309 668 303 c 0
 665 297 663 290 662 282 c 1
 755 282 l 1
 755 283 l 2
 755 288 754 294 752 300 c 0
 750 306 748 312 744 316 c 0
 740 320 736 324 730 327 c 0
 725 330 719 331 711 331 c 0
839 425 m 1xf7fc
 928 425 l 1
 928 205 l 1
 984 205 l 1
 984 180 l 1
 839 180 l 1
 839 205 l 1
 898 205 l 1
 898 399 l 1
 839 399 l 1
 839 425 l 1xf7fc
EndSplineSet
Validated: 1
EndChar

StartChar: j
Encoding: 106 106 39
Width: 1212
Flags: HW
HStem: 180 26<75 145 279 346 444 503 532 589 640 699 729 785 871 953 1102 1168> 258 24<856 949> 330 23<640 699 873 936 1024 1069 1099 1164> 381 34<700 726> 400 26<444 503>
VStem: 34 30<213 247> 156 30<214 413> 244 30<207 353> 354 30<180 204 210 353> 503 30<206 400> 695 35<206 327 386 416> 826 30<219 258> 949 30<282 320> 1069 30<206 330 353 395>
LayerCount: 2
Fore
SplineSet
156 413 m 1xe7fc
 186 413 l 1
 186 251 l 2
 186 240 184 230 180 221 c 0
 176 212 171 204 164 198 c 0
 157 191 149 186 140 182 c 0
 131 178 121 177 110 177 c 0
 99 177 90 179 81 182 c 0
 72 185 64 190 58 196 c 0
 51 202 46 209 42 218 c 0
 38 227 35 236 34 247 c 1
 64 247 l 1
 64 241 66 235 68 229 c 0
 70 223 74 219 78 215 c 0
 82 211 87 207 92 205 c 0
 98 203 103 202 110 202 c 0
 117 202 123 203 129 206 c 0
 135 209 139 212 143 216 c 0
 147 220 150 226 152 232 c 0
 154 238 156 244 156 251 c 2
 156 413 l 1xe7fc
357 180 m 1
 355 204 l 1
 349 195 342 189 333 184 c 0
 324 179 315 177 304 177 c 0
 295 177 286 178 279 181 c 0
 272 184 265 188 260 194 c 0
 255 200 251 208 248 217 c 0
 245 226 244 237 244 250 c 2
 244 353 l 1
 273 353 l 1
 273 250 l 2
 273 241 275 232 276 226 c 0
 277 220 279 216 282 212 c 0
 285 208 289 205 293 204 c 0
 297 203 302 202 308 202 c 0
 315 202 321 203 326 204 c 0
 331 206 336 208 340 211 c 0
 343 213 346 216 348 219 c 0
 350 222 352 225 354 229 c 2
 354 353 l 1
 384 353 l 1
 384 180 l 1
 357 180 l 1
444 425 m 1xeffc
 532 425 l 1
 532 206 l 1
 589 206 l 1
 589 180 l 1
 444 180 l 1
 444 206 l 1
 503 206 l 1
 503 400 l 1
 444 400 l 1
 444 425 l 1xeffc
640 353 m 1
 729 353 l 1
 729 206 l 1
 785 206 l 1
 785 180 l 1
 640 180 l 1
 640 206 l 1
 699 206 l 1
 699 327 l 1
 640 327 l 1
 640 353 l 1
695 398 m 0
 695 401 695 403 696 405 c 0
 697 407 698 409 700 411 c 0
 701 412 704 413 706 414 c 0
 708 415 710 416 713 416 c 0
 716 416 718 415 720 414 c 0
 722 413 725 412 726 411 c 0
 728 410 729 408 730 406 c 0
 731 404 731 401 731 398 c 0
 731 393 729 389 726 386 c 0
 723 383 719 381 713 381 c 0xf7fc
 707 381 703 383 700 386 c 0
 697 389 695 393 695 398 c 0
909 177 m 0
 897 177 885 179 875 183 c 0
 865 187 856 193 849 200 c 0
 842 207 836 217 832 227 c 0
 828 237 826 248 826 260 c 2
 826 267 l 2
 826 281 829 293 833 304 c 0
 837 315 844 325 851 333 c 0
 858 341 867 346 876 350 c 0
 885 354 895 356 905 356 c 0
 917 356 928 353 937 349 c 0
 946 345 955 340 961 332 c 0
 967 324 971 315 974 305 c 0
 977 295 979 283 979 271 c 2
 979 258 l 1
 856 258 l 1
 856 257 l 2
 857 249 857 241 860 235 c 0
 863 229 866 223 871 218 c 0
 876 213 881 208 888 205 c 0
 895 202 902 201 910 201 c 0
 921 201 930 203 938 207 c 0
 946 211 954 217 959 224 c 1
 977 210 l 1
 971 201 962 194 951 187 c 0
 940 180 926 177 909 177 c 0
905 332 m 0
 899 332 893 330 888 328 c 0
 883 326 877 323 873 319 c 0
 869 315 866 309 863 303 c 0
 860 297 857 290 856 282 c 1
 949 282 l 1
 949 284 l 2
 949 289 948 295 946 301 c 0
 944 307 942 313 938 317 c 0
 934 321 930 325 924 328 c 0
 919 331 913 332 905 332 c 0
1099 395 m 1
 1099 353 l 1
 1164 353 l 1
 1164 330 l 1
 1099 330 l 1
 1099 236 l 2
 1099 229 1099 223 1101 219 c 0
 1103 215 1105 212 1108 209 c 0
 1111 206 1114 205 1118 204 c 0
 1122 203 1127 202 1131 202 c 0
 1134 202 1138 202 1141 202 c 0
 1144 202 1148 203 1151 204 c 0
 1154 205 1157 204 1160 205 c 0
 1163 206 1165 207 1167 207 c 1
 1171 186 l 2
 1169 185 1166 183 1162 182 c 0
 1158 181 1154 180 1150 179 c 0
 1146 178 1142 177 1137 177 c 0
 1132 177 1128 177 1123 177 c 0
 1115 177 1109 178 1102 180 c 0
 1095 182 1090 186 1085 191 c 0
 1080 196 1076 202 1073 209 c 0
 1070 217 1069 225 1069 236 c 2
 1069 330 l 1
 1024 330 l 1
 1024 353 l 1
 1069 353 l 1
 1069 395 l 1
 1099 395 l 1
EndSplineSet
Validated: 1
EndChar

StartChar: k
Encoding: 107 107 40
Width: 827
Flags: HW
HStem: 180 26<250 308 338 394 446 505 535 591 673 744> 327 26<250 308 673 744> 381 34<309 335> 399 26<446 505>
VStem: 48 30<180 258 299 412> 308 30<205 327 386 415> 505 30<205 399> 630 30<216 315> 757 30<216 315>
LayerCount: 2
Fore
SplineSet
104 288 m 1xcf80
 78 258 l 1
 78 180 l 1
 48 180 l 1
 48 412 l 1
 78 412 l 1
 78 299 l 1
 101 327 l 1
 169 412 l 1
 205 412 l 1
 124 310 l 1
 210 180 l 1
 174 180 l 1
 104 288 l 1xcf80
250 353 m 1
 338 353 l 1
 338 205 l 1
 394 205 l 1
 394 180 l 1
 250 180 l 1
 250 205 l 1
 308 205 l 1
 308 327 l 1
 250 327 l 1
 250 353 l 1
305 398 m 0
 305 401 305 403 306 405 c 0
 307 407 307 409 309 411 c 0
 310 412 313 413 315 414 c 0
 317 415 319 415 322 415 c 0
 325 415 328 415 330 414 c 0
 332 413 334 412 335 411 c 0
 337 410 338 407 339 405 c 0
 340 403 340 401 340 398 c 0
 340 393 339 389 336 386 c 0
 333 383 328 381 322 381 c 0xef80
 316 381 312 383 309 386 c 0
 306 389 305 393 305 398 c 0
446 425 m 1xdf80
 535 425 l 1
 535 205 l 1
 591 205 l 1
 591 180 l 1
 446 180 l 1
 446 205 l 1
 505 205 l 1
 505 399 l 1
 446 399 l 1
 446 425 l 1xdf80
630 268 m 2
 630 280 631 291 635 302 c 0
 639 313 644 322 651 330 c 0
 658 338 665 345 675 349 c 0
 685 354 696 356 708 356 c 0
 720 356 731 354 741 349 c 0
 751 345 759 338 766 330 c 0
 773 322 778 313 782 302 c 0
 786 291 787 280 787 268 c 2
 787 264 l 2
 787 252 786 240 782 229 c 0
 778 218 773 210 766 202 c 0
 759 194 751 187 741 183 c 0
 731 179 721 176 709 176 c 0
 697 176 685 179 675 183 c 0
 665 187 658 194 651 202 c 0
 644 210 639 218 635 229 c 0
 631 240 630 252 630 264 c 2
 630 268 l 2
659 264 m 2
 659 255 660 248 662 240 c 0
 664 232 668 225 672 219 c 0
 676 213 681 208 687 205 c 0
 693 202 701 200 709 200 c 0
 717 200 724 202 730 205 c 0
 736 208 741 213 745 219 c 0
 749 225 752 232 754 240 c 0
 756 248 757 255 757 264 c 2
 757 268 l 2
 757 276 756 284 754 292 c 0
 752 300 749 306 745 312 c 0
 741 318 736 323 730 326 c 0
 724 330 716 331 708 331 c 0
 700 331 693 330 687 326 c 0
 681 323 676 318 672 312 c 0
 668 306 664 300 662 292 c 0
 660 284 659 276 659 268 c 2
 659 264 l 2
EndSplineSet
Validated: 1
EndChar

StartChar: l
Encoding: 108 108 41
Width: 827
Flags: HW
HStem: 180 25<82 196 250 308 338 394 668 738> 263 21<675 747> 329 24<250 308 459 497 527 566 673 741> 381 34<309 335>
VStem: 52 30<205 412> 308 30<205 327 386 415> 429 28<180 330 336 353> 498 28<180 330> 567 28<180 330> 635 30<206 256 305 324> 747 30<180 182 212 263 284 325>
LayerCount: 2
Fore
SplineSet
82 205 m 1
 196 205 l 1
 196 180 l 1
 52 180 l 1
 52 412 l 1
 82 412 l 1
 82 205 l 1
250 353 m 1
 338 353 l 1
 338 205 l 1
 394 205 l 1
 394 180 l 1
 250 180 l 1
 250 205 l 1
 308 205 l 1
 308 327 l 1
 250 327 l 1
 250 353 l 1
305 398 m 0
 305 401 305 403 306 405 c 0
 307 407 307 409 309 411 c 0
 310 412 313 413 315 414 c 0
 317 415 319 415 322 415 c 0
 325 415 328 415 330 414 c 0
 332 413 334 412 335 411 c 0
 337 410 338 407 339 405 c 0
 340 403 340 401 340 398 c 0
 340 393 339 389 336 386 c 0
 333 383 328 381 322 381 c 0
 316 381 312 383 309 386 c 0
 306 389 305 393 305 398 c 0
455 353 m 1
 456 336 l 1
 460 342 464 347 470 350 c 0
 476 353 482 356 490 356 c 0
 495 356 499 355 503 354 c 0
 507 353 509 352 512 350 c 0
 514 349 516 346 518 344 c 0
 520 342 521 340 522 337 c 1
 523 339 525 342 527 344 c 0
 529 346 532 348 534 350 c 0
 537 352 540 353 544 354 c 0
 548 355 552 356 556 356 c 0
 562 356 567 355 572 353 c 0
 577 351 581 348 584 345 c 0
 588 341 591 336 593 330 c 0
 595 324 596 317 596 309 c 2
 596 180 l 1
 567 180 l 1
 567 309 l 2
 567 313 567 316 566 319 c 0
 565 322 564 324 562 326 c 0
 560 328 559 328 556 329 c 0
 554 330 550 331 547 331 c 0
 543 331 541 330 538 329 c 0
 535 328 534 327 532 325 c 0
 530 323 529 321 528 319 c 0
 527 317 526 315 526 312 c 0
 526 311 526 312 526 311 c 0
 526 311 526 310 526 309 c 2
 526 180 l 1
 498 180 l 1
 498 309 l 2
 498 313 498 316 497 319 c 0
 496 322 495 324 493 326 c 0
 491 328 489 328 487 329 c 0
 485 330 482 331 479 331 c 0
 475 331 472 330 469 329 c 0
 466 328 465 327 463 326 c 0
 462 325 460 323 459 322 c 0
 458 321 458 319 457 317 c 2
 457 180 l 1
 429 180 l 1
 429 353 l 1
 455 353 l 1
752 180 m 2
 751 182 750 185 749 188 c 0
 748 191 747 194 747 198 c 1
 744 195 741 193 737 190 c 0
 733 187 729 185 725 183 c 0
 721 181 716 179 711 178 c 0
 706 177 701 176 695 176 c 0
 686 176 677 177 670 180 c 0
 663 183 656 186 651 191 c 0
 646 195 642 201 639 207 c 0
 636 213 635 221 635 228 c 0
 635 237 637 245 641 252 c 0
 645 259 650 265 657 270 c 0
 664 275 672 279 682 281 c 0
 692 283 703 284 715 284 c 2
 747 284 l 1
 747 298 l 2
 747 303 746 308 744 312 c 0
 742 316 740 320 736 323 c 0
 732 326 728 328 723 330 c 0
 718 332 712 332 706 332 c 0
 700 332 695 331 690 330 c 0
 685 329 682 326 679 324 c 0
 676 322 673 318 671 315 c 0
 669 312 668 309 668 305 c 1
 639 305 l 1
 639 311 641 317 644 323 c 0
 647 329 651 335 657 340 c 0
 663 345 671 348 679 351 c 0
 688 354 697 356 708 356 c 0
 718 356 727 354 735 352 c 0
 743 350 751 346 757 341 c 0
 763 336 767 330 771 323 c 0
 775 316 776 308 776 298 c 2
 776 217 l 2
 776 211 777 205 778 199 c 0
 779 193 781 187 783 182 c 2
 783 180 l 1
 752 180 l 2
699 202 m 0
 705 202 711 203 716 204 c 0
 721 205 725 208 729 210 c 0
 733 212 737 216 740 219 c 0
 743 222 745 225 747 228 c 2
 747 263 l 1
 719 263 l 2
 709 263 701 263 693 261 c 0
 685 259 679 257 675 253 c 0
 672 250 669 248 667 244 c 0
 665 240 665 236 665 232 c 0
 665 228 666 224 667 220 c 0
 668 216 670 214 673 211 c 0
 676 208 680 205 684 204 c 0
 688 203 693 202 699 202 c 0
EndSplineSet
Validated: 1
EndChar

StartChar: o
Encoding: 111 111 42
Width: 1022
Flags: HW
HStem: 176 26<88 150 281 357 481 550 669 736> 263 21<675 747> 331 24<286 350 484 546 674 739 912 974> 389 26<87 150>
VStem: 37 29<224 368> 170 29<223 369> 251 30<205 233 286 327> 360 30<205 246 302 324> 437 30<215 317> 558 28<210 234 293 322> 635 30<206 256 305 324> 747 30<180 182 212 263 284 325> 859 30<180 314 325 353>
LayerCount: 2
Fore
SplineSet
200 283 m 2
 200 275 198 266 197 257 c 0
 196 249 194 241 191 233 c 0
 188 225 185 218 181 211 c 0
 177 204 171 198 165 193 c 0
 159 188 153 184 145 181 c 0
 137 178 129 176 119 176 c 0
 109 176 101 178 93 181 c 0
 85 184 78 188 72 193 c 0
 66 198 61 204 57 211 c 0
 53 218 49 225 46 233 c 0
 43 241 41 249 40 257 c 0
 39 265 37 275 37 283 c 2
 37 309 l 2
 37 317 39 326 40 334 c 0
 41 343 43 351 46 359 c 0
 49 367 52 374 56 381 c 0
 60 388 66 394 72 399 c 0
 78 404 84 408 92 411 c 0
 100 414 108 415 118 415 c 0
 128 415 137 414 145 411 c 0
 153 408 159 404 165 399 c 0
 171 394 176 388 180 381 c 0
 184 374 188 367 191 359 c 0
 194 351 196 343 197 334 c 0
 198 325 200 317 200 309 c 2
 200 283 l 2
170 309 m 2
 170 315 170 321 169 327 c 0
 168 333 167 339 166 345 c 0
 164 351 163 356 160 361 c 0
 157 366 154 372 150 376 c 0
 146 380 142 383 137 385 c 0
 132 387 125 389 118 389 c 0
 111 389 105 387 100 385 c 0
 95 383 91 380 87 376 c 0
 83 372 80 366 77 361 c 0
 74 356 72 351 71 345 c 0
 69 339 69 332 68 326 c 0
 67 320 67 314 67 309 c 2
 67 283 l 2
 67 278 67 271 68 265 c 0
 69 259 69 253 71 247 c 0
 73 241 74 235 77 230 c 0
 80 225 83 220 87 216 c 0
 91 212 96 208 101 206 c 0
 106 204 112 202 119 202 c 0
 126 202 132 204 137 206 c 0
 142 208 147 212 151 216 c 0
 155 220 158 225 160 230 c 0
 163 235 164 241 166 247 c 0
 167 253 168 259 169 265 c 0
 170 271 170 277 170 283 c 2
 170 309 l 2
360 225 m 0
 360 229 359 232 358 235 c 0
 357 238 354 241 351 243 c 0
 348 245 343 247 338 249 c 0
 333 251 325 253 317 255 c 0
 307 257 298 259 290 262 c 0
 282 265 275 268 269 272 c 0
 263 276 259 281 256 286 c 0
 253 291 251 298 251 305 c 0
 251 312 253 319 256 325 c 0
 259 331 264 336 270 341 c 0
 276 346 283 349 291 352 c 0
 299 355 308 356 318 356 c 0
 329 356 338 355 347 352 c 0
 356 349 363 345 369 340 c 0
 375 335 380 330 383 323 c 0
 386 317 388 310 388 302 c 1
 358 302 l 1
 358 306 357 309 355 313 c 0
 353 317 350 319 347 322 c 0
 344 325 340 327 335 329 c 0
 330 331 324 331 318 331 c 0
 312 331 307 330 302 329 c 0
 297 328 293 326 290 324 c 0
 287 322 285 319 283 316 c 0
 281 313 281 309 281 306 c 0
 281 303 281 300 282 297 c 0
 283 294 286 292 289 290 c 0
 292 288 297 286 302 284 c 0
 307 282 314 281 322 279 c 0
 333 277 342 274 350 271 c 0
 358 268 366 265 372 261 c 0
 378 257 382 251 385 246 c 0
 388 241 389 235 389 228 c 0
 389 220 388 213 384 207 c 0
 381 201 376 194 370 190 c 0
 364 186 357 182 348 180 c 0
 339 178 329 176 319 176 c 0
 307 176 297 178 288 181 c 0
 279 184 271 189 265 194 c 0
 259 199 253 205 250 212 c 0
 247 219 245 226 245 233 c 1
 275 233 l 1
 275 227 276 221 279 217 c 0
 282 213 286 210 290 207 c 0
 294 204 299 203 304 202 c 0
 309 201 314 200 319 200 c 0
 327 200 334 201 340 203 c 0
 346 205 351 208 354 211 c 0
 356 213 357 216 358 218 c 0
 359 220 360 222 360 225 c 0
515 200 m 0
 520 200 526 201 531 203 c 0
 536 205 540 207 544 210 c 0
 548 213 552 217 554 221 c 0
 556 225 558 229 558 234 c 1
 585 234 l 1
 585 226 583 219 579 212 c 0
 575 205 570 199 564 194 c 0
 558 189 550 184 542 181 c 0
 534 178 524 176 515 176 c 0
 502 176 491 178 481 183 c 0
 471 188 462 194 456 202 c 0
 449 210 444 220 441 230 c 0
 438 240 437 251 437 263 c 2
 437 269 l 2
 437 280 438 292 441 302 c 0
 444 312 449 322 456 330 c 0
 462 338 471 344 481 349 c 0
 491 354 502 356 515 356 c 0
 525 356 534 354 543 351 c 0
 552 348 560 344 566 338 c 0
 572 332 576 326 580 318 c 0
 584 310 585 302 585 293 c 1
 558 293 l 1
 558 298 556 303 554 308 c 0
 552 313 549 316 545 320 c 0
 541 324 537 326 532 328 c 0
 527 330 521 331 515 331 c 0
 506 331 498 330 492 326 c 0
 486 322 481 318 477 312 c 0
 473 306 471 299 469 292 c 0
 467 285 466 276 466 269 c 2
 466 263 l 2
 466 255 467 247 469 240 c 0
 471 233 473 226 477 220 c 0
 481 214 486 210 492 206 c 0
 498 202 506 200 515 200 c 0
752 180 m 2
 751 182 750 185 749 188 c 0
 748 191 747 194 747 198 c 1
 744 195 741 193 737 190 c 0
 733 187 729 185 725 183 c 0
 721 181 716 179 711 178 c 0
 706 177 701 176 695 176 c 0
 686 176 677 177 670 180 c 0
 663 183 656 186 651 191 c 0
 646 195 642 201 639 207 c 0
 636 213 635 221 635 228 c 0
 635 237 637 245 641 252 c 0
 645 259 650 265 657 270 c 0
 664 275 672 279 682 281 c 0
 692 283 703 284 715 284 c 2
 747 284 l 1
 747 298 l 2
 747 303 746 308 744 312 c 0
 742 316 740 320 736 323 c 0
 732 326 728 328 723 330 c 0
 718 332 712 332 706 332 c 0
 700 332 695 331 690 330 c 0
 685 329 682 326 679 324 c 0
 676 322 673 318 671 315 c 0
 669 312 668 309 668 305 c 1
 639 305 l 1
 639 311 641 317 644 323 c 0
 647 329 651 335 657 340 c 0
 663 345 671 348 679 351 c 0
 688 354 697 356 708 356 c 0
 718 356 727 354 735 352 c 0
 743 350 751 346 757 341 c 0
 763 336 767 330 771 323 c 0
 775 316 776 308 776 298 c 2
 776 217 l 2
 776 211 777 205 778 199 c 0
 779 193 781 187 783 182 c 2
 783 180 l 1
 752 180 l 2
699 202 m 0
 705 202 711 203 716 204 c 0
 721 205 725 208 729 210 c 0
 733 212 737 216 740 219 c 0
 743 222 745 225 747 228 c 2
 747 263 l 1
 719 263 l 2
 709 263 701 263 693 261 c 0
 685 259 679 257 675 253 c 0
 672 250 669 248 667 244 c 0
 665 240 665 236 665 232 c 0
 665 228 666 224 667 220 c 0
 668 216 670 214 673 211 c 0
 676 208 680 205 684 204 c 0
 688 203 693 202 699 202 c 0
948 356 m 0
 953 356 959 356 965 355 c 0
 971 354 975 353 978 352 c 2
 974 323 l 1
 968 324 963 324 958 325 c 0
 953 326 948 326 942 326 c 0
 935 326 928 326 922 324 c 0
 916 322 911 319 907 316 c 0
 903 313 899 309 896 305 c 0
 893 301 891 296 889 291 c 2
 889 180 l 1
 859 180 l 1
 859 353 l 1
 888 353 l 1
 889 329 l 1
 889 325 l 1
 896 334 904 342 914 347 c 0
 924 353 935 356 948 356 c 0
EndSplineSet
Validated: 1
EndChar

StartChar: p
Encoding: 112 112 43
Width: 825
Flags: HW
HStem: 176 26<276 343 478 543 670 736> 263 21<282 354 675 747> 273 24<81 160> 332 24<282 345 481 539 675 739> 388 24<81 160>
VStem: 51 30<180 273 297 388> 174 30<308 377> 242 30<206 256 305 324> 354 30<180 182 212 263 284 325> 441 30<113 196 207 324 334 353> 558 30<215 316> 635 30<206 256 305 324> 747 30<180 182 212 263 284 325>
LayerCount: 2
Fore
SplineSet
81 273 m 1xbff8
 81 180 l 1
 51 180 l 1
 51 412 l 1
 126 412 l 2
 136 412 147 410 156 407 c 0
 165 404 174 400 181 394 c 0
 188 388 193 381 197 372 c 0
 201 363 204 353 204 342 c 0
 204 331 201 322 197 313 c 0
 193 304 188 297 181 291 c 0
 174 285 165 281 156 278 c 0
 147 275 136 273 126 273 c 2
 81 273 l 1xbff8
81 297 m 1
 126 297 l 2
 133 297 139 298 145 300 c 0
 151 302 156 305 160 309 c 0
 164 313 168 318 170 323 c 0
 172 329 174 335 174 342 c 0
 174 349 172 355 170 361 c 0
 168 367 165 372 161 376 c 0
 157 380 151 383 145 385 c 0
 139 387 133 388 126 388 c 2
 81 388 l 1
 81 297 l 1
359 180 m 2
 358 182 357 185 356 188 c 0
 355 191 354 194 354 198 c 1
 351 195 348 193 344 190 c 0
 340 187 336 185 332 183 c 0
 328 181 323 179 318 178 c 0
 313 177 308 176 302 176 c 0
 293 176 284 177 277 180 c 0
 270 183 263 186 258 191 c 0
 253 195 249 201 246 207 c 0
 243 213 242 221 242 228 c 0
 242 237 244 245 248 252 c 0
 252 259 257 265 264 270 c 0
 271 275 279 279 289 281 c 0
 299 283 309 284 321 284 c 2
 354 284 l 1xdff8
 354 298 l 2
 354 303 353 308 351 312 c 0
 349 316 347 320 343 323 c 0
 339 326 335 328 330 330 c 0
 325 332 319 332 313 332 c 0
 307 332 302 331 297 330 c 0
 292 329 288 326 285 324 c 0
 282 322 280 318 278 315 c 0
 276 312 275 309 275 305 c 1
 246 305 l 1
 246 311 247 317 250 323 c 0
 253 329 258 335 264 340 c 0
 270 345 277 348 285 351 c 0
 294 354 303 356 314 356 c 0
 324 356 334 354 342 352 c 0
 350 350 358 346 364 341 c 0
 370 336 374 330 378 323 c 0
 382 316 383 308 383 298 c 2
 383 217 l 2
 383 211 384 205 385 199 c 0
 386 193 387 187 389 182 c 2
 389 180 l 1
 359 180 l 2
306 202 m 0
 312 202 317 203 322 204 c 0
 327 205 332 208 336 210 c 0
 340 212 344 216 347 219 c 0
 350 222 352 225 354 228 c 2
 354 263 l 1
 326 263 l 2
 316 263 307 263 299 261 c 0
 291 259 285 257 281 253 c 0
 278 250 276 248 274 244 c 0
 272 240 272 236 272 232 c 0
 272 228 273 224 274 220 c 0
 275 216 277 214 280 211 c 0
 283 208 287 205 291 204 c 0
 295 203 300 202 306 202 c 0
441 113 m 1
 441 353 l 1
 468 353 l 1
 470 334 l 1
 472 337 474 340 477 342 c 0
 480 344 483 346 486 348 c 0
 490 351 496 353 501 354 c 0
 507 355 513 356 519 356 c 0
 530 356 539 353 548 349 c 0
 557 345 564 339 570 331 c 0
 576 323 580 314 583 303 c 0
 586 292 587 280 587 267 c 2
 587 264 l 2
 587 252 586 240 583 229 c 0
 580 218 576 210 570 202 c 0
 564 194 557 187 548 183 c 0
 540 179 530 176 519 176 c 0
 512 176 507 177 501 178 c 0
 495 179 491 181 486 184 c 0
 483 186 480 188 478 190 c 0
 476 192 473 194 471 196 c 1
 471 113 l 1
 441 113 l 1
558 267 m 2
 558 275 557 283 555 291 c 0
 553 299 550 306 546 312 c 0
 542 318 538 323 532 326 c 0
 526 329 518 331 510 331 c 0
 505 331 501 330 497 329 c 0
 493 328 490 326 487 324 c 0
 484 322 481 320 478 317 c 0
 475 314 473 311 471 307 c 2
 471 224 l 2
 473 221 475 218 477 215 c 0
 479 212 482 210 485 208 c 0
 488 206 492 203 496 202 c 0
 500 201 506 201 511 201 c 0
 519 201 526 203 532 206 c 0
 538 210 542 214 546 220 c 0
 550 226 553 232 555 240 c 0
 557 248 558 256 558 264 c 2
 558 267 l 2
752 180 m 2
 751 182 750 185 749 188 c 0
 748 191 747 194 747 198 c 1
 744 195 741 193 737 190 c 0
 733 187 729 185 725 183 c 0
 721 181 716 179 711 178 c 0
 706 177 701 176 695 176 c 0
 686 176 677 177 670 180 c 0
 663 183 656 186 651 191 c 0
 646 195 642 201 639 207 c 0
 636 213 635 221 635 228 c 0
 635 237 637 245 641 252 c 0
 645 259 650 265 657 270 c 0
 664 275 672 279 682 281 c 0
 692 283 703 284 715 284 c 2
 747 284 l 1
 747 298 l 2
 747 303 746 308 744 312 c 0
 742 316 740 320 736 323 c 0
 732 326 728 328 723 330 c 0
 718 332 712 332 706 332 c 0
 700 332 695 331 690 330 c 0
 685 329 682 326 679 324 c 0
 676 322 673 318 671 315 c 0
 669 312 668 309 668 305 c 1
 639 305 l 1
 639 311 641 317 644 323 c 0
 647 329 651 335 657 340 c 0
 663 345 671 348 679 351 c 0
 688 354 697 356 708 356 c 0
 718 356 727 354 735 352 c 0
 743 350 751 346 757 341 c 0
 763 336 767 330 771 323 c 0
 775 316 776 308 776 298 c 2
 776 217 l 2
 776 211 777 205 778 199 c 0
 779 193 781 187 783 182 c 2
 783 180 l 1
 752 180 l 2
699 202 m 0
 705 202 711 203 716 204 c 0
 721 205 725 208 729 210 c 0
 733 212 737 216 740 219 c 0
 743 222 745 225 747 228 c 2
 747 263 l 1
 719 263 l 2
 709 263 701 263 693 261 c 0
 685 259 679 257 675 253 c 0
 672 250 669 248 667 244 c 0
 665 240 665 236 665 232 c 0
 665 228 666 224 667 220 c 0
 668 216 670 214 673 211 c 0
 676 208 680 205 684 204 c 0
 688 203 693 202 699 202 c 0
EndSplineSet
Validated: 1
EndChar

StartChar: q
Encoding: 113 113 44
Width: 1204
Flags: HW
HStem: 177 25<87 143 279 339 478 550 669 729 866 938 1057 1123> 257 24<459 551 847 939> 330 24<477 537 670 729 865 925 1059 1120> 387 26<85 149> 402 20G<630 659>
VStem: 35 29<224 365> 170 29<223 366> 243 29<206 351> 351 29<180 203 210 351> 429 29<219 257> 551 29<281 318> 630 29<180 199 210 321 332 422> 745 29<215 316> 817 29<219 257> 939 29<281 318> 1012 29<215 315> 1132 28<210 234 292 320>
LayerCount: 2
Fore
SplineSet
199 285 m 2xf7ff80
 199 276 198 268 197 259 c 0
 196 250 194 242 191 234 c 0
 188 226 184 218 180 211 c 0
 176 204 170 198 164 193 c 1
 204 160 l 1
 184 141 l 1
 138 180 l 2
 135 179 132 178 128 178 c 0
 125 177 121 177 117 177 c 0
 107 177 99 178 91 181 c 0
 83 184 76 189 70 194 c 0
 64 199 58 205 54 212 c 0
 50 219 47 226 44 234 c 0
 41 242 38 250 37 259 c 0
 36 268 35 277 35 285 c 2
 35 305 l 2
 35 313 36 321 37 330 c 0
 38 339 41 347 44 355 c 0
 47 363 50 371 54 378 c 0
 58 385 64 391 70 396 c 0
 76 401 83 405 91 408 c 0
 99 411 107 413 117 413 c 0
 127 413 135 411 143 408 c 0
 151 405 158 401 164 396 c 0
 170 391 176 385 180 378 c 0
 184 371 188 363 191 355 c 0
 194 347 196 339 197 330 c 0
 198 321 199 313 199 305 c 2
 199 285 l 2xf7ff80
170 305 m 2
 170 311 170 317 169 323 c 0
 168 329 167 336 166 342 c 0
 164 348 163 354 160 359 c 0
 157 364 154 369 150 373 c 0
 146 377 141 381 136 383 c 0
 131 385 124 387 117 387 c 0
 110 387 103 386 98 383 c 0
 93 381 88 377 84 373 c 0
 80 369 78 364 75 359 c 0
 72 354 70 347 68 341 c 0
 66 335 66 329 65 323 c 0
 64 317 64 311 64 305 c 2
 64 285 l 2
 64 279 64 273 65 267 c 0
 66 261 66 254 68 248 c 0
 70 242 72 236 75 231 c 0
 78 226 80 220 84 216 c 0
 88 212 93 209 98 206 c 0
 103 204 110 203 117 203 c 0
 124 203 131 204 136 206 c 0
 141 209 146 212 150 216 c 0
 154 220 157 226 160 231 c 0
 163 236 164 242 166 248 c 0
 167 254 168 260 169 266 c 0
 170 272 170 279 170 285 c 2
 170 305 l 2
354 180 m 1
 352 203 l 1
 346 195 340 189 331 184 c 0
 322 179 312 177 301 177 c 0
 292 177 284 178 277 181 c 0
 270 184 264 188 259 194 c 0
 254 200 250 207 247 216 c 0
 244 225 243 236 243 249 c 2
 243 351 l 1
 272 351 l 1
 272 249 l 2
 272 240 273 232 274 226 c 0
 275 220 278 215 281 211 c 0
 284 207 287 205 291 204 c 0
 295 203 300 201 306 201 c 0
 313 201 319 203 324 204 c 0
 329 206 333 207 337 210 c 0
 340 212 343 215 345 218 c 0
 347 221 349 224 351 228 c 2
 351 351 l 1
 380 351 l 1
 380 180 l 1
 354 180 l 1
511 177 m 0
 499 177 488 179 478 183 c 0
 468 187 459 193 452 200 c 0
 445 207 439 216 435 226 c 0
 431 236 429 247 429 259 c 2
 429 266 l 2
 429 280 432 292 436 303 c 0
 440 314 447 323 454 331 c 0
 461 338 469 344 478 348 c 0
 487 352 497 354 507 354 c 0
 519 354 530 351 539 347 c 0
 548 343 556 337 562 330 c 0
 568 322 573 313 576 303 c 0
 579 293 580 282 580 270 c 2
 580 257 l 1
 459 257 l 1
 459 256 l 2
 460 248 460 240 463 234 c 0
 466 228 469 222 474 217 c 0
 479 212 484 208 491 205 c 0
 498 202 504 201 512 201 c 0
 522 201 532 203 540 207 c 0
 548 211 555 217 560 224 c 1
 578 210 l 1
 572 201 564 194 553 187 c 0
 542 180 528 177 511 177 c 0
507 330 m 0
 501 330 495 328 490 326 c 0
 485 324 480 321 476 317 c 0
 472 313 468 308 465 302 c 0
 462 296 460 289 459 281 c 1
 551 281 l 1
 551 282 l 2
 551 287 550 293 548 299 c 0
 546 305 544 311 540 315 c 0
 536 319 531 323 526 326 c 0
 521 329 514 330 507 330 c 0
774 263 m 2
 774 256 773 249 772 242 c 0
 771 235 770 229 768 223 c 0
 765 215 761 207 756 201 c 0
 751 195 746 190 740 186 c 0
 735 183 731 181 725 179 c 0
 720 177 713 177 707 177 c 0
 700 177 693 178 687 180 c 0
 681 182 675 184 670 187 c 0
 668 189 666 191 664 193 c 0
 662 195 660 197 658 199 c 1
 656 180 l 1
 630 180 l 1
 630 422 l 1
 659 422 l 1xefff80
 659 332 l 1
 661 335 664 338 667 340 c 0
 670 343 673 345 676 347 c 0
 680 349 685 351 690 352 c 0
 695 353 700 354 706 354 c 0
 713 354 721 353 727 351 c 0
 733 349 739 346 744 342 c 0
 749 339 752 335 756 330 c 0
 760 325 762 320 765 314 c 0
 768 307 771 300 772 292 c 0
 773 284 774 276 774 267 c 2
 774 263 l 2
745 267 m 2
 745 272 745 277 744 282 c 0
 743 287 742 292 741 297 c 0
 739 303 736 307 733 312 c 0
 730 317 726 320 722 323 c 0
 719 325 716 326 712 327 c 0
 708 328 704 329 699 329 c 0
 694 329 689 328 685 327 c 0
 681 326 677 324 674 322 c 0
 671 320 668 316 665 313 c 0
 662 310 661 307 659 303 c 2
 659 228 l 2
 661 224 662 221 665 218 c 0
 668 215 671 211 674 209 c 0
 677 207 682 204 686 203 c 0
 690 202 695 202 700 202 c 0
 705 202 709 202 713 203 c 0
 717 204 721 207 724 209 c 0
 728 212 731 215 734 220 c 0
 737 225 739 229 741 235 c 0
 742 239 743 244 744 249 c 0
 745 254 745 258 745 263 c 2
 745 267 l 2
899 177 m 0
 887 177 876 179 866 183 c 0
 856 187 847 193 840 200 c 0
 833 207 827 216 823 226 c 0
 819 236 817 247 817 259 c 2
 817 266 l 2
 817 280 820 292 824 303 c 0
 828 314 834 323 841 331 c 0
 848 338 857 344 866 348 c 0
 875 352 885 354 895 354 c 0
 907 354 918 351 927 347 c 0
 936 343 944 337 950 330 c 0
 956 322 961 313 964 303 c 0
 967 293 968 282 968 270 c 2
 968 257 l 1
 846 257 l 1
 846 256 l 2
 847 248 848 240 851 234 c 0
 854 228 857 222 862 217 c 0
 867 212 872 208 879 205 c 0
 886 202 892 201 900 201 c 0
 910 201 920 203 928 207 c 0
 936 211 943 217 948 224 c 1
 966 210 l 1
 960 201 951 194 940 187 c 0
 929 180 916 177 899 177 c 0
895 330 m 0
 889 330 883 328 878 326 c 0
 873 324 868 321 864 317 c 0
 860 313 856 308 853 302 c 0
 850 296 848 289 847 281 c 1
 939 281 l 1
 939 282 l 2
 939 287 938 293 936 299 c 0
 934 305 932 311 928 315 c 0
 924 319 919 323 914 326 c 0
 909 329 902 330 895 330 c 0
1090 200 m 0
 1095 200 1100 201 1105 203 c 0
 1110 205 1115 207 1119 210 c 0
 1123 213 1126 217 1128 221 c 0
 1130 225 1132 229 1132 234 c 1
 1159 234 l 1
 1159 226 1157 219 1153 212 c 0
 1149 205 1144 199 1138 194 c 0
 1132 189 1124 184 1116 181 c 0
 1108 178 1099 177 1090 177 c 0
 1077 177 1066 179 1056 184 c 0
 1046 189 1038 195 1032 203 c 0
 1025 211 1020 220 1017 230 c 0
 1014 240 1012 251 1012 262 c 2
 1012 269 l 2
 1012 280 1014 291 1017 301 c 0
 1020 311 1025 320 1032 328 c 0
 1038 336 1046 342 1056 347 c 0
 1066 352 1077 354 1090 354 c 0
 1100 354 1110 352 1118 349 c 0
 1127 346 1134 341 1140 336 c 0
 1146 330 1151 324 1154 316 c 0
 1157 308 1159 301 1159 292 c 1
 1132 292 l 1
 1132 297 1130 301 1128 306 c 0
 1126 311 1124 316 1120 319 c 0
 1116 322 1111 325 1106 327 c 0
 1101 329 1096 330 1090 330 c 0
 1081 330 1073 328 1067 324 c 0
 1061 320 1056 316 1052 310 c 0
 1048 304 1046 298 1044 291 c 0
 1042 284 1042 276 1042 269 c 2
 1042 262 l 2
 1042 255 1042 247 1044 240 c 0
 1046 233 1048 226 1052 220 c 0
 1056 214 1061 210 1067 206 c 0
 1073 202 1081 200 1090 200 c 0
EndSplineSet
Validated: 1
EndChar

